<svg xmlns="http://www.w3.org/2000/svg" width="363.535" height="374.827" viewBox="0 0 363.535 374.827"><defs><style>.a{fill:#c7c7c7;}.b{fill:#ebebeb;}.c{fill:#dbdbdb;}.d,.k{fill:#263238;}.e{fill:#ad6359;}.f{fill:#f2421b;}.g,.h{opacity:0.1;}.i{fill:#455a64;}.j{fill:#ff98b9;}.k{opacity:0.2;}.l{fill:#37474f;}.m{fill:#fff;}</style></defs><g transform="translate(-30.76)"><g transform="translate(31.199)"><rect class="a" width="0.829" height="112.365" transform="translate(38.61)"/><path class="b" d="M109.333,176.54l-3.134,6.9H34.426l-3.126-6.9,30.552-21.15h16.93Z" transform="translate(-31.292 -26.559)"/><path class="c" d="M86.765,130.81l-2.122,20.379H67.712L65.59,130.81Z" transform="translate(-37.153 -22.358)"/><path class="c" d="M109.331,180.9l-3.142,6.9H34.424l-3.134-6.9Z" transform="translate(-31.29 -30.92)"/><rect class="a" width="0.829" height="90.113" transform="translate(122.389)"/><path class="b" d="M210.383,149.69l-3.134,6.906H135.476l-3.126-6.906L162.9,128.54h16.93Z" transform="translate(-48.563 -21.97)"/><path class="c" d="M187.815,103.97l-2.122,20.37h-16.93l-2.122-20.37Z" transform="translate(-54.424 -17.771)"/><path class="c" d="M210.381,154.06l-3.142,6.9H135.474l-3.134-6.9Z" transform="translate(-48.562 -26.332)"/><path class="b" d="M46.726,221.985l-8.183,13.191,4.062,2.487a3.689,3.689,0,0,1,1.658,3.474,20.513,20.513,0,0,0-.075,2.263,3.731,3.731,0,0,1-1.923,3.391l-4.145,2.247,7.362,13.713,4.145-2.247a3.648,3.648,0,0,1,3.789.207,22.135,22.135,0,0,0,2.106,1.3,3.623,3.623,0,0,1,1.874,3.316l-.149,4.751,15.52.481.141-4.767a3.64,3.64,0,0,1,2.106-3.184c.365-.174.721-.357,1.078-.547s.7-.39,1.045-.6a3.631,3.631,0,0,1,3.805,0l4.071,2.487,8.175-13.191-4.071-2.529a3.681,3.681,0,0,1-1.658-3.474,20.43,20.43,0,0,0,.075-2.255,3.731,3.731,0,0,1,1.932-3.391l4.145-2.247-7.337-13.68-4.2,2.247a3.706,3.706,0,0,1-3.88-.274,21.044,21.044,0,0,0-1.923-1.186,3.656,3.656,0,0,1-1.965-3.316L74.5,215.9l-15.512-.489-.149,4.767a3.681,3.681,0,0,1-2.156,3.2c-.348.158-.688.332-1.028.514s-.672.373-.995.572a3.7,3.7,0,0,1-3.872,0Zm11.723,10.679a12.718,12.718,0,1,1-4.485,14.824,12.718,12.718,0,0,1,4.485-14.824Z" transform="translate(-32.457 -36.818)"/><path class="b" d="M452.806,64.127a2.172,2.172,0,0,1-1.07-2.015q0-.336,0-.672v-.68a2.172,2.172,0,0,1,1.07-2.015l2.429-1.4-4.56-7.918-2.462,1.434a2.156,2.156,0,0,1-2.28-.083c-.381-.24-.771-.473-1.177-.68a2.18,2.18,0,0,1-1.2-1.932V45.34h-9.12v2.794a2.172,2.172,0,0,1-1.219,1.9,10.673,10.673,0,0,0-1.177.68,2.156,2.156,0,0,1-2.28.083l-2.429-1.4-4.568,7.918,2.437,1.409a2.156,2.156,0,0,1,1.078,2.04q0,.336,0,.672V62.1a2.172,2.172,0,0,1-1.078,2.023l-2.437,1.4,4.568,7.918,2.421-1.4a2.172,2.172,0,0,1,2.28.075,11.929,11.929,0,0,0,1.186.688,2.172,2.172,0,0,1,1.194,1.932v2.794h9.12v-2.8a2.181,2.181,0,0,1,1.2-1.932,12.965,12.965,0,0,0,1.186-.688,2.156,2.156,0,0,1,2.272-.075l2.429,1.4,4.56-7.918Zm-13.8,4.8a4.359,4.359,0,1,0-.025-.008Z" transform="translate(-209.297 59.161)"/><path class="b" d="M204.63,314.924a2.18,2.18,0,0,1-1.078-1.857c0-.373,0-.738,0-1.111a3.383,3.383,0,0,1,.066-1.119,2.1,2.1,0,0,1,.547-.97,4.328,4.328,0,0,1,.929-.622l1.932-1.128v.041l-4.61-7.893h.108l-2.537,1.492a2.263,2.263,0,0,1-1.509.182,5.215,5.215,0,0,1-1.351-.647l-.63-.357a2.329,2.329,0,0,1-.622-.473,2.28,2.28,0,0,1-.63-1.409v-2.943l.191.191-9.12.083.282-.274v2.952a2.487,2.487,0,0,1-1.31,2.04l-.622.373-.622.365a2.7,2.7,0,0,1-.779.332,2.57,2.57,0,0,1-1.658-.191l-2.57-1.467.5-.133L175,308.316l-.149-.555,2.57,1.476a2.62,2.62,0,0,1,1.136,2.238v1.451a2.7,2.7,0,0,1-.116.829,2.545,2.545,0,0,1-1.02,1.368l-2.57,1.476.141-.522,4.527,7.934-.464-.124,2.578-1.451a2.545,2.545,0,0,1,1.658-.174,2.769,2.769,0,0,1,.754.323l.63.373.622.365a2.569,2.569,0,0,1,.647.506,2.421,2.421,0,0,1,.63,1.484v2.96l-.224-.224,9.12.091-.133.133v-2.943a2.238,2.238,0,0,1,.614-1.376,5.663,5.663,0,0,1,1.244-.829,5.512,5.512,0,0,1,1.335-.638,2.139,2.139,0,0,1,1.467.174l2.545,1.476h-.058l4.593-7.9h0Zm0,0,2.429,1.393h0l-4.535,7.926v.041h0l-2.554-1.451a2.073,2.073,0,0,0-1.393-.149,4.8,4.8,0,0,0-1.343.647,5.132,5.132,0,0,0-1.186.829,2.04,2.04,0,0,0-.539,1.268V328.5h-.133l-9.12.091h-.216v-3.209a1.89,1.89,0,0,0-.514-1.152,2.155,2.155,0,0,0-.514-.39l-.647-.365-.647-.365a1.9,1.9,0,0,0-.589-.232,1.866,1.866,0,0,0-1.235.149l-2.487,1.484-.29.174-.174-.3-4.6-7.893-.191-.332.332-.191,2.487-1.467a1.758,1.758,0,0,0,.688-.945,2.072,2.072,0,0,0,.083-.6v-1.492a2.071,2.071,0,0,0-.083-.6,1.7,1.7,0,0,0-.7-.929l-2.487-1.476-.356-.2.207-.348,4.593-7.893.191-.323.315.182,2.487,1.467a1.8,1.8,0,0,0,1.194.141,1.734,1.734,0,0,0,.572-.232l.647-.365.655-.365a2.006,2.006,0,0,0,.5-.373,1.8,1.8,0,0,0,.5-1.128v-3.2h.274l9.12.083h.207v3.117a2.023,2.023,0,0,0,.522,1.227,5.083,5.083,0,0,0,1.169.829,4.751,4.751,0,0,0,1.277.647,2.057,2.057,0,0,0,1.351-.141l2.562-1.434.066-.041v.066l4.535,7.934h0l-1.94,1.111a4.046,4.046,0,0,0-.92.614,2.023,2.023,0,0,0-.547.945,3.316,3.316,0,0,0-.075,1.111v1.111a2.18,2.18,0,0,0,1.053,1.915Z" transform="translate(-55.703 -50.564)"/><path class="b" d="M192.7,321.478a7.694,7.694,0,1,1,5.571-13.033,7.673,7.673,0,0,1-5.538,13.008Zm0,0a5.746,5.746,0,1,0-.008.025Z" transform="translate(-57.569 -52.317)"/></g><g transform="translate(30.76 362.531)"><path class="d" d="M30.76,437.676l45.442-.2,45.442-.075,90.884-.133,90.884.133,45.442.075,45.442.2-45.442.207-45.442.075-90.884.133-90.884-.133L76.2,437.884Z" transform="translate(-30.76 -437.27)"/></g><g transform="translate(42.195 171.934)"><path class="e" d="M137.252,311.471c7.3,31.745,22.385,69.8,28.827,75.977,8.15,7.81,62.065,22.136,64.751,22.427,6.633.672,20.006-47.258,12.909-48.294-10.778-1.559-50.043-3.689-52.389-6.1s-19.011-23.421-36.04-47.025C143.553,292.146,132.717,291.773,137.252,311.471Z" transform="translate(-60.217 -222.602)"/><path class="e" d="M243.9,420.561c.788.4,12.055,6.069,19.019,8.084,5.2,1.509,20.271,5.447,22.5-.116,1.525-3.781-7.072-7.138-13.091-9.651-3.175-1.327-7.089-4.643-6.152-6.682,1.658-3.565,9.808,0,15.18,3.134,10.388,6.036,24.226,16.9,30.568,11.607,2.4-1.99-.39-5.621-4.46-9.178,6.633,4.145,13.663,7.545,16.407,5.439,1.584-1.2,1.658-2.852.779-4.726,2.039.663,3.839.531,5.1-.829,2.147-2.255,1.1-5.571-1.252-8.979a2.554,2.554,0,0,0,1.957-1.277c4.552-6.939-18.24-26.862-26.108-28.728-23.173-5.513-47.6-4.485-47.6-4.485C247.647,381.479,243.875,420.545,243.9,420.561Z" transform="translate(-78.625 -235.875)"/><path class="d" d="M284.99,404.41a39.348,39.348,0,0,1,15.462,5.945c5.878,3.88,9.775,8.423,14.7,12.992a.141.141,0,0,1-.182.207c-2.346-2.172-12.08-10.347-14.592-12.2A37.524,37.524,0,0,0,284.99,404.5C284.915,404.493,284.932,404.393,284.99,404.41Z" transform="translate(-85.64 -241.055)"/><path class="d" d="M290.2,392.54c6.094,1.658,12.337,3.316,17.991,6.235,6.185,3.15,11.027,8.291,15.753,13.265q4.295,4.452,8.382,9.12c.108.133-.066.34-.182.207q-7.246-7.661-14.923-14.923A49.6,49.6,0,0,0,300.8,396.1c-3.482-1.335-7.064-2.388-10.645-3.449C290.1,392.631,290.13,392.523,290.2,392.54Z" transform="translate(-86.527 -239.027)"/><path class="d" d="M298.055,382.17c5.92,1.219,11.085,2.255,16.325,5.422,6.939,4.2,13.638,11.276,15.985,13.788,2.6,2.769,5.1,5.621,7.553,8.515.1.116-.1.3-.207.182a196.492,196.492,0,0,0-18.049-17.883,39.315,39.315,0,0,0-10.1-6.566,70.149,70.149,0,0,0-11.516-3.416S298.005,382.162,298.055,382.17Z" transform="translate(-87.878 -237.254)"/><path class="f" d="M234.6,358.845l-16.582,52.53s-44.895-12.818-53.061-21.664-23.347-54.529-27.8-76.673,6.74-21.556,17.029-7.636S190.1,353.2,191.5,353.936,234.6,358.845,234.6,358.845Z" transform="translate(-60.21 -222.452)"/><path class="g" d="M234.6,358.845l-16.582,52.53s-44.895-12.818-53.061-21.664-23.347-54.529-27.8-76.673,6.74-21.556,17.029-7.636S190.1,353.2,191.5,353.936,234.6,358.845,234.6,358.845Z" transform="translate(-60.21 -222.452)"/><path class="d" d="M228.329,401.023c2.015-6.193,4.071-12.37,5.845-18.638,1.011-3.557,2.04-7.122,3.018-10.687.041-.141-.182-.216-.232-.083-2.263,6.135-4.518,12.3-6.5,18.53s-4,12.436-5.886,18.629c-1.069,3.548-2.04,7.113-2.893,10.72,0,.066.1.108.124.041C224.275,413.476,226.306,407.258,228.329,401.023Z" transform="translate(-74.828 -235.439)"/><path class="d" d="M195.388,404.157l-1.99-.7c-3.739-1.335-7.553-2.769-11.143-4.237-.464-.182-.92-.373-1.368-.564-.721-.3-1.443-.605-2.139-.912l-1.045-.456-.373-.166-1.078-.5c-1.426-.655-2.777-1.31-4.038-1.973l-.829-.464a31.23,31.23,0,0,1-5.538-3.64c-.158-.141-.315-.282-.456-.423s-.29-.282-.415-.415c-8.208-8.846-23.347-54.529-27.8-76.673l-.149-.763v-.166c-.3-1.658-.564-3.764-.779-6.019h0c-.622-11.018,4.593-12.818,11.035-7.976C163.344,332.582,187.943,389.532,195.388,404.157Z" transform="translate(-60.217 -222.455)"/><path class="b" d="M159.331,412.412l-97.831.514c.083-2.106,14.011-63.706,25.088-86.44,14.2-29.15,21.556-31.5,25.892-33.064,5.6-2.006,15.562-1.011,17.925.108,2.686,1.252,11.226,16.159,14.285,27.094C150.808,342.62,160.708,411.069,159.331,412.412Z" transform="translate(-47.45 -221.889)"/><path class="f" d="M107.045,296.44S119.482,342.5,120.1,345.555c.937,4.444,7.138,67.852,7.138,67.852l-68.192.232s14.882-58.7,25.958-84.4C97.1,301.05,107.045,296.44,107.045,296.44Z" transform="translate(-47.031 -222.602)"/><g class="h" transform="translate(12.019 73.838)"><path d="M107.045,296.44S119.482,342.5,120.1,345.555c.937,4.444,7.138,67.852,7.138,67.852l-68.192.232s14.882-58.7,25.958-84.4C97.1,301.05,107.045,296.44,107.045,296.44Z" transform="translate(-59.05 -296.44)"/></g><path class="f" d="M145.69,294.65c.365,1.467,11.831,38.884,12.627,48.211.887,10.347,8.73,70.472,8.73,70.472H177s-14.4-86.382-18.356-95.51C150.548,299.193,145.69,294.65,145.69,294.65Z" transform="translate(-61.839 -222.296)"/><path class="g" d="M145.69,294.65c.365,1.467,11.831,38.884,12.627,48.211.887,10.347,8.73,70.472,8.73,70.472H177s-14.4-86.382-18.356-95.51C150.548,299.193,145.69,294.65,145.69,294.65Z" transform="translate(-61.839 -222.296)"/><path class="e" d="M91.924,307.8c-16.383,17.552-56.212,84.143-43.576,96.289s82.784-4.2,102.482-13.6c5.862-2.786-16.408-39.332-23.3-40.185-5.737-.7-35.053,12.7-35.907,11.018-.953-1.907,3.706-15.976,10.778-41.454C110.52,290.506,99.17,300.041,91.924,307.8Z" transform="translate(-44.785 -223.193)"/><path class="e" d="M179.48,344.178c14.244-1.99,18.24-.307,29.341-8.365,7.3-5.29,13.821-2.893,9.65,5.505-6.815,13.746-24.657,20.163-31.505,20.611Z" transform="translate(-67.615 -228.852)"/><path class="e" d="M133.84,360.078s16.01-8.888,30.983-12.5c10.347-2.487,33.478-5.43,55.615,17.411,5.248,5.414,8.888,16.855-2.893,11.126-8.374-4.071-12.436-9.178-17.751-10.662,0,0,2.9,15.1-2.728,20.147a139.192,139.192,0,0,1-15.645,12.138,28.593,28.593,0,0,1-2.537-2.719s-5.7,4.22-16.432,3.192Z" transform="translate(-59.814 -231.057)"/><path class="e" d="M183.035,347c4.974,2.578,15.346,8.224,22.244,15.8,7.669,8.423,20.163,26.7,13.887,32.334-4.593,4.1-9.949-2.487-9.949-2.487s3.573,8.647-1.393,11.441c-4.518,2.554-8.382-2.769-8.382-2.769s1.269,5.613-3.565,7.23c-5.8,1.94-7.511-10.148-15.1-13.265C179.047,394.539,183.035,347,183.035,347Z" transform="translate(-67.762 -231.243)"/><path class="d" d="M198.052,374c4.253,3.192,12.063,12.917,14.219,22.99.05.232-.091.39-.182.191a111.817,111.817,0,0,0-14.094-23.106C197.928,374,197.994,374,198.052,374Z" transform="translate(-70.775 -235.858)"/><path class="d" d="M188.07,383.627c3.391,3.134,10.994,13.514,12.826,23.8.041.232-.116.381-.191.174A119.86,119.86,0,0,0,188,383.693C187.946,383.644,188,383.586,188.07,383.627Z" transform="translate(-69.067 -237.501)"/><path class="d" d="M213.372,369.36c4.643,1.368,7.661,3.648,11.607,6.367a63.793,63.793,0,0,0,5.978,3.789c1.89,1.02,4.684,2.562,6.691.962,1.128-.887,1.111-2.487.829-3.789a18.63,18.63,0,0,0-2.554-5.281c0-.066.058-.141.108-.083a26.953,26.953,0,0,1,2.786,4.709,6.185,6.185,0,0,1,.423,3.623c-.688,2.554-3.706,2.894-5.8,2.189a20.562,20.562,0,0,1-3.648-1.766c-1.128-.647-2.222-1.343-3.316-2.073-2.205-1.492-4.32-3.109-6.508-4.626a60.237,60.237,0,0,0-6.633-3.863.083.083,0,0,1,.041-.158Z" transform="translate(-73.392 -235.065)"/><path class="d" d="M223.094,385.694c-1.2-2.645-7.71-13.671-9.816-16.225a.066.066,0,0,1,.091-.091c3.623,3.432,9.435,12.544,10.778,15.462s2.885,6.575,2.885,9.783c0,4.85-3.217,5.8-4.4,6.011a6.268,6.268,0,0,1-4.145-.68,12.619,12.619,0,0,1-3.747-3.515c-.05-.066.041-.158.1-.091,1.658,1.915,4.477,3.8,7.105,3.449a4.378,4.378,0,0,0,3-1.617,5.729,5.729,0,0,0,.779-3.9,26.813,26.813,0,0,0-2.628-8.581Z" transform="translate(-73.39 -235.067)"/><path class="f" d="M118.579,352.038,141.03,399.3s-87.816,19.715-95.394,4.427,26.531-75.115,41.893-92.542c17.817-20.2,20.089-13.323,16.167,4.577C99.552,334.5,91.65,361.589,91.65,361.589Z" transform="translate(-44.553 -223.016)"/><path class="g" d="M118.579,352.038,141.03,399.3s-87.816,19.715-95.394,4.427,26.531-75.115,41.893-92.542c17.817-20.2,20.089-13.323,16.167,4.577C99.552,334.5,91.65,361.589,91.65,361.589Z" transform="translate(-44.553 -223.016)"/><path class="d" d="M69.166,386.516a99.066,99.066,0,0,1,26.39-13.008c2.661-.829,5.348-1.617,8.034-2.388.083,0,.116.108,0,.133a126.55,126.55,0,0,0-13.754,5.356q-6.707,2.985-13.265,6.21c-2.487,1.219-4.908,2.554-7.346,3.855a.1.1,0,0,1-.058-.157Z" transform="translate(-48.756 -235.366)"/><path class="d" d="M128.026,359c-.439.116-24.458,8.05-25.245,8.415.1-.365,4.411-13.133,5.057-15.006.058-.182.116-.373.182-.556.431-.829.879-1.658,1.285-2.487.514-1.086,1.028-2.189,1.534-3.316h-.05l-1.658,3.209c-.257.489-.5.995-.738,1.5.423-1.318.829-2.645,1.235-3.98.647-2.114,1.227-4.253,1.8-6.392,0-.075-.083-.091-.108,0-1.277,3.723-2.67,7.4-3.955,11.126s-6.226,17.411-6.185,17.411,26.448-9.335,26.962-9.543a.2.2,0,1,0-.116-.381Z" transform="translate(-54.232 -230.102)"/><path class="d" d="M132.967,394.925c-2.487-5.265-4.9-10.562-7.561-15.753-1.517-2.943-3.018-5.895-4.56-8.821-.058-.108-.257,0-.207.091,2.272,5.389,4.56,10.778,7.08,16.076s4.974,10.529,7.536,15.753q2.189,4.452,4.651,8.763c0,.058.133,0,.108,0C137.925,405.545,135.462,400.247,132.967,394.925Z" transform="translate(-57.556 -235.227)"/><path class="d" d="M144,419.8c-.879-1.459-1.99-3.548-2.927-4.974-.249-.373-.539-.3-.34.091.672,1.327,1.227,2.811,1.882,4.145-1.227.249-2.487.464-3.7.721-1.426.3-2.844.605-4.27.9l-8.39,1.658q-8.506,1.584-17.079,2.786a334.879,334.879,0,0,1-34.539,3.242c-3.233.116-6.475.174-9.709.133a93.544,93.544,0,0,1-9.551-.464.079.079,0,0,0,0,.158,52.99,52.99,0,0,0,8.291,1.078c2.927.141,5.862.207,8.8.174,5.8-.066,11.665-.448,17.477-.978,11.524-1.061,23.015-2.62,34.407-4.635q4.792-.829,9.559-1.8c1.608-.323,3.209-.647,4.809-1S144.154,420.053,144,419.8Z" transform="translate(-46.391 -242.795)"/><path class="e" d="M141.48,307.416c-5.8,1.6-16.192-6.981-20.437-14.094-.29-.489.282-5.762.672-12.2.224-3.9.373-8.291.224-12.254,0-.829,25.229,5.157,25.229,5.157s-2.156,8.44-1.857,15.388a9.121,9.121,0,0,0,.232,1.658,1.9,1.9,0,0,1,.05.265C146.215,294.408,147.093,305.866,141.48,307.416Z" transform="translate(-57.613 -217.875)"/><path class="d" d="M124,269c1.409,6.7,6.2,22.825,19.55,22.634a15.873,15.873,0,0,0,2.554-.232,1.194,1.194,0,0,0,0-.274,10.777,10.777,0,0,1-.24-1.658c-.29-6.956,1.857-15.4,1.857-15.4S129.464,269.754,124,269Z" transform="translate(-58.132 -217.911)"/><path class="i" d="M156.2,252.255c-.282,6.119,3.847,11.275,9.219,11.524s9.949-4.527,10.223-10.645-3.855-11.275-9.219-11.516S156.471,246.137,156.2,252.255Z" transform="translate(-63.633 -213.23)"/><ellipse class="a" cx="12.337" cy="10.828" rx="12.337" ry="10.828" transform="translate(88.83 51.588) rotate(-87.41)"/><path class="e" d="M125.43,228.426c-4.344,8.191-4.618,34.233.489,41.048,7.4,9.866,21.954,13.489,30.925,4.063,8.73-9.17,8.481-43.112,2.554-49.554C150.683,214.473,131.847,216.33,125.43,228.426Z" transform="translate(-57.812 -209.183)"/><path class="d" d="M151.854,254.867c0-.066-.141.091-.133.166.091,1.749-.091,3.772-1.658,4.386-.05,0-.041.108,0,.1C152,259.2,152.219,256.517,151.854,254.867Z" transform="translate(-62.581 -215.493)"/><path class="d" d="M149.837,252.709c-2.827-.149-2.918,5.513-.307,5.646S152.209,252.834,149.837,252.709Z" transform="translate(-62.173 -215.127)"/><path class="d" d="M164.04,255.127c0-.066.133.091.133.158-.083,1.758.116,3.781,1.658,4.386.05,0,0,.108,0,.1C163.916,259.463,163.676,256.777,164.04,255.127Z" transform="translate(-64.951 -215.538)"/><path class="d" d="M165.648,253c2.819-.174,2.952,5.489.332,5.646S163.277,253.1,165.648,253Z" transform="translate(-64.958 -215.176)"/><path class="d" d="M146.957,246.52a22.678,22.678,0,0,0,2.3-.332,3.748,3.748,0,0,0,2.28-.829,1.194,1.194,0,0,0,.083-1.459,2.96,2.96,0,0,0-2.877-.829,4.328,4.328,0,0,0-2.827,1.368,1.277,1.277,0,0,0,1.036,2.081Z" transform="translate(-61.83 -213.464)"/><path class="d" d="M168.26,247.214a21.366,21.366,0,0,1-2.239-.622,3.739,3.739,0,0,1-2.164-1.036,1.194,1.194,0,0,1,.091-1.459,2.985,2.985,0,0,1,2.968-.506,4.369,4.369,0,0,1,2.636,1.708,1.277,1.277,0,0,1-1.293,1.915Z" transform="translate(-64.909 -213.536)"/><path class="d" d="M148.333,274.473c.415.415.829.987,1.459,1.053a4.709,4.709,0,0,0,1.89-.415.066.066,0,0,1,.075.091,2.346,2.346,0,0,1-2.239.92,1.882,1.882,0,0,1-1.36-1.575C148.134,274.448,148.267,274.407,148.333,274.473Z" transform="translate(-62.261 -218.841)"/><path class="d" d="M150.692,264.287a5.961,5.961,0,0,0,3.938,2.719,7.462,7.462,0,0,0,2.147.141,3.318,3.318,0,0,0,.415-.041l.381-.058a.439.439,0,0,0,.365-.381h0a1.338,1.338,0,0,0,0-.182h0v-.158c.058-1.351,0-3.407,0-3.407.489.257,2.993,1.434,2.96.73-.249-5.853-.531-12.353-2.015-18.115a.166.166,0,0,0-.323,0c0,5.629,1.028,11.217,1.136,16.872a10.661,10.661,0,0,0-2.8-.9c-.191.058.257,3.971.182,4.577a.37.37,0,0,1,0,.066c-2.28.249-3.98-.464-6.152-2.023C150.725,264.03,150.585,264.138,150.692,264.287Z" transform="translate(-62.688 -213.879)"/><path class="d" d="M155.836,270.329a7.039,7.039,0,0,1-2.869,2.156,3.209,3.209,0,0,1-1.94.091c-1.393-.4-1.409-1.658-1.136-2.777a7.638,7.638,0,0,1,.655-1.658,9.186,9.186,0,0,0,5.29,2.189Z" transform="translate(-62.534 -217.764)"/><path class="j" d="M152.967,272.826a3.208,3.208,0,0,1-1.94.091c-1.393-.4-1.409-1.658-1.136-2.777A3.309,3.309,0,0,1,152.967,272.826Z" transform="translate(-62.534 -218.106)"/><path class="k" d="M122.18,247.459c1.708-.274,5.8-6.052,7.536-8.349s2.736-14.608,2.893-17.411a18.447,18.447,0,0,0-7.18,7.346C123.49,232.727,122.371,239.965,122.18,247.459Z" transform="translate(-57.821 -209.827)"/><path class="d" d="M157.212,233.4a8.821,8.821,0,0,1-8.142,2.728,8.987,8.987,0,0,1-6.749-5.58c0-.091-.166-.041-.133.041a8.888,8.888,0,0,0,6.74,6.243,9.07,9.07,0,0,0,8.448-3.316.108.108,0,0,0-.166-.116Z" transform="translate(-61.24 -211.331)"/><path class="d" d="M147.438,207.38c-5.115-.05-9.891,2.628-11.872,6.044a9.9,9.9,0,0,0-1.161,6.417c0,.091.191.075.182,0a10.853,10.853,0,0,1,5.43-9.642,14,14,0,0,1,12.436-1.094,8.788,8.788,0,0,1,4.626,3.963c.1.191.481.083.406-.108C156.193,209.71,152.056,207.421,147.438,207.38Z" transform="translate(-59.89 -207.379)"/><path class="d" d="M182.442,220.226a11.3,11.3,0,0,0-4.61-6.21c-3.076-2.04-6.633-1.865-10.148-1.617a.075.075,0,1,0,0,.149c3-.2,6.061-.232,8.763,1.268a11.06,11.06,0,0,1,4.974,5.547,10.778,10.778,0,0,1-4.892,13.265,10.977,10.977,0,0,1-8.672.605c-.116-.041-.2.116-.091.166a11.035,11.035,0,0,0,14.691-13.174Z" transform="translate(-65.586 -208.212)"/><path class="d" d="M123.447,232.015s-4.527-9.311-.282-14.451c2.4-2.91,10.015-2.247,10.015-2.247a13.758,13.758,0,0,1,8.979-5.505c6.367-1.219,13.879,2.769,13.879,2.769s6.185-3.242,11.74.207c7.752,4.809,6.326,16.822-1.783,20.4-5.687,2.487-13.1-2.7-13.1-2.7-.738.075-8.382,4.3-13.788-2.57,0,0-4.742,3.913-8.763.9A6.633,6.633,0,0,1,123.447,232.015Z" transform="translate(-57.679 -207.755)"/><path class="e" d="M125.646,254.942s-4.3-9.12-8.357-7.76-1.807,13.978,2.255,16.349a4.494,4.494,0,0,0,6.342-1.351Z" transform="translate(-56.619 -214.159)"/><path class="d" d="M118.6,251.54c-.066,0-.1.083,0,.116,2.835,1.758,3.955,4.867,4.568,7.992-.7-1.285-1.841-2.114-3.532-1.3a.1.1,0,0,0,.05.182A2.777,2.777,0,0,1,122.519,260a13.621,13.621,0,0,1,1.011,2.67c.1.3.614.232.564-.1a.24.24,0,0,0,0-.075C124.79,258.62,122.709,252.659,118.6,251.54Z" transform="translate(-57.198 -214.927)"/><path class="a" d="M136.083,276.1l-8.166-3.524L121.35,264.4l1.26-1.02,6.318,7.868,7.8,3.366Z" transform="translate(-57.679 -216.951)"/><path class="l" d="M138.054,276.876c.829-2.379,7.462-1.5,6.26,2.1S137.25,279.239,138.054,276.876Z" transform="translate(-60.521 -219.03)"/><path class="a" d="M117.562,240.348s-.887-13.373,3.026-20.727c4.361-8.216,22.435-16.034,34.821-7.2,0,0-20.122-3.6-29.5,7.793-3.946,4.792-3.847,20.511-3.847,20.511Z" transform="translate(-57.017 -207.574)"/><ellipse class="a" cx="10.828" cy="12.337" rx="10.828" ry="12.337" transform="matrix(1, -0.01, 0.01, 1, 51.298, 27.416)"/><path class="i" d="M124.868,252.374c.058,6.127-4.245,11.135-9.617,11.184s-9.783-4.867-9.841-10.994,4.245-11.135,9.617-11.184S124.81,246.247,124.868,252.374Z" transform="translate(-54.955 -213.191)"/><path class="b" d="M144.491,294.7l-5.845,14.758L120.257,290.9l-5.157,6s18.032,29.524,18.14,28.189l6.011-12.726,8.8,8.8-.829-22.17Z" transform="translate(-56.611 -221.655)"/><path class="d" d="M148.186,311.413c-.257-3.656-.406-7.346-.829-10.985a.125.125,0,0,0-.249,0c-.713,3.54.34,17.51.34,20.868h-.041c-.365-.381-8.158-7.735-8.233-7.619-1.3,2.023-5.721,11.284-6.019,12.129-2.852-4.693-14.923-23.173-18.323-27.608a.124.124,0,1,0-.216.124c2.487,4.974,18.157,29.358,18.372,29.291a144.768,144.768,0,0,0,6.293-13.448c1.318,1.6,9.178,9.908,9.2,9.36A114.406,114.406,0,0,0,148.186,311.413Z" transform="translate(-56.525 -222.891)"/></g><g transform="translate(295.933 187.422)"><path class="i" d="M385.62,244.814H359.977a9.385,9.385,0,0,1-9.377-9.377h0a9.377,9.377,0,0,1,9.377-9.377H385.62A9.377,9.377,0,0,1,395,235.437h0a9.377,9.377,0,0,1-9.377,9.377Z" transform="translate(-350.6 -226.06)"/><g transform="translate(14.974 5.818)"><path class="m" d="M368.67,236.471a1.658,1.658,0,0,1,.282-.829l.232-.34.489-.489.572-.415a7.1,7.1,0,0,1,2.587-1,16.433,16.433,0,0,1,6.425,0,6.915,6.915,0,0,1,2.554.987c.2.133.4.282.589.423l.481.481a6.426,6.426,0,0,1,.348.564,4.422,4.422,0,0,1,.2.614h-4.2a.149.149,0,0,1-.158-.091,1.426,1.426,0,0,0-1.2-.771,28.581,28.581,0,0,0-3.673,0,1.409,1.409,0,0,0-1.194.763c0,.058-.058.1-.141.1H368.67Z" transform="translate(-368.663 -233.077)"/><path class="m" d="M368.669,239.684V238.15h4.145v1.534a.464.464,0,0,1-.531.531h-3.092a.456.456,0,0,1-.522-.531Z" transform="translate(-368.661 -233.944)"/><path class="m" d="M381.439,239.739V238.18h4.1v1.542a.464.464,0,0,1-.514.514H381.9a.448.448,0,0,1-.464-.5Z" transform="translate(-370.845 -233.95)"/></g></g><g transform="translate(158.585 269.036)"><rect class="i" width="5.687" height="3.714" transform="translate(61.47 94.93)"/><rect class="i" width="5.687" height="3.714" transform="translate(68.841 94.681)"/><rect class="i" width="5.687" height="3.714" transform="translate(76.219 94.432)"/><rect class="i" width="5.687" height="3.714" transform="translate(83.598 94.192)"/><rect class="i" width="5.687" height="3.714" transform="translate(90.977 93.943)"/><rect class="i" width="5.687" height="3.714" transform="translate(98.356 93.702)"/><rect class="i" width="5.687" height="3.714" transform="translate(105.735 93.454)"/><rect class="i" width="5.687" height="3.714" transform="translate(113.113 93.205)"/><rect class="i" width="5.687" height="3.714" transform="translate(120.484 92.965)"/><path class="l" d="M324.894,444.73h-67.5v-4.518l67.5-1.882Z" transform="translate(-197.321 -343.956)"/><path class="i" d="M395.3,407.458H283.87L301.587,324.5H413.016Z" transform="translate(-201.847 -324.5)"/><path class="l" d="M400.268,407.458H288.84L306.557,324.5H417.986Z" transform="translate(-202.697 -324.5)"/><ellipse class="d" cx="7.453" cy="6.367" rx="7.453" ry="6.367" transform="matrix(0.734, -0.679, 0.679, 0.734, 143.662, 37.037)"/><path class="i" d="M373.932,449.447h-54.8v-4.261l54.8-1.766Z" transform="translate(-207.874 -344.826)"/><path class="i" d="M393.48,441.1H364.056L346.33,394.61h29.424Z" transform="translate(-212.523 -336.483)"/><path class="d" d="M399.321,441.1H369.9L352.18,394.61H381.6Z" transform="translate(-213.523 -336.483)"/><path class="l" d="M242.925,447.947h-56.5c-4.817,0,2.156-13.73,19.757-18.994S248.48,442.8,242.925,447.947Z" transform="translate(-184.938 -342.198)"/><path class="d" d="M228.14,448.949a17.144,17.144,0,0,1,.771-4.61,19.316,19.316,0,0,1,1.9-4.3,15.652,15.652,0,0,1,3-3.64,13.265,13.265,0,0,1,3.971-2.487c-.605.5-1.293.829-1.849,1.385l-.829.738-.829.829a19.685,19.685,0,0,0-2.736,3.607,27.073,27.073,0,0,0-2.006,4.087,34.224,34.224,0,0,0-1.393,4.394Z" transform="translate(-192.322 -343.2)"/><path class="d" d="M236.21,436.29a36.306,36.306,0,0,1,9.427,4.734,20.332,20.332,0,0,1,3.938,3.565,12.1,12.1,0,0,1,1.451,2.247,6.517,6.517,0,0,1,.663,2.562,7.37,7.37,0,0,0-1.02-2.371,11.888,11.888,0,0,0-1.575-2.015,27.982,27.982,0,0,0-3.938-3.316c-1.4-1.011-2.885-1.915-4.369-2.811-.746-.448-1.509-.879-2.272-1.293S236.981,436.713,236.21,436.29Z" transform="translate(-193.701 -343.607)"/></g><g transform="translate(165.27 158.5)"><path class="m" d="M248.52,219.176a25.1,25.1,0,0,1-41.943,15.844L194,236.893l6.284-10.853a25.1,25.1,0,1,1,48.212-6.865Z" transform="translate(-193.171 -191.224)"/><path class="d" d="M248.349,219.128a25.228,25.228,0,0,1-5.066,12.726,28.425,28.425,0,0,1-2.272,2.62,29.591,29.591,0,0,1-2.653,2.239,24.482,24.482,0,0,1-6.052,3.374,24.956,24.956,0,0,1-6.757,1.608,23.375,23.375,0,0,1-3.49.066,22.129,22.129,0,0,1-3.474-.357,25.37,25.37,0,0,1-12.436-6.135l.3.091L193.9,237.293l-.9.166.456-.829,6.251-10.886v.431a25.353,25.353,0,1,1,48.667-7.047Zm0,0a24.877,24.877,0,0,0-38.834-23.073A25.991,25.991,0,0,0,202,204.246a24.872,24.872,0,0,0-3.2,10.629,25.171,25.171,0,0,0,1.783,10.977l.091.224-.124.2-6.318,10.836-.448-.663,12.569-1.758h.174l.124.116A24.748,24.748,0,0,0,218.677,241a22.243,22.243,0,0,0,3.408.415,24.959,24.959,0,0,0,3.432,0,24.54,24.54,0,0,0,6.707-1.476,23.463,23.463,0,0,0,6.052-3.258,30.752,30.752,0,0,0,2.653-2.214,28.187,28.187,0,0,0,2.28-2.6,25.2,25.2,0,0,0,5.14-12.743Z" transform="translate(-193 -191.176)"/><path class="d" d="M245.275,222.034a3.034,3.034,0,1,1-.892-2.149,3.043,3.043,0,0,1,.892,2.149Z" transform="translate(-200.895 -195.932)"/><path class="d" d="M232.135,222.034A3.043,3.043,0,1,1,229.1,219a3.043,3.043,0,0,1,3.034,3.034Z" transform="translate(-198.649 -195.932)"/><path class="d" d="M219.005,222.034A3.043,3.043,0,1,1,215.963,219a3.043,3.043,0,0,1,3.043,3.034Z" transform="translate(-196.405 -195.932)"/></g></g></svg>