<svg xmlns="http://www.w3.org/2000/svg" width="80" height="97" viewBox="0 0 129 97"><defs><style>.a{fill:#0a0c0d;}.b{fill:#d64f00;}.c,.o{fill:#898487;}.d{fill:#f1aea3;}.e{fill:#f39b7c;}.f{fill:#390400;}.g{fill:#c53319;}.h{fill:#253239;}.i{fill:#090b0c;}.j{fill:#b0a395;}.k,.r{fill:#fff;}.l{fill:#f2d1d3;}.m,.s{fill:#faf2ef;}.n{fill:#f0bcb3;}.n,.o,.s{mix-blend-mode:multiply;isolation:isolate;}.p{fill:#f0431c;}.q,.t{fill:#b7bcbd;}.q,.r{opacity:0.4;}.u{fill:#7e7d70;}</style></defs><g transform="translate(-334.544 -128.316)"><g transform="translate(334.544 128.316)"><g transform="translate(20.057 32.217)"><path d="M358.244,154.217a4.418,4.418,0,0,0-1.1.144h0l-.141-.561a5.014,5.014,0,0,1,1.238-.157h0a3.319,3.319,0,0,1,2.288.8h0l0,0-.394.423a2.758,2.758,0,0,0-1.9-.649Z" transform="translate(-347.633 -152.781)"/><path d="M361,155.871c-.188-.449-.262-2.762-.557-2.882,0,0-2.988.075-7.552,2.579a11.664,11.664,0,0,0-3,1.828l1.067,1.742a19.539,19.539,0,0,1,4.778-2.819,7.962,7.962,0,0,1,4.418-.087C360.41,156.451,361,155.871,361,155.871Z" transform="translate(-349.891 -152.989)"/><path class="a" d="M359.309,154.364a.624.624,0,0,0,.057.71c.221.233,2.653,1.933,2.653,1.933l.556-.519s-1.938-1.972-2.238-2.294a.561.561,0,0,0-.8-.108A1.644,1.644,0,0,0,359.309,154.364Z" transform="translate(-346.929 -152.679)"/></g><g transform="translate(5.061 67.451)"><rect class="b" width="23.963" height="22.52"/><g transform="translate(18.957 4.042)"><path class="c" d="M356.051,184.835a1.637,1.637,0,1,1-1.639-1.636A1.637,1.637,0,0,1,356.051,184.835Z" transform="translate(-352.776 -183.199)"/><path class="a" d="M355.439,184.717a1.146,1.146,0,1,1-1.145-1.145A1.145,1.145,0,0,1,355.439,184.717Z" transform="translate(-352.658 -183.081)"/></g><g transform="translate(13.472 4.042)"><path class="c" d="M351.884,184.835a1.636,1.636,0,1,1-1.635-1.636A1.634,1.634,0,0,1,351.884,184.835Z" transform="translate(-348.612 -183.199)"/><path class="a" d="M351.277,184.717a1.147,1.147,0,1,1-1.146-1.145A1.146,1.146,0,0,1,351.277,184.717Z" transform="translate(-348.494 -183.081)"/></g><g transform="translate(17.648 12.071)"><path class="a" d="M356.327,189.565a.268.268,0,0,1-.269.27h-4.006a.27.27,0,0,1-.27-.27h0a.271.271,0,0,1,.27-.271h4.006a.269.269,0,0,1,.269.271Z" transform="translate(-351.782 -189.294)"/><path class="a" d="M356.327,190.386a.269.269,0,0,1-.269.271h-4.006a.271.271,0,0,1-.27-.271h0a.27.27,0,0,1,.27-.27h4.006a.268.268,0,0,1,.269.27Z" transform="translate(-351.782 -189.033)"/><path class="a" d="M356.327,191.209a.269.269,0,0,1-.269.27h-4.006a.271.271,0,0,1-.27-.27h0a.271.271,0,0,1,.27-.271h4.006a.269.269,0,0,1,.269.271Z" transform="translate(-351.782 -188.772)"/><path class="a" d="M356.327,192.03a.268.268,0,0,1-.269.27h-4.006a.27.27,0,0,1-.27-.27h0a.27.27,0,0,1,.27-.27h4.006a.268.268,0,0,1,.269.27Z" transform="translate(-351.782 -188.511)"/><path class="a" d="M356.327,192.852a.27.27,0,0,1-.269.271h-4.006a.272.272,0,0,1-.27-.271h0a.27.27,0,0,1,.27-.27h4.006a.268.268,0,0,1,.269.27Z" transform="translate(-351.782 -188.251)"/><path class="a" d="M356.327,193.674a.269.269,0,0,1-.269.271h-4.006a.271.271,0,0,1-.27-.271h0a.271.271,0,0,1,.27-.271h4.006a.269.269,0,0,1,.269.271Z" transform="translate(-351.782 -187.99)"/><path class="a" d="M356.327,194.5a.268.268,0,0,1-.269.27h-4.006a.27.27,0,0,1-.27-.27h0a.271.271,0,0,1,.27-.271h4.006a.269.269,0,0,1,.269.271Z" transform="translate(-351.782 -187.729)"/><path class="a" d="M356.327,195.317a.269.269,0,0,1-.269.271h-4.006a.271.271,0,0,1-.27-.271h0a.27.27,0,0,1,.27-.27h4.006a.268.268,0,0,1,.269.27Z" transform="translate(-351.782 -187.468)"/></g><g transform="translate(11.187 12.071)"><path class="a" d="M351.427,189.565a.272.272,0,0,1-.273.27h-4.006a.27.27,0,0,1-.27-.27h0a.271.271,0,0,1,.27-.271h4.006a.272.272,0,0,1,.273.271Z" transform="translate(-346.878 -189.294)"/><path class="a" d="M351.427,190.386a.272.272,0,0,1-.273.271h-4.006a.271.271,0,0,1-.27-.271h0a.27.27,0,0,1,.27-.27h4.006a.272.272,0,0,1,.273.27Z" transform="translate(-346.878 -189.033)"/><path class="a" d="M351.427,191.209a.273.273,0,0,1-.273.27h-4.006a.271.271,0,0,1-.27-.27h0a.271.271,0,0,1,.27-.271h4.006a.272.272,0,0,1,.273.271Z" transform="translate(-346.878 -188.772)"/><path class="a" d="M351.427,192.03a.271.271,0,0,1-.273.27h-4.006a.27.27,0,0,1-.27-.27h0a.27.27,0,0,1,.27-.27h4.006a.272.272,0,0,1,.273.27Z" transform="translate(-346.878 -188.511)"/><path class="a" d="M351.427,192.852a.273.273,0,0,1-.273.271h-4.006a.272.272,0,0,1-.27-.271h0a.27.27,0,0,1,.27-.27h4.006a.271.271,0,0,1,.273.27Z" transform="translate(-346.878 -188.251)"/><path class="a" d="M351.427,193.674a.272.272,0,0,1-.273.271h-4.006a.271.271,0,0,1-.27-.271h0a.271.271,0,0,1,.27-.271h4.006a.272.272,0,0,1,.273.271Z" transform="translate(-346.878 -187.99)"/><path class="a" d="M351.427,194.5a.272.272,0,0,1-.273.27h-4.006a.27.27,0,0,1-.27-.27h0a.271.271,0,0,1,.27-.271h4.006a.272.272,0,0,1,.273.271Z" transform="translate(-346.878 -187.729)"/><path class="a" d="M351.427,195.317a.272.272,0,0,1-.273.271h-4.006a.271.271,0,0,1-.27-.271h0a.27.27,0,0,1,.27-.27h4.006a.272.272,0,0,1,.273.27Z" transform="translate(-346.878 -187.468)"/></g></g><path class="d" d="M342.59,145.873c.128-2.988,3.2-5.5,3.2-5.5l-4.62-5.388s-.1,3.079-5.294,7.573C335.233,143.111,342.59,145.873,342.59,145.873Z" transform="translate(-334.135 -126.199)"/><g transform="translate(6.073)"><path class="e" d="M351.147,133.516c-.472-3.3-7.374-6.956-9.57-2.382-3.99,8.33,1.095,11.178,1.095,11.178,1.2.83,1.739,1.4,3.224,1.288a4.79,4.79,0,0,0,2.888-1.948c.615.05,1.295.029,1.352-.4a19.6,19.6,0,0,1-.223-2.153A11.007,11.007,0,0,0,351.147,133.516Z" transform="translate(-338.87 -128.103)"/><path class="d" d="M347.92,130.088c-2.279-1.245-5.132-1.686-6.418,1-4,8.33,1.089,11.179,1.089,11.179.216.062,1.707,1.076,1.885,1.132C341.68,140.2,345.964,133.265,347.92,130.088Z" transform="translate(-338.895 -128.065)"/><path class="f" d="M343.26,129.025a5.358,5.358,0,0,1,5.031-.188,5.291,5.291,0,0,1,3.531,3.723,4.262,4.262,0,0,1-.285,2.647,4.079,4.079,0,0,0-1.337-.577c-.578-.071-1.157-.656-2.241.025a5.2,5.2,0,0,0-1.466,1.45s-2.54-.1-2.882.607-4.216,2.7-4.216,2.7a25.406,25.406,0,0,1-.145-5.2A6.208,6.208,0,0,1,343.26,129.025Z" transform="translate(-339.154 -128.316)"/><path class="d" d="M344.283,134.5c-.215-.474-.282-1.117-.9-.88s-2.016,2.1-1.433,3.1S344.283,134.5,344.283,134.5Z" transform="translate(-338.31 -126.65)"/><g transform="translate(6.924 0.681)"><path class="g" d="M346.336,134.5c1.088-.681,1.669-.1,2.242-.022a4.072,4.072,0,0,1,1.341.577,4.3,4.3,0,0,0,.285-2.649c-.812-2.06-1.116-2.639-3.279-3.549-.872-.365-2.106,3.407-2.515,7.065.713-.074.464.029.464.029A5.2,5.2,0,0,1,346.336,134.5Z" transform="translate(-344.41 -128.832)"/></g></g><path d="M343.348,195.572c.3,1.8.818,3.7,2.179,4.135,3.533,1.128,4.135,2.03,4.135,3.084,0,1.211-6.8.224-9.548.224-2.782,0-4.029-.867-3.233-3.083a20.948,20.948,0,0,0,1.2-4.512Z" transform="translate(-333.878 -107.827)"/><path class="a" d="M346.962,196.659c.3,1.8.821,3.7,2.18,4.135,3.532,1.128,4.135,2.03,4.135,3.083,0,1.213-6.805.227-9.549.227-2.782,0-4.028-.868-3.234-3.083a21.147,21.147,0,0,0,1.2-4.511Z" transform="translate(-332.731 -107.482)"/><path class="h" d="M336.843,166.4c0,2.444,1.022,17.352.578,20.018,0,0-1.557,18.215,0,20.883,5.111.444,7.206.379,7.65-.287s1.049-19.776-.283-28.884S336.843,166.4,336.843,166.4Z" transform="translate(-333.851 -117.038)"/><path class="i" d="M341.506,140.332c3.332,5.5,5.848,12.378,5.849,15.1,0,4.015.962,7.956.962,9.717s3.05,25.317,3.05,25.317c.445,3.3-1.238,26.684-1.238,26.684s-4.021,1.575-7.536-.164c-3.11-1.54-1.485-8.166-1.262-12.786s.137-9.584.137-9.584a106.212,106.212,0,0,0-2.889-10.559c-2.886-8.663-3.338-8.862-3.338-12.012,0-4.391,1.111-6.6.889-10.34s-2.176-10.191-1.406-16.478c.448-3.66,2.789-5.061,4.329-6.681Z" transform="translate(-334.544 -125.069)"/><g transform="translate(3.328 14.125)"><path class="h" d="M345.4,144.61c2.6,4.86,2.885,10.427,2.888,13.148,0,4.016.289,4.81.289,6.572s2.445,25.756,2.445,25.756c.444,3.3-1.8,27.018-1.8,27.018a11.419,11.419,0,0,1-4.849.6c-.107-5.374,1.9-20.579,2.03-25.27.148-5.507-5.039-29.152-6.387-34.3-3.609-13.767-2.94-14.284-2.793-15.623s1-2.137,1.9-3.476C339.116,139.038,343.873,141.762,345.4,144.61Z" transform="translate(-337.07 -139.038)"/></g><path class="i" d="M336.041,142.333c-1.165,1.744.753,5.29,1.914,8.853a14.832,14.832,0,0,0,4.865,7.335c1.681,1.336,6.937,3.909,10.844,2.473a2.588,2.588,0,0,0,1.719-1.637l-.308-3.127s-.215-.5-4.042-1.242c-3.494-.68-3.828-2.047-3.828-2.047s-3.009-5.524-4.37-8.851-3.113-3.27-4.322-3.27S336.041,142.333,336.041,142.333Z" transform="translate(-334.184 -124.52)"/><path class="a" d="M350.775,152.5l1.362.565c.941.286,3.264.36,3.894.628a18.03,18.03,0,0,1,2.564,1.965c.439.37,1.072,1.669.744,1.965s-.544.231-.746-.149a3.667,3.667,0,0,0-.427-.547c.285.447.574.987.469,1.191a.442.442,0,0,1-.785.119c-.27-.279-1.19-1.033-1.19-1.033s-.033.9-.27,1.022a2.256,2.256,0,0,1-.945-.009s-.2.531-.912.274-1.172-.433-1.379-.537a8.315,8.315,0,0,0-2.338-.387c-.57.063-1.628.311-1.628.311Z" transform="translate(-329.897 -120.921)"/><path class="i" d="M338.731,137.65l-1.586,1.828,6.351,4.8.627-2.021Z" transform="translate(-333.719 -125.353)"/><g transform="translate(8.854 0.02)"><path d="M348.256,128.331c-2.321,1.918-6.805,9.034-6.986,10.582s4.143,10.5,4.143,10.5l5.663-5.206-.6-2.076s3.6-6.153,3.645-7.29a4.3,4.3,0,0,0-1.523-3.557A23.989,23.989,0,0,0,348.256,128.331Z" transform="translate(-341.265 -128.331)"/><g transform="translate(7.216 6.669)"><path class="a" d="M352.223,133.826a3.279,3.279,0,0,0-2.188-.371c-1.88.412-3.209,3.17-3.291,4.192-.051.686,1.017,2.037,1.991,3.056l-.022-.126A66.511,66.511,0,0,0,352.223,133.826Z" transform="translate(-346.743 -133.393)"/></g></g><path d="M359.053,213.512c-.173,0-.349,0-.528-.007h0a29.98,29.98,0,0,1-6.01-.657h0c-1.306-.394-2.179-.581-2.353-1.634h0c.13-.937.876-1.112,1.782-1.383h0a18.183,18.183,0,0,1,4.072-.365h0a9.645,9.645,0,0,0,4.341-.9h0c1.018-.518,1.441-1.168,1.415-1.512h0c.043-.361-.487-1.076-2.477-1.419h0a.58.58,0,0,1-.473-.667h0a.579.579,0,0,1,.667-.473h0c2.121.361,3.393,1.223,3.437,2.558h0c-.154,2.091-2.96,3.513-6.91,3.57h0a12.152,12.152,0,0,0-4.588.6h0l.074.045h0a5.285,5.285,0,0,0,1.29.46h0a29,29,0,0,0,5.767.624h0c.162.007.329.007.494.007h0c6.547-.061,9.271-3.727,9.336-9.229h0a21.377,21.377,0,0,0-1.266-6.858h0c-3.071-9.011-13.175-16.538-16.5-23.1h0a20.382,20.382,0,0,1-2.088-9.059h0c.014-3.382.8-6.218,2.05-7.68h0l0,0a.574.574,0,0,1,.812-.055h0a.578.578,0,0,1,.055.815h0c-.942,1.043-1.777,3.737-1.765,6.917h0a19.238,19.238,0,0,0,1.967,8.542h0c3.029,6.147,13.274,13.773,16.56,23.239h0a22.579,22.579,0,0,1,1.327,7.232h0a10.606,10.606,0,0,1-2.557,7.442h0c-1.751,1.871-4.405,2.942-7.905,2.942h-.028Z" transform="translate(-330.104 -120.261)"/><g transform="translate(31.072 14.439)"><path d="M378.379,202.212A2.747,2.747,0,0,1,375.8,205.1H362.432a2.749,2.749,0,0,1-2.585-2.886V176.247a2.747,2.747,0,0,1,2.585-2.881H375.8a2.744,2.744,0,0,1,2.582,2.881Z" transform="translate(-358.49 -129.265)"/><path class="a" d="M436.618,202.212a2.748,2.748,0,0,1-2.586,2.886H420.673a2.748,2.748,0,0,1-2.585-2.886V176.247a2.745,2.745,0,0,1,2.585-2.881h13.359a2.745,2.745,0,0,1,2.586,2.881Z" transform="translate(-340.007 -129.265)"/><path class="j" d="M366.511,164.068l76.157,1.181-9.2-21.153-29.455-2.723-28.448,3.2Z" transform="translate(-356.375 -139.418)"/><g transform="translate(49.059 1.795)"><path class="k" d="M425.656,143.973,396.2,141.251l-.14,3.523v23.25l38.792-2.9Z" transform="translate(-396.058 -141.251)"/></g><path class="l" d="M448.755,162.844c-2.155-5.845-9.463-18.758-12.5-20.041-6.531-2.761-22.952-2.689-27.544-2.914h-1.8c-4.592.225-21.294.153-27.824,2.914-3.031,1.283-10.344,14.2-12.5,20.041-2.82.881-8.514,7.2-7.334,18.264.715,6.684,3.418,22.915,3.418,22.915h86.882s5.138-15.384,5.138-22.915C454.692,169.564,451.578,163.725,448.755,162.844Zm-77.214-1.37c2.1-5.75,8.174-14.175,10.477-15.148,5.86-2.482,20.865-2.2,24.989-2.4h1.618c4.119.2,18.839-.082,24.695,2.4,2.3.974,8.381,9.4,10.478,15.148C434.437,161.7,380.29,161.437,371.541,161.474Z" transform="translate(-358.729 -139.889)"/><path class="m" d="M440.872,204.023s2.812-14.949,3.582-22.915c1.089-11.3-3.91-16.6-7.332-18.264-2.153-5.845-9.46-18.758-12.5-20.041-6.527-2.761-22.943-2.689-27.539-2.914h-1v4.035h.905c4.126.2,18.839-.08,24.7,2.4,2.3.974,8.365,9.422,10.468,15.178-9.949-.037-22.94-.1-36.074.2v42.32h44.786Z" transform="translate(-346.99 -139.889)"/><path class="n" d="M380.824,170.46c-1.5,3.176-1.5,4.952.893,4.952h39.216c2.828-.137,2.137-2.2,1.064-4.883l-1.043-2.606c-1.067-2.681-3.035-4.877-5.434-4.877H387.056c-2.4,0-4.31,2.225-5.321,4.951Z" transform="translate(-352.162 -132.54)"/><g transform="translate(2.071 30.768)"><path class="o" d="M383.84,168.829c.685,2.267-.563,4.3-2.859,4.3H363.514c-2.295,0-3.6-2.033-2.965-4.3l.673-2.436a4.441,4.441,0,0,1,4.106-3.147h13.594a4.587,4.587,0,0,1,4.187,3.147Z" transform="translate(-360.389 -163.245)"/><g transform="translate(1.382 5.055)"><path class="p" d="M364.2,170.759h15.421c2.03,0,3.135-1.39,2.531-2.939l-.287-.738H361.842l-.263.738C361.022,169.369,362.169,170.759,364.2,170.759Z" transform="translate(-361.438 -167.082)"/></g><g transform="translate(2.155 0.705)"><path class="b" d="M365.984,163.78a3.888,3.888,0,0,0-3.628,2.528l-.331,1.091h9.223l-.586-3.619Z" transform="translate(-362.025 -163.78)"/><path class="q" d="M378.915,167.4l-.361-1.091a4.022,4.022,0,0,0-3.7-2.528h-5.143c.059,1.064.342,2.782.486,3.619Z" transform="translate(-359.585 -163.78)"/></g></g><g transform="translate(72.284 30.768)"><path class="o" d="M437.139,168.829c.685,2.267-.565,4.3-2.86,4.3H416.81c-2.3,0-3.592-2.033-2.964-4.3l.67-2.436a4.447,4.447,0,0,1,4.109-3.147h13.592a4.589,4.589,0,0,1,4.189,3.147Z" transform="translate(-413.688 -163.245)"/><g transform="translate(1.382 5.055)"><path class="p" d="M417.5,170.759h15.422c2.029,0,3.133-1.39,2.529-2.939l-.29-.738h-20.02l-.26.738C414.319,169.369,415.467,170.759,417.5,170.759Z" transform="translate(-414.737 -167.082)"/></g><g transform="translate(2.154 0.705)"><path class="b" d="M419.282,163.78a3.888,3.888,0,0,0-3.627,2.528l-.332,1.091h9.223l-.581-3.619Z" transform="translate(-415.323 -163.78)"/><path class="r" d="M432.212,167.4l-.36-1.091a4.026,4.026,0,0,0-3.7-2.528h-5.144c.057,1.064.34,2.782.485,3.619Z" transform="translate(-412.883 -163.78)"/></g></g><path class="s" d="M454.7,183.287l-12.1,8.284H362.329l-2.15-11.49Z" transform="translate(-358.385 -127.134)"/><path class="t" d="M456.745,184.435a1.517,1.517,0,0,1-1.421,1.6H360.241a1.518,1.518,0,0,1-1.424-1.6V177.22a1.518,1.518,0,0,1,1.424-1.6h95.082a1.516,1.516,0,0,1,1.421,1.6Z" transform="translate(-358.817 -128.55)"/><path class="u" d="M455.172,182.664c0,.573-.616,1.034-1.385,1.034H361.166c-.769,0-1.386-.461-1.386-1.034v-4.653c0-.572.616-1.034,1.386-1.034h92.621c.768,0,1.385.462,1.385,1.034Z" transform="translate(-358.511 -128.119)"/></g><g transform="translate(24.237 15.641)"><path class="p" d="M363.605,159.2l12.021-14.213,0,0,.387.329-11.585,13.7,27.075,12.167-.212.466L363.605,159.2Z" transform="translate(-349.81 -138.883)"/><path class="p" d="M353.133,173.387l13.783-12.831-2.22-20.125.506-.058,2.25,20.382-13.97,13.007-.349-.375ZM364.7,140.428v0h0v0Z" transform="translate(-353.133 -140.348)"/><path class="p" d="M353.811,174.682c.877-2.392,14.275-18.9,13.718-18.9-1.772,0-.958-.559-.958-.559Z" transform="translate(-352.918 -135.635)"/><path class="p" d="M363.074,160.768l8.824-20.414-7.868,20.867Z" transform="translate(-349.978 -140.354)"/><path class="p" d="M363.907,157.192a.19.19,0,0,1,.119-.242h0l13.716-4.7a.19.19,0,0,1,.244.119h0a.191.191,0,0,1-.12.242h0l-13.715,4.7a.22.22,0,0,1-.065.011h0a.189.189,0,0,1-.179-.129Z" transform="translate(-349.717 -136.584)"/></g><g transform="translate(26.718 25.137)"><path class="p" d="M356.648,173.18a.293.293,0,0,1-.117-.4h0l9.5-17.4a.29.29,0,0,1,.2-.146h0a.294.294,0,0,1,.24.066h0L384.7,171.138h0a.288.288,0,0,1,.026.408h0a.287.287,0,0,1-.407.028h0l-17.956-15.595-9.324,17.085a.292.292,0,0,1-.256.152h0a.292.292,0,0,1-.138-.036Z" transform="translate(-354.554 -145.204)"/><path class="p" d="M386.641,158.963l-19.635-.414-.186-.072-11.6-10.352a.286.286,0,0,1-.025-.408h0a.289.289,0,0,1,.406-.025h0l11.518,10.281,19.532.414a.287.287,0,0,1,.281.3h0a.289.289,0,0,1-.288.282h-.005Z" transform="translate(-354.989 -147.621)"/><path class="p" d="M355.022,151.169c2.153.834,10.955,7.89,10.963,7.385.028-1.6,1.394-1.132,1.394-1.132Z" transform="translate(-355.022 -146.495)"/><path class="p" d="M363.587,155.4l24.34,8.255-24.765-7.4Z" transform="translate(-352.439 -145.153)"/><path class="p" d="M365.685,168.19l-2.33-12.72a.172.172,0,0,1,.138-.2h0a.175.175,0,0,1,.2.14h0l2.332,12.72a.175.175,0,0,1-.138.2h0l-.032,0h0a.174.174,0,0,1-.173-.141Z" transform="translate(-352.379 -145.195)"/></g><g transform="translate(24.613 20.31)"><path class="p" d="M363.986,159.126a.279.279,0,0,1-.125-.233h0l-.159-14.674a.286.286,0,0,1,.285-.29h0a.288.288,0,0,1,.292.285h0l.154,14.262,21.732-8.044a.289.289,0,0,1,.371.171h0a.287.287,0,0,1-.171.369h0l-22.116,8.189a.318.318,0,0,1-.1.017h0a.287.287,0,0,1-.165-.051Z" transform="translate(-350.145 -143.929)"/><path class="p" d="M364.73,172.7a.291.291,0,0,1-.249-.328h0l2.142-15.92-12.853,3.216h0a.29.29,0,0,1-.353-.209h0a.289.289,0,0,1,.212-.352h0l13.268-3.318a.284.284,0,0,1,.262.066h0a.287.287,0,0,1,.094.253h0l-2.2,16.343a.292.292,0,0,1-.291.253h0l-.036,0Z" transform="translate(-353.411 -140.17)"/><path class="p" d="M372.852,173.809c-.69-2.2-7.614-18.185-8.015-17.875-1.271.977-1.753-.385-1.753-.385Z" transform="translate(-350.341 -140.241)"/><path class="p" d="M365.42,159.6,358.3,144.649l8.058,14.743Z" transform="translate(-351.859 -143.7)"/><path class="p" d="M363.612,158.319a.169.169,0,0,1,.022-.242h0l10.864-9.019a.177.177,0,0,1,.245.022h0a.172.172,0,0,1-.022.245h0l-10.863,9.017a.185.185,0,0,1-.112.04h0a.176.176,0,0,1-.134-.063Z" transform="translate(-350.186 -142.314)"/></g></g><path d="M346.514,131.483c-1.3-.145-7.147.433-7.147.433l-.36,2.166,7.074-.867Z" transform="translate(1.417 0.998)"/></g></svg>