<svg xmlns="http://www.w3.org/2000/svg" xmlns:xlink="http://www.w3.org/1999/xlink" width="80" height="100" viewBox="0 0 138 134"><defs><style>.a{fill:none;}.b{fill:#001d2b;}.c{fill:#00192e;}.d{fill:#191919;}.e{fill:#6e4a40;}.f{fill:#00253c;}.g{fill:#f7a18d;}.an,.h{fill:#f0431c;}.i{fill:#f4c5b7;}.j{fill:#952a12;}.k{fill:#313d4d;}.l{fill:#002b33;}.m{fill:#563a32;}.ab,.af,.n{fill:#f5dde2;}.aa,.ab,.ac,.ad,.an,.ap,.ar,.av,.ba,.o,.q,.r,.z{mix-blend-mode:multiply;}.aa,.ab,.ac,.ad,.ae,.af,.ai,.aj,.ak,.al,.am,.an,.ao,.ap,.aq,.ar,.as,.at,.av,.ba,.o,.q,.r,.t,.u,.v,.w,.x,.y,.z{isolation:isolate;}.o{fill:url(#a);}.p{fill:#7e7d70;}.q{fill:url(#b);}.r{fill:url(#c);}.s{fill:#435248;}.ae,.af,.ai,.aj,.ak,.al,.am,.ao,.aq,.as,.at,.t,.u,.v,.w,.x,.y{mix-blend-mode:soft-light;}.t{fill:url(#d);}.u{fill:url(#e);}.v{fill:url(#f);}.w{fill:url(#g);}.x{fill:url(#h);}.ac,.y{fill:url(#i);}.z{fill:url(#j);}.aa{fill:url(#k);}.ad{fill:url(#m);}.ae{fill:url(#n);}.ag{fill:#b89c8b;}.ah{fill:#f8d4c9;}.ai{fill:url(#o);}.aj{fill:url(#p);}.ak{fill:url(#q);}.al{fill:url(#r);}.am{fill:url(#s);}.ao{fill:#fff;}.ap{fill:url(#u);}.aq{fill:url(#v);}.ar{fill:url(#w);}.as{fill:url(#x);}.at{fill:url(#y);}.au{fill:#f8e7eb;}.av{fill:url(#z);}.aw{fill:url(#aa);}.ax{fill:url(#ac);}.ay{fill:#bb7e6c;}.az{fill:#e59a84;}.ba{fill:#f3c6b8;}.bb{fill:#efad98;}.bc{fill:#f0b5a2;}.bd{fill:#f9ded6;}.be{fill:#f7d8cf;}.bf{fill:#a07778;}.bg{fill:#e3ab93;}.bh{clip-path:url(#ae);}.bi{opacity:0.3;}.bj{fill:#253239;}</style><linearGradient id="a" x1="-13.708" y1="190.94" x2="-13.35" y2="190.94" gradientUnits="objectBoundingBox"><stop offset="0" stop-color="#fcf3f5"/><stop offset="0.269" stop-color="#fdf7f8"/><stop offset="1" stop-color="#fff"/></linearGradient><linearGradient id="b" x1="0.5" y1="0.987" x2="0.5" y2="0.016" gradientUnits="objectBoundingBox"><stop offset="0" stop-color="#f3cec2"/><stop offset="0.062" stop-color="#f4d5cb"/><stop offset="0.255" stop-color="#f9e7e1"/><stop offset="0.463" stop-color="#fcf4f2"/><stop offset="0.695" stop-color="#fefcfb"/><stop offset="1" stop-color="#fff"/></linearGradient><linearGradient id="c" y1="0.5" x2="1" y2="0.5" gradientUnits="objectBoundingBox"><stop offset="0" stop-color="#f3c5b6"/><stop offset="0.314" stop-color="#f3c7b8"/><stop offset="0.523" stop-color="#f4cec1"/><stop offset="0.701" stop-color="#f7dad0"/><stop offset="0.861" stop-color="#faeae5"/><stop offset="1" stop-color="#fff"/></linearGradient><linearGradient id="d" x1="0.5" y1="0.092" x2="0.5" y2="0.961" gradientUnits="objectBoundingBox"><stop offset="0" stop-color="#f3cec2"/><stop offset="1" stop-color="#fff"/></linearGradient><linearGradient id="e" x1="0.5" y1="0.069" x2="0.5" y2="1.01" xlink:href="#d"/><linearGradient id="f" x1="0.061" y1="0.5" x2="0.961" y2="0.5" gradientUnits="objectBoundingBox"><stop offset="0" stop-color="#ca8674"/><stop offset="0.231" stop-color="#d59a8a"/><stop offset="0.742" stop-color="#ecc4b7"/><stop offset="1" stop-color="#f6d4c9"/></linearGradient><linearGradient id="g" x1="0.061" y1="0.5" x2="0.961" y2="0.5" xlink:href="#f"/><linearGradient id="h" x1="0.5" y1="0.984" x2="0.5" y2="0.068" gradientUnits="objectBoundingBox"><stop offset="0" stop-color="#fbefff"/><stop offset="0.096" stop-color="#f9eee7"/><stop offset="1" stop-color="#fff"/></linearGradient><linearGradient id="i" x1="0.5" y1="0.984" x2="0.5" y2="0.068" xlink:href="#h"/><linearGradient id="j" x1="0.5" y1="0.989" x2="0.5" y2="0.08" xlink:href="#h"/><linearGradient id="k" x1="-0.068" y1="1.016" x2="0.735" y2="0.225" xlink:href="#a"/><linearGradient id="m" x1="0.397" y1="0.929" x2="0.708" y2="0.117" xlink:href="#a"/><linearGradient id="n" x1="0.5" y1="1.009" x2="0.5" y2="0.059" gradientUnits="objectBoundingBox"><stop offset="0" stop-color="#fff"/><stop offset="0.14" stop-color="#faebe6"/><stop offset="0.399" stop-color="#f4ccc0"/><stop offset="0.637" stop-color="#efb5a4"/><stop offset="0.845" stop-color="#eda793"/><stop offset="1" stop-color="#eca38d"/></linearGradient><linearGradient id="o" x1="0.416" y1="0.748" x2="0.598" y2="0.211" xlink:href="#d"/><linearGradient id="p" x1="-0.15" y1="0.886" x2="1.024" y2="0.189" xlink:href="#d"/><linearGradient id="q" y1="0.5" x2="1" y2="0.5" gradientUnits="objectBoundingBox"><stop offset="0" stop-color="#1d1d1b"/><stop offset="1" stop-color="#fff"/></linearGradient><linearGradient id="r" y1="0.5" x2="1" y2="0.5" gradientUnits="objectBoundingBox"><stop offset="0" stop-color="#eca38d"/><stop offset="1" stop-color="#fff"/></linearGradient><linearGradient id="s" y1="0.5" x2="1" y2="0.5" gradientUnits="objectBoundingBox"><stop offset="0" stop-color="#fff"/><stop offset="1" stop-color="#eca38d"/></linearGradient><linearGradient id="u" x1="0.5" y1="0.058" x2="0.5" y2="2.605" xlink:href="#b"/><linearGradient id="v" x1="0.5" y1="0.058" x2="0.5" y2="1.035" gradientUnits="objectBoundingBox"><stop offset="0" stop-color="#fff"/><stop offset="0.305" stop-color="#fefcfb"/><stop offset="0.537" stop-color="#fcf4f2"/><stop offset="0.745" stop-color="#f9e7e1"/><stop offset="0.938" stop-color="#f4d5cb"/><stop offset="1" stop-color="#f3cec2"/></linearGradient><linearGradient id="w" x1="0.5" y1="0.058" x2="0.5" y2="2.605" xlink:href="#b"/><linearGradient id="x" x1="0.5" y1="0.058" x2="0.5" y2="1.035" xlink:href="#v"/><linearGradient id="y" x1="0.5" y1="1.052" x2="0.5" y2="-1.068" xlink:href="#d"/><linearGradient id="z" x1="0.5" y1="0.933" x2="0.5" y2="0.241" gradientUnits="objectBoundingBox"><stop offset="0" stop-color="#f0c5b6"/><stop offset="0.245" stop-color="#f0c7b9"/><stop offset="0.474" stop-color="#f3d0c4"/><stop offset="0.696" stop-color="#f6dfd7"/><stop offset="0.913" stop-color="#fcf4f2"/><stop offset="1" stop-color="#fff"/></linearGradient><linearGradient id="aa" x1="0.5" y1="0.933" x2="0.5" y2="0.241" gradientUnits="objectBoundingBox"><stop offset="0" stop-color="#f0c5b6"/><stop offset="0.462" stop-color="#f1c7b9"/><stop offset="0.893" stop-color="#f4d0c4"/><stop offset="1" stop-color="#f6d4c9"/></linearGradient><linearGradient id="ac" x1="0.5" y1="0.933" x2="0.5" y2="0.241" xlink:href="#aa"/><clipPath id="ae"><path class="a" d="M659,49.649l.076.064,13.056-9.135c-.164-.148-.361-.37-.3-.582.077-.272.863-.855.79-.959a2.362,2.362,0,0,0-1.384.534c-.377.441-.3.779-.433,1.037a2.556,2.556,0,0,1-.508.445L660.2,48.105a3.28,3.28,0,0,1-.722.423c-.367.068-.878-.179-1.422.289-.4.348-.595,1.431-.458,1.481.07.026.645-.64.781-.734A.577.577,0,0,1,659,49.649Z" transform="translate(-657.555 -39.018)"/></clipPath></defs><g transform="translate(-651.093 29.969)"><g transform="translate(714.356 -29.969)"><rect class="b" width="9.157" height="120.427" transform="translate(12.845)"/><path class="c" d="M746.567,82.391H737.41V-29.849h2.3V28.1l6.861,10.435-6.861,25.9V79.551Z" transform="translate(-724.565 29.955)"/><path class="d" d="M755.83,47.168H722.936V43.983h36.079A3.185,3.185,0,0,1,755.83,47.168Z" transform="translate(-722.936 21.348)"/><rect class="e" width="31.147" height="8.863" transform="translate(1.849 112.296)"/></g><g transform="translate(763.821 31.351)"><path class="f" d="M796.563,48.793c0,2.15-1.184,3.844-3.034,3.844s-3.143-1.744-3.143-3.894.732-3.893,3.143-3.893C795.979,44.85,796.563,46.643,796.563,48.793Z" transform="translate(-780.295 -40.309)"/><path class="g" d="M797.933,67.726c.878-2.683,3.146-7.282,1.823-8.085-1.724-1.046-6.688-1.7-6.688-1.7v.085s-5.008.412-6.736,1.454c-1.325.8.972,5.626,1.841,8.313a36.218,36.218,0,0,1,.1,6.094,47.092,47.092,0,0,0-.453,4.738c.026.358,4.078,2.583,5.215,2.642v-.085c1.137-.055,5.2-2.268,5.222-2.627a46.82,46.82,0,0,0-.437-4.739A36.3,36.3,0,0,1,797.933,67.726Z" transform="translate(-779.794 -41.783)"/><path class="g" d="M799.637,62.949c-.954-.347-1.331-2.4-.456-4.072a16.5,16.5,0,0,1,1.683-2.519c.246-.444,1.628-3.482,2.072-4.143a2.31,2.31,0,0,1,2.456-.848c.6.312,1.262.576.872,1.894S801.412,63.595,799.637,62.949Z" transform="translate(-781.23 -41.029)"/><path class="g" d="M795.6,56.668c-.113-.512-.393-3.041-.393-3.041l-1.675,0v.085l-1.675,0s-.288,2.528-.4,3.039-1.494,1.281-1.494,1.281l3.567.005v-.085l3.567.005S795.71,57.179,795.6,56.668Z" transform="translate(-780.247 -41.297)"/><path class="h" d="M795.484,55.954c-.1-.775-.231-1.877-.269-2.22l-.108-.106-1.58,0v.085l-1.675,0s-.288,2.528-.4,3.039-1.494,1.281-1.494,1.281h.169c1.592-.422,3.175-.842,3.389-.9a14.544,14.544,0,0,0,1.973-1.171Z" transform="translate(-780.247 -41.297)"/><path class="g" d="M790.58,78.079c-2.046-.01-2.843,1.415-2.793,5.791a49.965,49.965,0,0,0,.979,9.8c.283.682,3.182.7,3.466.3s1.008-9.473,1.011-10.893S792.808,78.089,790.58,78.079Z" transform="translate(-780.003 -44.05)"/><rect class="g" width="3.494" height="4.773" rx="1.665" transform="translate(8.809 48.304) rotate(1.46)"/><path class="g" d="M790.483,96.58c-.625,0-2.159.2-2.08,4.283a43.723,43.723,0,0,0,1.8,9.669l1.478,0s.732-7.55.738-9C792.434,98.239,792.457,96.584,790.483,96.58Z" transform="translate(-780.072 -46.132)"/><path class="g" d="M796.738,78.117c2.034-.22,2.974,1.116,3.375,5.473a50.013,50.013,0,0,1,.036,9.851c-.211.708-3.093,1.025-3.417.659s-1.978-9.319-2.126-10.732S794.523,78.357,796.738,78.117Z" transform="translate(-780.765 -44.051)"/><path class="g" d="M1.671,0h.165A1.659,1.659,0,0,1,3.494,1.659V3.1A1.671,1.671,0,0,1,1.824,4.773H1.666A1.666,1.666,0,0,1,0,3.106V1.671A1.671,1.671,0,0,1,1.671,0Z" transform="translate(19.815 52.816) rotate(172.621)"/><path class="g" d="M798.9,96.5c.621-.066,2.169-.02,2.51,4.046a43.689,43.689,0,0,1-.8,9.8l-1.47.154s-1.505-7.435-1.66-8.875C797.128,98.353,796.935,96.708,798.9,96.5Z" transform="translate(-781.068 -46.122)"/><path class="g" d="M787.094,62.554c.794-.632.8-2.208-.287-3.757s-2-2.486-2.289-2.881-1.874-2.9-2.4-3.5-1.577-1.06-2.237-.6c-.552.387-1.175.736-.618,1.991S785.156,64.1,787.094,62.554Z" transform="translate(-779.019 -41.072)"/><path class="b" d="M788.325,77.087a53.9,53.9,0,0,0-.857,5.563c-.116,1.959.831,10.529.832,11.473s-.067,3.841-.011,6.682.781,8.434.781,8.434l3.637-.084s.023-12.011.027-13.9.472-11.83.472-11.83l.009-6.179Z" transform="translate(-779.966 -43.938)"/><path class="i" d="M800.565,58.106c-.225-.374-1.614-.648-2.787.07-.877.535-1.989-.275-1.989-.275l-.618.328a4.414,4.414,0,0,1-4.388-.007l-.53-.3a2.908,2.908,0,0,1-1.965-.018c-1.158-.5-2.923-.428-3.115-.035s2.463,9.808,2.685,10.459-.358,5.2.208,6.562l4.879.159h.011l4.879-.145c.449-1.56,0-6,.223-6.647S800.94,58.731,800.565,58.106Z" transform="translate(-779.707 -41.739)"/><path class="b" d="M798.781,76.973a53.778,53.778,0,0,1,1.425,5.445c.318,1.938.258,10.56.353,11.5s.461,3.814.7,6.646.081,8.471.081,8.471l-3.626.29s-1.25-11.947-1.446-13.824-2.348-11.777-2.348-11.777l.024-6.489Z" transform="translate(-780.693 -43.925)"/><path class="d" d="M789.555,113.3s-1.243,1.452-1.178,1.836a1.757,1.757,0,0,0,1.513,1.068,7.139,7.139,0,0,0,2.089-.635c.427-.043.425-2.335.425-2.335Z" transform="translate(-780.069 -48.007)"/><path class="d" d="M801.347,113.149s1.386,1.316,1.36,1.7a1.758,1.758,0,0,1-1.4,1.218,7.128,7.128,0,0,1-2.143-.416c-.429,0-.663-2.279-.663-2.279Z" transform="translate(-781.209 -47.997)"/><path class="f" d="M798.606,84.319c.2,1.284.437,9.914.471,10.4s1.262,13.79,1.319,14.4l1.194-.095s.155-5.64-.081-8.471-.6-5.707-.7-6.646-.035-9.559-.353-11.5a53.778,53.778,0,0,0-1.425-5.445l-2.883.2S798.4,83.035,798.606,84.319Z" transform="translate(-780.944 -43.925)"/><path class="f" d="M792.951,81.448a1.392,1.392,0,0,0-2.6.574,12.407,12.407,0,0,0-.028,3.013c.307,1.623.748,9.556.689,9.764S791,109.574,791,109.574l.064.038,1.959-.045s.023-12.011.027-13.9.472-11.83.472-11.83V83.3l.037-.778Z" transform="translate(-780.28 -44.349)"/><path class="g" d="M805.832,52.768c.707-.425,1.068-1.147-.02-3.189s-4.22-6.451-4.22-6.451l-1.145.688s1.209,4.554,1.749,5.689S803.979,53.883,805.832,52.768Z" transform="translate(-781.428 -40.115)"/><path class="g" d="M796.6,51.3a3.3,3.3,0,0,1-2.954,3.173,3.354,3.354,0,0,1-2.953-3.182c0-1.716.593-3.2,2.906-3.2C796.146,48.1,796.607,49.584,796.6,51.3Z" transform="translate(-780.331 -40.675)"/><path class="j" d="M790.622,51.442a4.764,4.764,0,0,1-.667-1.805,4.7,4.7,0,0,1,.809-1A8.538,8.538,0,0,1,792.755,48a10.526,10.526,0,0,1,1.359,0,3.4,3.4,0,0,1,1.556.469c.2.228.684.492.844.674s.434.65.394.719-.256.638-.276.683-.122.74-.122.74-.313-1.674-.341-1.786c-.35-1.43-3.552-2.208-5.1-.26A13.91,13.91,0,0,0,790.622,51.442Z" transform="translate(-780.246 -40.661)"/><g transform="translate(7.096 36.414)"><path class="k" d="M791.349,86.819h-3.941l-.11-.188-.287-.128.388-5.635,3.652-.089Z" transform="translate(-787.011 -80.767)"/><path class="f" d="M790.953,86.5h-3.942l.213-5.736h3.729Z" transform="translate(-787.011 -80.766)"/><path class="l" d="M787.444,86.819l-.11-.188h3.787l-.033-5.852.3,6.04Z" transform="translate(-787.048 -80.767)"/></g><g transform="translate(15.661 36.069)"><path class="k" d="M796.955,86.817l3.923-.384.091-.2.273-.155-.936-5.571-3.644.267Z" transform="translate(-796.663 -80.392)"/><path class="f" d="M797.332,86.449l3.923-.384-.77-5.688-3.711.363Z" transform="translate(-796.675 -80.377)"/><path class="l" d="M800.878,86.467l.091-.2-3.769.369-.537-5.828.292,6.04Z" transform="translate(-796.663 -80.426)"/></g><path class="g" d="M779.284,53.15c-.468-.681-.5-1.486,1.341-2.895s6.515-4.119,6.515-4.119l.756,1.1s-2.988,3.642-3.951,4.451S780.508,54.933,779.284,53.15Z" transform="translate(-779.016 -40.454)"/><path class="f" d="M793.325,75.769l4.857-.158-.119-1.041-.863-10.6h-7.747l-.9,10.6-.119,1.041,4.857.158h.033Z" transform="translate(-780.076 -42.461)"/><path class="b" d="M790.828,63.968s.716,8.339,1.589,9.926,5.718,1.325,5.718,1.325l.044.551a23.061,23.061,0,0,1-4.592.564,33.846,33.846,0,0,1-5.176-.564l1.04-11.8Z" transform="translate(-780.073 -42.461)"/><path class="l" d="M797.886,63.925l.947-5.568-1.319-.18-.827,5.748.529.887Z" transform="translate(-781.005 -41.809)"/><path class="l" d="M789.79,63.913l-.732-5.842h1.365l.565,5.842-.529.887Z" transform="translate(-780.146 -41.797)"/><path class="l" d="M788.32,77.54l-.02-.921a37.1,37.1,0,0,0,5.013.415,36.017,36.017,0,0,0,4.967-.415l.055.921a37.066,37.066,0,0,1-5.049.555A35.2,35.2,0,0,1,788.32,77.54Z" transform="translate(-780.061 -43.885)"/><path class="m" d="M790.741,64.5a.3.3,0,1,1-.3-.3A.3.3,0,0,1,790.741,64.5Z" transform="translate(-780.268 -42.487)"/><circle class="m" cx="0.298" cy="0.298" r="0.298" transform="translate(16.053 21.713)"/><path class="i" d="M785.944,63.241a13.355,13.355,0,0,1-2.52-2.5,49.357,49.357,0,0,1-3.851-5.94,5.618,5.618,0,0,1,1.625-1.4,4.411,4.411,0,0,1,1.683-.723l2.8,4.278S787.423,62.691,785.944,63.241Z" transform="translate(-779.078 -41.191)"/><path class="i" d="M800.629,63.291a8.828,8.828,0,0,0,2.115-2.7c1.3-2.165,3.566-6.358,3.566-6.358a5.536,5.536,0,0,0-1.821-1.123,5.063,5.063,0,0,0-1.81-.473l-2.459,4.643S799.079,62.985,800.629,63.291Z" transform="translate(-781.357 -41.186)"/><g transform="translate(16.438)"><path class="g" d="M800.349,43.929s-.621-.137-.713-.181a5.048,5.048,0,0,0-1.058-.544c-.265-.028-.431.033-.481.006s-.236-.508.222-.558.925.129,1.046.05-.229-.993-.377-1.145-1.258-1.01-1.309-1.057-.165-.2-.137-.272A.788.788,0,0,1,798,40.1c.083.02.062-.163.14-.186s.361-.065.361-.065a1.29,1.29,0,0,1,.447-.109,5.374,5.374,0,0,1,.788.214,8.085,8.085,0,0,1,1.234,1.032c.148.256.6,2.164.6,2.164Z" transform="translate(-797.538 -39.733)"/></g><g transform="translate(7.346 2.883)"><path class="g" d="M788.524,47.177s.621-.136.712-.18a4.952,4.952,0,0,1,1.059-.544c.265-.028.431.033.481.006s.236-.508-.223-.558-.924.128-1.045.049.229-.993.376-1.144,1.259-1.011,1.309-1.057.165-.2.137-.272a.8.8,0,0,0-.462-.131c-.082.02-.061-.163-.139-.186s-.362-.065-.362-.065a1.283,1.283,0,0,0-.446-.109,5.278,5.278,0,0,0-.789.214,8.173,8.173,0,0,0-1.234,1.032c-.148.256-.6,2.164-.6,2.164Z" transform="translate(-787.293 -42.982)"/></g></g><g transform="translate(651.093 -9.09)"><g transform="translate(12.461 4.114)"><path class="n" d="M674.136-1.64s-9.182-.068-9,.39A10.778,10.778,0,0,0,669.113,1.5a7.36,7.36,0,0,0,2.156,0Z" transform="translate(-665.135 1.644)"/><path class="o" d="M674.136-1.64s-9.182-.068-9,.39A10.778,10.778,0,0,0,669.113,1.5a7.36,7.36,0,0,0,2.156,0Z" transform="translate(-665.135 1.644)"/></g><path class="p" d="M781.048,17.35c-1.147-.4-14.323-3.717-15.272-3.925a8.332,8.332,0,0,1-4.949-3.236s-3.392-.817-4.137-1.161C750.308,6.083,735.6-2.853,725.9-5.336c-12.874-3.3-56.049,3.1-56.049,3.1L659.865,8.759,652.97,22.952l-1.78,3.42a10.213,10.213,0,0,0,2.854,8.55c.929.934,3.3,1.623,6.336,2.131,2.048,0,21.657,1.414,24.3,1.414l.465,0,64.479,0,.965.013c2.088,0,23.121-.124,24.971-.124,7.048-.212,12.933-.642,13.534-1.48V26.739C789.093,25.639,784.552,18.576,781.048,17.35Z" transform="translate(-651.093 6.28)"/><path class="n" d="M781.048,17.35c-1.147-.4-14.323-3.717-15.272-3.925a8.332,8.332,0,0,1-4.949-3.236s-3.392-.817-4.137-1.161C750.308,6.083,735.6-2.853,725.9-5.336c-12.874-3.3-56.049,3.1-56.049,3.1L659.865,8.759,652.97,22.952l-1.78,3.42a10.213,10.213,0,0,0,2.854,8.55c.929.934,3.3,1.623,6.336,2.131a12.367,12.367,0,0,1-.262-2.528,12.206,12.206,0,1,1,24.411,0c0,.782.135,2.5.149,3.942l.465,0,64.479,0,.965.013c-.051-1.647-.053-3.271-.053-3.956A13.027,13.027,0,0,1,763.2,21.808a12.241,12.241,0,0,1,12.206,12.276c0,.842.156,2.771.15,4.273,7.048-.212,12.933-.642,13.534-1.48V26.739C789.093,25.639,784.552,18.576,781.048,17.35Z" transform="translate(-651.093 6.28)"/><path class="q" d="M781.048,17.35c-1.147-.4-14.323-3.717-15.272-3.925a8.332,8.332,0,0,1-4.949-3.236s-3.392-.817-4.137-1.161C750.308,6.083,735.6-2.853,725.9-5.336c-12.874-3.3-56.049,3.1-56.049,3.1L659.865,8.759,652.97,22.952l-1.78,3.42a10.213,10.213,0,0,0,2.854,8.55c.929.934,3.3,1.623,6.336,2.131a12.367,12.367,0,0,1-.262-2.528,12.206,12.206,0,1,1,24.411,0c0,.782.135,2.5.149,3.942l.465,0,64.479,0,.965.013c-.051-1.647-.053-3.271-.053-3.956A13.027,13.027,0,0,1,763.2,21.808a12.241,12.241,0,0,1,12.206,12.276c0,.842.156,2.771.15,4.273,7.048-.212,12.933-.642,13.534-1.48V26.739C789.093,25.639,784.552,18.576,781.048,17.35Z" transform="translate(-651.093 6.28)"/><path class="r" d="M806.7,35.83h-3.74s-2.519,3.023-2.473,3.528,6.214.137,6.214.137Z" transform="translate(-668.705 1.54)"/><path class="n" d="M775.267,12.268s22.4,6.019,24.184,7.347,2.217,2.965,2.024,2.962-20.858-5.93-23.1-7.138C775.627,13.961,775.267,12.268,775.267,12.268Z" transform="translate(-665.866 4.192)"/><g transform="translate(24.02 1.468)"><path class="s" d="M764.423,12.511S749.242,2.134,737.947-2.317c-6.761-2.664-18.047-2.29-18.047-2.29l1.74,15.549Z" transform="translate(-683.195 4.625)"/><path class="s" d="M715.877-4.6,690.228-2.79,684.161,8.63l33.457,2.314Z" transform="translate(-679.172 4.623)"/><path class="s" d="M689.595-2.559S679.244-1.3,678.692-.344c-.959,1.667,2.827,9.24,5.047,9.24Z" transform="translate(-678.539 4.393)"/><path class="p" d="M688.464-1.281S680.354.036,680.036.734s2.748,6.6,3.908,6.6Z" transform="translate(-678.705 4.249)"/><g transform="translate(38.554 1.12)"><path class="p" d="M759.342,11.016S746.6,2.308,737.126-1.427c-5.673-2.235-15.143-1.921-15.143-1.921l1.461,13.368Z" transform="translate(-721.983 3.363)"/><path class="t" d="M759.342,11.016S746.6,2.308,737.126-1.427c-5.673-2.235-15.143-1.921-15.143-1.921L742.4,10.546Z" transform="translate(-721.983 3.363)"/></g><g transform="translate(7.227 1.343)"><path class="p" d="M714.935-3.112l-23.469,1.46-4.783,9.366,29.478,1.914Z" transform="translate(-686.683 3.112)"/><path class="u" d="M715.541-3.112l-23.469,1.46,20.349,11,4.346.282Z" transform="translate(-687.289 3.112)"/></g></g><path class="v" d="M791.651,41.482c0-.012,1.861-19.02-15.407-19.02-17.357,0-15.687,18.949-15.661,19.241h1.8l1.1-.009c-.051-1.639-.052-3.252-.052-3.934a13.065,13.065,0,0,1,12.742-12.717,12.276,12.276,0,0,1,12.276,12.276c0,.827.15,2.7.15,4.186l3.043-.022Z" transform="translate(-664.207 3.045)"/><path class="w" d="M687.7,41.584c0-.012,2.816-20.154-14.452-20.154-15.74,0-15.715,17.662-15.688,17.954l3.6.789c-.014-.33-.253-1.349-.253-2.03,0-6.779,4.758-12.726,12.26-12.726a12.275,12.275,0,0,1,12.275,12.275c0,.827.156,2.4.156,3.895Z" transform="translate(-651.821 3.161)"/><path class="x" d="M806.082,30.451a5.429,5.429,0,0,0-.722-1.679l-10.4-2.075,2.757,2.789S806.082,30.932,806.082,30.451Z" transform="translate(-668.082 2.568)"/><path class="y" d="M752.243,18.956,670.9,11.566l11.681-1.257,33.2,2.314,42.451,1.57,14.441,2.748a88.035,88.035,0,0,0-13.727.489C757.237,17.659,752.243,18.956,752.243,18.956Z" transform="translate(-653.322 4.413)"/><g transform="translate(62.312 17.036)"><path class="z" d="M721.861,12.916l.108,25.755h33.378l3.267-19.421V14.265Z" transform="translate(-721.861 -12.916)"/><path class="aa" d="M721.861,12.916l.108,25.755h33.378l3.267-19.421V14.265Z" transform="translate(-721.861 -12.916)"/><path class="ab" d="M755.347,38.671H721.969l-.108-25.754.553.019.1,25.185h32.365l3.453-18.87-.907-4.971.541-.1.924,5.066-.008.047Z" transform="translate(-721.861 -12.917)"/></g><g transform="translate(24.461 14.722)"><path class="ac" d="M683.566,10.309l-4.689,10.133a12.307,12.307,0,0,1,9.665,7.571,23.638,23.638,0,0,1,1.726,10.365h26.863l-.108-25.755Z" transform="translate(-678.877 -10.309)"/><path class="ad" d="M683.566,10.309l-4.689,10.133a12.307,12.307,0,0,1,9.665,7.571,23.638,23.638,0,0,1,1.726,10.365h26.863l-.108-25.755Z" transform="translate(-678.877 -10.309)"/><path class="ab" d="M717.131,38.378H690.268a21.391,21.391,0,0,0-1.856-10.6,12.257,12.257,0,0,0-9.536-7.363l4.921-10.11.6.057-4.743,9.687a12.178,12.178,0,0,1,9.13,7.264,23.712,23.712,0,0,1,2.136,10.512h26.213Z" transform="translate(-678.877 -10.309)"/></g><path class="ae" d="M751.8,40.793H691.56a37.052,37.052,0,0,0-.161-4.514,15.347,15.347,0,0,0-1.045-4.514l62.041,5.5Z" transform="translate(-655.873 1.997)"/><path class="af" d="M664.951,12.132c.788,1.411-.034,6.236-4.953,9.717-4.047,2.863-8.8,6.6-8.8,6.6l1.79-3.42Z" transform="translate(-651.106 4.207)"/><g transform="translate(120.701 21.842)"><path class="p" d="M788,18.333c.046,1.007,4.947,7.328,6.459,7.512s10.118,1.985,10.118,1.985-.039-5.793-5.16-6.851S788,18.333,788,18.333Z" transform="translate(-788 -18.333)"/><path class="ag" d="M799.977,26.92l-4.607-1.527-2.329-2.931h6.936Z" transform="translate(-788.567 -18.798)"/><ellipse class="ah" cx="0.785" cy="2.229" rx="0.785" ry="2.229" transform="translate(10.625 3.664)"/><path class="ai" d="M799.417,20.979C794.3,19.922,788,18.333,788,18.333c.027.6,1.754,3.048,3.473,4.994,3.231.29,7.982.842,9.428,1.663a16.277,16.277,0,0,1,3.675,2.841S804.537,22.037,799.417,20.979Z" transform="translate(-788 -18.333)"/><ellipse class="aj" cx="0.785" cy="2.229" rx="0.785" ry="2.229" transform="translate(12.762 3.908)"/><path class="ak" d="M799.417,20.979C794.3,19.922,788,18.333,788,18.333c.027.6,1.754,3.048,3.473,4.994.328-2.306,8.162-1.066,9.608-.245,2.26,1.282,3.495,4.749,3.495,4.749S804.537,22.037,799.417,20.979Z" transform="translate(-788 -18.333)"/><path class="al" d="M790.839,20.042c.108.524,7.194,1.382,9.217,2.138s3.081,2.182,3.2,1.924-1.181-1.97-3.2-2.519S790.747,19.6,790.839,20.042Z" transform="translate(-788.319 -18.516)"/></g><g transform="translate(1.375 15.251)"><path class="h" d="M652.809,15.692c-.333,3.3-.164,9.154.482,9.319s11.822-10.34,11.822-13.017c0-.5-4.142-1.088-8.581-1.088C654.316,10.906,653.084,12.971,652.809,15.692Z" transform="translate(-652.642 -10.906)"/><path class="am" d="M661.859,16.355h-7.146l1.1-3.735h9.163Z" transform="translate(-652.875 -11.099)"/><path class="am" d="M657.645,21.34h-2.932V17.6h6.658Z" transform="translate(-652.875 -11.66)"/><path class="an" d="M664.02,11.593c-.7,2.736-8.7,10.5-11.113,12.3.1.7.241,1.155.414,1.2.646.165,11.822-10.34,11.822-13.017C665.143,11.914,664.727,11.747,664.02,11.593Z" transform="translate(-652.672 -10.983)"/><path class="h" d="M654.357,14.488c-.249,1,.03,1.867.519,1.867s.681-.856.886-1.867c.217-1.074.489-1.867,0-1.867S654.663,13.262,654.357,14.488Z" transform="translate(-652.825 -11.099)"/><ellipse class="h" cx="0.802" cy="1.867" rx="0.802" ry="1.867" transform="translate(1.036 5.945)"/><path class="ao" d="M654.265,13.075c0,.928,1.387,1.68,3.1,1.68s3.1-.752,3.1-1.68-1.388-1.679-3.1-1.679S654.265,12.148,654.265,13.075Z" transform="translate(-652.825 -10.961)"/></g><circle class="ao" cx="2.64" cy="2.64" r="2.64" transform="translate(15.183 18.556)"/><g transform="translate(31.261 18.953)"><path class="ap" d="M692.9,18.187H688.09a1.559,1.559,0,0,1-1.555-1.555h0a1.559,1.559,0,0,1,1.555-1.555H692.9a1.559,1.559,0,0,1,1.555,1.555h0A1.559,1.559,0,0,1,692.9,18.187Z" transform="translate(-686.535 -15.077)"/><path class="aq" d="M693.794,17.544h-5.05a.821.821,0,0,1-.819-.819h0a.821.821,0,0,1,.819-.818h5.05a.821.821,0,0,1,.818.818h0A.821.821,0,0,1,693.794,17.544Z" transform="translate(-686.691 -15.17)"/></g><g transform="translate(64.501 20.75)"><path class="ar" d="M730.586,20.212h-4.81a1.56,1.56,0,0,1-1.556-1.555h0a1.56,1.56,0,0,1,1.556-1.555h4.81a1.56,1.56,0,0,1,1.556,1.555h0A1.56,1.56,0,0,1,730.586,20.212Z" transform="translate(-724.22 -17.102)"/><path class="as" d="M731.395,19.568h-5.05a.821.821,0,0,1-.818-.818h0a.821.821,0,0,1,.818-.819h5.05a.821.821,0,0,1,.818.819h0A.821.821,0,0,1,731.395,19.568Z" transform="translate(-724.367 -17.195)"/></g><g transform="translate(101.929 23.123)"><path class="h" d="M770.617,20.716c0,.519-.892.94-1.992.94s-1.992-.421-1.992-.94.892-.94,1.992-.94S770.617,20.2,770.617,20.716Z" transform="translate(-766.632 -19.776)"/><path class="at" d="M770.617,20.716c0,.519-.892.94-1.992.94s-1.992-.421-1.992-.94.892-.94,1.992-.94S770.617,20.2,770.617,20.716Z" transform="translate(-766.632 -19.776)"/></g><g transform="translate(86.63 10.24)"><path class="au" d="M763.43,12.054s-6.423-1.825-6.912-2.419-2.376-3.773-3.145-3.983-2.865-.769-3.424,0-1.18,4.761.35,5.31,3.808-.07,4.507.28a4.013,4.013,0,0,0,1.578.578Z" transform="translate(-749.338 -5.259)"/><path class="av" d="M756.384,10.941a4.016,4.016,0,0,1-1.578-.577c-.7-.35-2.978.27-4.507-.28-.588-.211-.856-.93-.935-1.778-.1,1.3.076,2.691.935,3,1.529.55,3.808-.07,4.507.28a4.013,4.013,0,0,0,1.578.578l7.046.234s-2.451-.7-4.441-1.369Z" transform="translate(-749.338 -5.602)"/></g><g transform="translate(97.205 26.33)"><circle class="d" cx="10.489" cy="10.489" r="10.489" transform="translate(0 14.833) rotate(-45)"/><circle cx="7.921" cy="7.921" r="7.921" transform="translate(6.912 6.787)"/><circle class="p" cx="7.305" cy="7.305" r="7.305" transform="translate(7.528 7.532)"/><g transform="translate(7.382 7.378)"><path class="aw" d="M777.293,31.713a7.451,7.451,0,1,0,7.451,7.451A7.451,7.451,0,0,0,777.293,31.713Zm0,12.99a5.634,5.634,0,1,1,5.633-5.634A5.634,5.634,0,0,1,777.293,44.7Z" transform="translate(-769.842 -31.705)"/><path class="aw" d="M777.34,31.7c1.6.018.961,6.341.961,6.341s5.584-2.69,6.086-1.221-5.615,2.789-5.615,2.789,4.165,4.558,2.923,5.5-4.509-4.348-4.509-4.348-2.969,5.223-4.2,4.348,2.715-5.387,2.715-5.387-5.909-1.448-5.406-2.9c.5-1.432,5.97,1.06,5.97,1.06S775.772,31.686,777.34,31.7Z" transform="translate(-769.889 -31.704)"/><path class="ax" d="M780.464,39.786a2.55,2.55,0,1,1-2.55-2.55A2.549,2.549,0,0,1,780.464,39.786Z" transform="translate(-770.464 -32.327)"/><g transform="translate(5.286 5.589)"><path class="p" d="M777.4,38.428a.426.426,0,1,1-.426-.426A.426.426,0,0,1,777.4,38.428Z" transform="translate(-775.884 -38.002)"/><path class="p" d="M779.881,38.428a.426.426,0,1,1-.426-.426A.426.426,0,0,1,779.881,38.428Z" transform="translate(-776.163 -38.002)"/><path class="p" d="M780.569,40.582a.426.426,0,1,1-.426-.426A.426.426,0,0,1,780.569,40.582Z" transform="translate(-776.24 -38.244)"/><path class="p" d="M776.65,40.582a.426.426,0,1,1-.426-.426A.426.426,0,0,1,776.65,40.582Z" transform="translate(-775.799 -38.244)"/><path class="p" d="M778.536,42.043a.426.426,0,1,1-.426-.426A.426.426,0,0,1,778.536,42.043Z" transform="translate(-776.011 -38.409)"/></g><circle class="ax" cx="1.209" cy="1.209" r="1.209" transform="translate(6.242 6.25)"/></g></g></g><g transform="translate(686.655 -17.925)"><path class="ay" d="M0,0H48.171a0,0,0,0,1,0,0V0a4.252,4.252,0,0,1-4.252,4.252H4.252A4.252,4.252,0,0,1,0,0V0A0,0,0,0,1,0,0Z" transform="translate(0 53.48)"/><path class="e" d="M731.228,52.117H701.519a3.185,3.185,0,0,1-3.185-3.185h36.079A3.185,3.185,0,0,1,731.228,52.117Z" transform="translate(-692.288 8.783)"/><g transform="translate(12.837 54.462)"><path class="az" d="M723.314,47.671H707.2a1.215,1.215,0,0,1-1.211-1.211h0a1.215,1.215,0,0,1,1.211-1.211h16.117a1.215,1.215,0,0,1,1.211,1.211h0A1.215,1.215,0,0,1,723.314,47.671Z" transform="translate(-705.986 -45.248)"/><path class="e" d="M720.889,46.577a.585.585,0,1,1-.585-.584A.585.585,0,0,1,720.889,46.577Z" transform="translate(-707.532 -45.332)"/><path class="e" d="M725.819,46.539a.585.585,0,1,1-.585-.584A.585.585,0,0,1,725.819,46.539Z" transform="translate(-708.087 -45.328)"/><path class="e" d="M707.911,46.577a.584.584,0,1,1-.584-.584A.585.585,0,0,1,707.911,46.577Z" transform="translate(-706.071 -45.332)"/></g><path class="ba" d="M706.8,44.157l-15.284-.017,8.779.761v3.492l4.367,1.027v2.158h12.245V49.038l1.008-.645v-3.63l21.773-.606Z" transform="translate(-691.521 9.333)"/><rect class="f" width="9.157" height="121.223" transform="translate(15.284)"/><rect class="az" width="31.147" height="8.863" transform="translate(4.199 113.093)"/><path class="b" d="M717.9,96.532h-9.157V-16.4h2.3V93.675Z" transform="translate(-693.459 16.397)"/></g><g transform="translate(743.721 84.163)"><path class="d" d="M771.523,99.244h-4.6a1.55,1.55,0,0,0-1.415,1.649V103.4a1.682,1.682,0,0,0,.825,1.494,1.258,1.258,0,0,1-.013-.154v-3.43a1.04,1.04,0,0,1,.95-1.107h3.9a1.04,1.04,0,0,1,.95,1.107v3.43a1.258,1.258,0,0,1-.013.154,1.683,1.683,0,0,0,.826-1.494v-2.511A1.55,1.55,0,0,0,771.523,99.244Z" transform="translate(-757.243 -99.244)"/><path class="h" d="M.982,0H22.47a.982.982,0,0,1,.982.982V10.9a.938.938,0,0,1-.938.938H.938A.938.938,0,0,1,0,10.9V.982A.982.982,0,0,1,.982,0Z" transform="translate(0 3.098)"/><path class="h" d="M.767,0H22.685a.767.767,0,0,1,.767.767V4.415a0,0,0,0,1,0,0H0a0,0,0,0,1,0,0V.767A.767.767,0,0,1,.767,0Z" transform="translate(0 3.098)"/><rect class="i" width="18.688" height="2.969" transform="translate(2.382 10.841)"/><rect class="d" width="23.452" height="0.55" transform="translate(0 7.512)"/><path class="i" d="M760.505,109.259h0a.732.732,0,0,1-.732-.733v-2.107h1.465v2.107A.733.733,0,0,1,760.505,109.259Z" transform="translate(-756.597 -100.052)"/><path class="i" d="M778.33,109.259h0a.733.733,0,0,1-.733-.733v-2.107h1.466v2.107A.733.733,0,0,1,778.33,109.259Z" transform="translate(-758.603 -100.052)"/></g><g transform="translate(656.828 26.658)"><g transform="translate(0 4.058)"><path class="h" d="M666.825,60.7c-1.426.667-2.55-2.4-3.023-3.919s-1.4-6.1-1.4-6.1l1.616-.611a43.136,43.136,0,0,1,3.868,7.693C668.039,58.191,668.276,60.027,666.825,60.7Z" transform="translate(-658.101 -40.262)"/><path class="bb" d="M664.349,50.343l1.137,2.247-2.506.834-.517-2.309Z" transform="translate(-658.108 -40.293)"/><path class="bb" d="M664.428,51.1a21.115,21.115,0,0,0-.439-2.531,13.19,13.19,0,0,0-1.273-1.612s-.214.712-.562.86-1.281.447-1.281.447a9.36,9.36,0,0,0,.776,1.926,6.684,6.684,0,0,0,.877,1Z" transform="translate(-657.929 -39.911)"/><path class="d" d="M683.931,117.178s-.987,1.82-.83,2.211a1.9,1.9,0,0,0,1.845.786,7.691,7.691,0,0,0,2.067-1.147c.442-.143-.081-2.568-.081-2.568Z" transform="translate(-660.429 -47.735)"/><g transform="translate(11.936 37.123)"><path class="k" d="M671.005,87.437l3.485-.029.1-.2.253-.141-.394-6.1-3.23-.069Z" transform="translate(-671.005 -80.854)"/><path class="f" d="M671.39,87.087l3.485-.029-.24-6.209-3.3.028Z" transform="translate(-671.043 -80.849)"/><path class="l" d="M674.49,87.408l.1-.2-3.349.028-.024-6.337-.208,6.542Z" transform="translate(-671.005 -80.854)"/></g><path class="h" d="M677.5,63.045c-.109,1.443-1.336,1.782-2.747,1.583s-8.413-2.715-8.648-3.11.191-2.437.833-2.6,6.919,1.068,8.051,1.433S677.628,61.353,677.5,63.045Z" transform="translate(-658.51 -41.256)"/><path class="bb" d="M677.158,62.01a6.556,6.556,0,0,0-3.055-2.138c-1.473-.2-4.249-.817-4.249-.817a5.09,5.09,0,0,0-.9,2.178,4.67,4.67,0,0,0,.213,2.487s5.808,1.215,6.966.857C676.475,64.47,677.907,63.343,677.158,62.01Z" transform="translate(-658.83 -41.273)"/><path class="g" d="M680.732,53.653a29.015,29.015,0,0,0,0,4.394c.69.7,3.367,1.489,3.772,2.628.491,1.381-3.472,6.982-4.1,8.9s-.007,5.042.1,6.992-6.159,3.694-6.381,3.672a11.847,11.847,0,0,1-2.3-2.692c-.309-.664.531-5.556.651-6.813s.254-5.689.225-5.983a8.746,8.746,0,0,1,.563-3.829c.113-.4.156-1.083.386-1.322.456-.479,2.783-.944,2.844-1.2s.717-3.828.717-3.828Z" transform="translate(-659.154 -40.665)"/><path class="i" d="M680.744,58.6l-3.854,1.823-.385-1.47s-2.485.712-2.844,1.2a8.756,8.756,0,0,0-.759,2,19.263,19.263,0,0,0-.385,4.009c0,.986-.147,2.273-.16,3.949-.01,1.436-.508,4.962-.508,4.962s1.353.187,3.469.288a31.321,31.321,0,0,0,5.063-.1c.508-.34.222-4.18.348-4.588s3.819-7.353,3.958-8.3a1.941,1.941,0,0,0-.969-2.041C683.034,59.916,680.744,58.6,680.744,58.6Z" transform="translate(-659.164 -41.222)"/><path class="bc" d="M683.751,60.329s2.248,1.544-.284,3.137c-1.093.688-6.075,1.438-7.019,1.628-3.369.682.975,8.424,1.309,9.009a2.52,2.52,0,0,1,.256,1.333l2.505.075c.958.288.6-4.669,1.069-5.645s3.4-6.526,3.473-7.289A2.16,2.16,0,0,0,683.751,60.329Z" transform="translate(-659.539 -41.416)"/><path class="h" d="M677.581,56.309l3.814-.968-.122,2.189-1.2.58Z" transform="translate(-659.81 -40.855)"/><path class="g" d="M680.493,48.071c1.24-.238,3.985.533,4.182,2.773a3.892,3.892,0,0,1-2.435,4,4.53,4.53,0,0,1-2.837.395,9.24,9.24,0,0,1-2.412-1.121c-.186-.225.688-2.046.615-2.081a.364.364,0,0,1-.124-.4c.11-.211,1.085-1.3,1.116-1.465S679.072,48.343,680.493,48.071Z" transform="translate(-659.74 -40.032)"/><path class="j" d="M679.875,48.511s1.762.069,2.475,2.556c.154.535-1.344,1.486-1.331,1.66s1.9-.2,1.762-.072c-1.44,1.281-1.459,2.464-1.321,2.562.417.3,3.125-1.093,3.566-3.3a3.51,3.51,0,0,0-1.89-3.755A2.752,2.752,0,0,0,679.875,48.511Z" transform="translate(-660.068 -40.003)"/><path class="g" d="M681.946,53.091c-.461.406-.949,1.037-.728,1.284s.776.119,1.237-.288.656-.935.435-1.182S682.407,52.686,681.946,53.091Z" transform="translate(-660.213 -40.563)"/><g transform="translate(9.447 66.431)"><rect class="d" width="2.368" height="0.442" transform="translate(8.516 3.583) rotate(180)"/><path class="d" d="M676.624,113.9a4.126,4.126,0,0,1,.551,1.663c.036.466-.241,1.45-.548,1.45a22.815,22.815,0,0,0-2.889.161,11.007,11.007,0,0,1-3.631.65c-.689,0-1.9-.043-1.9-.326,0-1.223,2.266-.788,2.984-1.451a9.727,9.727,0,0,1,3.031-2.082A21.18,21.18,0,0,1,676.624,113.9Z" transform="translate(-668.201 -113.875)"/></g><path class="b" d="M675.911,77.822s3.114,2.905,3.258,4.281-1.184,5.775-1.654,9.235-.761,4.16-.643,4.978a36.421,36.421,0,0,1,1.013,6.331c-.037,2.57.1,7.836.1,7.836a4.171,4.171,0,0,1-2.457.53,3.846,3.846,0,0,1-2.123-.813s-.712-12.922-.856-14.28c-.093-.879-.811-6.942-1.031-11.884-.071-1.59.11-5.266.109-5.924Z" transform="translate(-659.125 -43.386)"/><path class="f" d="M679.883,76.364l2.377-5.607s.424,5.039-.311,5.488A3.337,3.337,0,0,1,679.883,76.364Z" transform="translate(-660.069 -42.59)"/><path class="bc" d="M677.774,59.691l-.245.847,2.03-.949Z" transform="translate(-659.804 -41.333)"/><path class="bd" d="M681.894,58.786l-.6-.979-3.493,1.683.409,1.227Z" transform="translate(-659.835 -41.133)"/><path class="bc" d="M677.441,60.519l-.2-1.1-.5.316Z" transform="translate(-659.716 -41.314)"/><path class="be" d="M677.191,59.328l-.872.821-.028-.971.717-.565Z" transform="translate(-659.664 -41.223)"/><path class="b" d="M671.421,75.688c-1.055-1.323,1.168-11.544,1.168-11.544l4.988.868-.164,10.676S672.489,77.027,671.421,75.688Z" transform="translate(-659.084 -41.846)"/><path class="f" d="M678.249,64.463c.215-.94,2.081-4.831,4.823-4.5a6.21,6.21,0,0,1,.9.251l-1.508-.883s-.6-.3-1.926.492a8.2,8.2,0,0,0-3.364,4.458C676.826,65.938,677.993,65.589,678.249,64.463Z" transform="translate(-659.756 -41.297)"/><path class="f" d="M672.769,63.616s.574-3.444,1.824-3.864a6.708,6.708,0,0,0,.777-.3,11.427,11.427,0,0,0-1.383,2.952c-.333,1.368-.49,2.349-.943,2.292S672.769,63.616,672.769,63.616Z" transform="translate(-659.264 -41.318)"/><path class="g" d="M684.331,62.452c-.406,1.389-1.644,1.486-2.948,1.021s-8.464-4.748-8.606-5.178.691-2.344,1.336-2.379,7.386,2.854,8.388,3.427S684.806,60.825,684.331,62.452Z" transform="translate(-659.267 -40.92)"/><path class="be" d="M684.848,61.357a3.349,3.349,0,0,0-1.739-2.038c-1.4-.5-4.976-2.076-4.976-2.076a5.088,5.088,0,0,0-1.328,1.949,4.675,4.675,0,0,0-.3,2.478s5.436,2.251,6.647,2.256A1.94,1.94,0,0,0,684.848,61.357Z" transform="translate(-659.683 -41.069)"/><path class="bf" d="M660.377,49.777a3.184,3.184,0,0,1,.629-.525l10.113-7.067a2.514,2.514,0,0,1,.564-.323c.408-.073,1,.241,1.6-.271.441-.381.65-1.563.5-1.618-.076-.028-.706.7-.853.8a.631.631,0,0,1-.675-.093c-.158-.128-.5-.416-.424-.687s.863-.855.79-.959a2.362,2.362,0,0,0-1.384.534c-.377.441-.3.779-.433,1.037a2.556,2.556,0,0,1-.508.445L660.2,48.105a3.28,3.28,0,0,1-.722.423c-.367.068-.878-.179-1.422.289-.4.348-.595,1.431-.458,1.481.07.026.645-.64.781-.734a.577.577,0,0,1,.618.084c.145.117.459.381.389.629s-.791.784-.723.879a2.156,2.156,0,0,0,1.267-.489A2.957,2.957,0,0,0,660.377,49.777Z" transform="translate(-657.555 -39.018)"/><path class="bg" d="M660.933,49.39a.409.409,0,0,1-.571-.094h0a.408.408,0,0,1,.1-.568l10.326-7.217a.409.409,0,0,1,.571.095h0a.409.409,0,0,1-.1.568Z" transform="translate(-657.863 -39.29)"/><path class="bg" d="M673.142,41.565a.586.586,0,0,1,.033.357,1.358,1.358,0,0,1-.216.305,2.106,2.106,0,0,1,.35-.221,1.783,1.783,0,0,1,.493-.015,1.022,1.022,0,0,1-.42-.189C673.279,41.706,673.142,41.565,673.142,41.565Z" transform="translate(-659.289 -39.304)"/><path class="bg" d="M672.906,41.224a.586.586,0,0,0-.325-.153,1.367,1.367,0,0,0-.359.1,2.051,2.051,0,0,0,.326-.255,1.359,1.359,0,0,0,.138-.454,1.4,1.4,0,0,0,.08.455C672.821,41.046,672.906,41.224,672.906,41.224Z" transform="translate(-659.206 -39.18)"/><path class="bg" d="M660.2,50.652a.6.6,0,0,0,.335.158,1.4,1.4,0,0,0,.371-.1,2.137,2.137,0,0,0-.335.262,1.833,1.833,0,0,0-.187.474,1.053,1.053,0,0,0-.037-.474C660.29,50.836,660.2,50.652,660.2,50.652Z" transform="translate(-657.853 -40.327)"/><path class="bg" d="M659.941,50.314a.61.61,0,0,1-.035-.368,1.434,1.434,0,0,1,.223-.314,2.107,2.107,0,0,1-.359.227,1.386,1.386,0,0,1-.49-.025,1.458,1.458,0,0,1,.413.236C659.8,50.17,659.941,50.314,659.941,50.314Z" transform="translate(-657.75 -40.212)"/><path class="bf" d="M660.818,49.359a.264.264,0,0,1-.352-.107h0a.265.265,0,0,1,.018-.368l10.369-7.246a.264.264,0,0,1,.351.108h0a.264.264,0,0,1-.017.367Z" transform="translate(-657.876 -39.309)"/><g class="bh"><path class="bi" d="M656.5,49.5l.866,1.232,16.246-11.377-.866-1.232Z" transform="translate(-657.437 -38.917)"/></g><path class="g" d="M673.237,57.444c-1.318.859-2.859-2.016-3.541-3.458s-2.243-5.845-2.243-5.845l1.515-.831a43.132,43.132,0,0,1,4.9,7.076C674.088,54.785,674.579,56.569,673.237,57.444Z" transform="translate(-658.67 -39.951)"/><g transform="translate(6.916 4.514)"><path class="i" d="M665.463,45.4h0a.307.307,0,0,1,.429.045l.824,1.014a.307.307,0,0,1-.046.43h0a.307.307,0,0,1-.429-.045l-.823-1.014A.306.306,0,0,1,665.463,45.4Z" transform="translate(-665.349 -44.242)"/><path class="i" d="M665.925,44.942h0a.305.305,0,0,1,.429.045L667.179,46a.306.306,0,0,1-.046.43v0a.306.306,0,0,1-.429-.046l-.823-1.013A.306.306,0,0,1,665.925,44.942Z" transform="translate(-665.401 -44.191)"/><path class="i" d="M666.4,44.528h0a.308.308,0,0,1,.43.045l.824,1.014a.307.307,0,0,1-.046.43h0a.307.307,0,0,1-.429-.045l-.823-1.014A.306.306,0,0,1,666.4,44.528Z" transform="translate(-665.455 -44.145)"/><path class="i" d="M666.9,44.172h0a.307.307,0,0,1,.429.045l.824,1.014a.307.307,0,0,1-.046.43h0a.307.307,0,0,1-.429-.045l-.824-1.014A.306.306,0,0,1,666.9,44.172Z" transform="translate(-665.511 -44.105)"/><path class="i" d="M669.341,48a21.042,21.042,0,0,0-.788-2.445,13.2,13.2,0,0,0-1.486-1.418s-.113.735-.437.93-1.205.621-1.205.621a9.323,9.323,0,0,0,1.037,1.8,6.651,6.651,0,0,0,1.008.871Z" transform="translate(-665.358 -44.108)"/></g><path class="i" d="M669.342,47.525l1.439,2.066-2.365,1.176-.835-2.214Z" transform="translate(-658.684 -39.975)"/><path class="b" d="M681.543,77.884a45.431,45.431,0,0,1,1.488,4.634c.5,2.066,1.1,12.76,1.277,13.766s.808,4.08,1.294,7.119.777,9.14.777,9.14l-3.892.608s-2.319-12.8-2.685-14.808-3.493-12.524-3.493-12.524l-.5-7.009Z" transform="translate(-659.61 -43.393)"/><path class="f" d="M681.445,86.1c.325,1.369,1.277,10.67,1.354,11.2s2.484,14.787,2.595,15.447l1.281-.2s-.29-6.1-.777-9.14-1.115-6.114-1.294-7.119-.776-11.7-1.277-13.766a45.431,45.431,0,0,0-1.488-4.634l-3.391.673S681.119,84.731,681.445,86.1Z" transform="translate(-659.907 -43.393)"/><path class="l" d="M671.457,77.128l.154,1.322a48.34,48.34,0,0,0,6.051,0c3.493-.26,3.5-.453,3.474-.442L681,76.941s-1.5.106-3.552.187C675.45,77.207,671.457,77.128,671.457,77.128Z" transform="translate(-659.12 -43.286)"/><path class="b" d="M678.209,77.143l.706,4.367.781-4.436Z" transform="translate(-659.88 -43.301)"/><g transform="translate(19.071 36.713)"><path class="b" d="M679.636,87.375l3.456-.454.07-.214.234-.17-1.135-6.005-3.215.325Z" transform="translate(-679.046 -80.404)"/><path class="bj" d="M679.951,86.974l3.456-.454-.995-6.133-3.27.429Z" transform="translate(-679.057 -80.387)"/><path class="f" d="M683.092,86.963l.07-.214-3.32.436-.8-6.287.591,6.519Z" transform="translate(-679.046 -80.445)"/></g><path class="f" d="M679.874,48.367a3.255,3.255,0,0,1,4.337-.619,3.406,3.406,0,0,1,1.13,4.384,20.785,20.785,0,0,1-3.391-1.8C680.085,49.13,679.874,48.367,679.874,48.367Z" transform="translate(-660.068 -39.934)"/><path class="l" d="M681.312,50.1s4.117,3.544,4.186,3.609a3.7,3.7,0,0,0,1.5.511,16.635,16.635,0,0,0-1.39-2s-1.171-.418-1.742-.64S681.426,49.941,681.312,50.1Z" transform="translate(-660.23 -40.264)"/><g transform="translate(2.901 6.992)"><path class="bb" d="M660.973,47.95h0a.306.306,0,0,1,.418.1l.674,1.119a.306.306,0,0,1-.1.42h0a.307.307,0,0,1-.418-.1l-.674-1.119A.306.306,0,0,1,660.973,47.95Z" transform="translate(-660.825 -47.01)"/><path class="bb" d="M661.494,47.565h0a.309.309,0,0,1,.419.1l.674,1.12a.306.306,0,0,1-.106.42h0a.307.307,0,0,1-.418-.106l-.674-1.119A.306.306,0,0,1,661.494,47.565Z" transform="translate(-660.883 -46.967)"/><path class="bb" d="M662.023,47.222h0a.307.307,0,0,1,.418.1l.674,1.119a.306.306,0,0,1-.1.42h0a.306.306,0,0,1-.418-.1l-.674-1.119A.306.306,0,0,1,662.023,47.222Z" transform="translate(-660.943 -46.928)"/><path class="bb" d="M662.565,46.939h0a.308.308,0,0,1,.419.1l.674,1.119a.305.305,0,0,1-.106.42h0a.306.306,0,0,1-.418-.1l-.674-1.119A.306.306,0,0,1,662.565,46.939Z" transform="translate(-661.004 -46.896)"/></g><path class="bc" d="M664,49.089s-.605-.893-.8-.861-1.347.011-1.477.005-.3-.015-.025.306.808.281.855.419a2.05,2.05,0,0,0,.389,1.186.9.9,0,0,0,.985.233C664.093,50.308,664.385,49.3,664,49.089Z" transform="translate(-658.005 -40.054)"/></g><g transform="translate(10.717)"><circle class="d" cx="5.068" cy="5.068" r="5.068"/><g transform="translate(1.035 1.075)"><path class="aw" d="M678.865,39.689a4.033,4.033,0,1,1-4.033-4.033A4.034,4.034,0,0,1,678.865,39.689Z" transform="translate(-670.798 -35.656)"/><g transform="translate(0.61 1.076)"><path class="e" d="M674.023,37.542a.674.674,0,1,1-.674-.674A.673.673,0,0,1,674.023,37.542Z" transform="translate(-671.619 -36.868)"/><path class="e" d="M677.942,37.542a.674.674,0,1,1-.674-.674A.673.673,0,0,1,677.942,37.542Z" transform="translate(-672.06 -36.868)"/><path class="e" d="M679.031,40.949a.674.674,0,1,1-.674-.674A.673.673,0,0,1,679.031,40.949Z" transform="translate(-672.183 -37.251)"/><path class="e" d="M672.832,40.949a.674.674,0,1,1-.674-.674A.673.673,0,0,1,672.832,40.949Z" transform="translate(-671.485 -37.251)"/><path class="e" d="M675.814,43.26a.674.674,0,1,1-.674-.674A.673.673,0,0,1,675.814,43.26Z" transform="translate(-671.821 -37.512)"/></g><path class="e" d="M677.012,39.958a1.912,1.912,0,1,1-1.911-1.912A1.912,1.912,0,0,1,677.012,39.958Z" transform="translate(-671.067 -35.925)"/></g></g></g></g></svg>