<svg xmlns="http://www.w3.org/2000/svg" width="60" height="50" viewBox="0 0 98 116"><defs><style>.a{fill:#f79e8a;}.b{fill:#e7d7d3;}.c{fill:#eee3e0;}.d{fill:#e9dad7;}.e{fill:#c75029;}.f{fill:#191919;}.g{fill:#252c30;}.h{fill:#253746;}.i{fill:#f4ecea;}.j{fill:#253239;}.k{fill:#f6efed;}.l{fill:#e7d8d4;mix-blend-mode:multiply;isolation:isolate;}.m{fill:#dab3ae;}.n{fill:#887e7a;}.o{fill:#625b58;}.p{fill:#f0431c;}.q{fill:#263238;}</style></defs><g transform="translate(0)"><g transform="translate(0 0)"><path class="a" d="M466.816-255.033c1.389-2.613,6.382.774,8.825,2.508s9.866,7.585,9.866,7.585l-2.026,2.114a69.351,69.351,0,0,1-14.92-6.627C466.906-250.472,465.4-252.375,466.816-255.033Z" transform="translate(-425.353 287.844)"/><path class="a" d="M479.319-264.955c-2.212,1.627-1.522,3.941.219,6.01s12.83,10.8,13.7,10.777,3.727-2.76,3.34-3.955-8.679-10.05-10.405-11.5S481.908-266.862,479.319-264.955Z" transform="translate(-450.475 286.039)"/><path class="b" d="M485.109-266.825c1.045-.049,2.136,1.845,3.414,3.372,1.812,2.162,6.97,7.484,6.97,7.484a9.643,9.643,0,0,1-2.592,3.645,8.863,8.863,0,0,1-4.212,2.16s-7.8-8.118-8.388-10.338C480.124-261.165,482.213-266.689,485.109-266.825Z" transform="translate(-452.192 285.852)"/><path class="a" d="M506.96-276.982s-4,6.625-4.381,7.089c-1.411,1.727-2.359,1.425-4.148,2.859-2.168,1.737-7.271,11.05-9.681,17.152-1.406,3.561-3.288,12.05-3.015,15.746.363,4.942,8.375,6.122,8.754,6.309s3.458-2.213,4.619-2.977.591-9.068,1.647-11.217,7.766-8.6,8.1-9.049a16.619,16.619,0,0,0,2.909-6.741c.216-.758.825-1.9.694-2.518-.259-1.227-3.55-4.3-3.4-4.77s2.66-6.894,2.66-6.894Z" transform="translate(-475.686 284.11)"/><path class="c" d="M502.469-271.078l5.376,6.646,1.113-1.852s3.3,3.625,3.4,4.77a16.562,16.562,0,0,1-.771,3.988,36.6,36.6,0,0,1-3.373,6.854c-.985,1.589-3.686,3.107-5.338,5.826-1.414,2.327-.922,6.232-.922,6.232a23.193,23.193,0,0,0-7.429,0c-4.775.806-8.647-1.016-8.759-1.262-.48-1.053,2.964-12.409,3.17-13.193s4.712-10.428,5.733-11.919c1.483-2.165,3.279-4.407,5.726-5.171A7.646,7.646,0,0,0,502.469-271.078Z" transform="translate(-475.576 285.295)"/><path class="d" d="M508.506-270.648s-2.65,3.152-.151,8.245c1.078,2.2.55,4.805,1.882,6.053,4.757,4.457-5.426,17.4-6.549,18.009s-4.722-.068-4.722-.068l-6.7-1.559c-1.833-.491,3.058-11.629,3.273-13.672s4.6-9.649,5.313-10.918C504.162-270.487,508.506-270.648,508.506-270.648Z" transform="translate(-482.082 285.382)"/><path class="a" d="M494.413-269.612l-5.19-5.363-1.986,3.654,1.364,2.135Z" transform="translate(-459.454 284.513)"/><g transform="translate(28.469 0.503)"><path class="a" d="M494.46-277.912c-.857-2.237-4.848-5.886-8.655-3.964a7.381,7.381,0,0,0-4.013,7.928,8.6,8.6,0,0,0,2.2,4.967c.293.358,3.421,2.656,4.222,2.764.546.074,2.607-3.155,2.736-3.074a.692.692,0,0,0,.768-.2c.229-.389,1.016-3.056,1.243-3.265S495.441-275.351,494.46-277.912Z" transform="translate(-481.59 282.516)"/><path class="e" d="M494.707-275.9s-1.873-2.768-6.594-1.429c-1.016.288-1.048,3.653-1.342,3.806-.317.163-1.586-3.266-1.647-2.912-.622,3.6-2.509,4.817-2.8,4.694-.9-.375-1.365-6.13,1.743-9.044A6.657,6.657,0,0,1,492-281.5C492.824-280.854,495.492-279.27,494.707-275.9Z" transform="translate(-481.648 282.5)"/><path class="a" d="M490.879-275.952c-.192,1.15-.72,2.566-1.34,2.457s-.967-1.13-.774-2.279.85-1.994,1.47-1.885S491.071-277.1,490.879-275.952Z" transform="translate(-486.226 283.469)"/></g><g transform="translate(0 103.165)"><rect width="4.492" height="0.838" transform="translate(0.307 5.436) rotate(21.462)"/><path d="M506.176-195.705a7.8,7.8,0,0,0-2.126,2.553c-.389.8-.581,2.728-.038,2.941a43.3,43.3,0,0,1,4.989,2.29c1.544.861.539,1.513,4.711,3.142,1.218.475,4.75.541,4.946.042.849-2.159-3.562-1.734-4.372-3.4-2.047-4.222-3.906-5.778-3.906-5.778A40.2,40.2,0,0,0,506.176-195.705Z" transform="translate(-503.544 195.71)"/></g><g transform="translate(13.022 108.454)"><path class="f" d="M505.471-185.4l-4.49.136-.025-.865,4.49-.136Z" transform="translate(-500.005 192.315)"/><path class="f" d="M492.2-191.223a8.268,8.268,0,0,0-.951,3.288c-.044.915.538,2.826,1.12,2.808a41.722,41.722,0,0,1,5.486.149c1.759.191,2.442,1.21,6.921,1.065,1.306-.043,3.644-.2,3.594-.747-.258-2.769-4.341-1.413-5.741-2.67-3.542-3.178-5.862-3.9-5.862-3.9A39.2,39.2,0,0,0,492.2-191.223Z" transform="translate(-491.246 191.305)"/></g><path class="g" d="M513.212-243.875s-7.072,3.9-7.973,6.367-1.132,9.8-1.868,16.382-1,8.592-1.6,10.04-3.878,7.8-4.656,11.91-3.734,14.47-3.734,14.47,2.666,1.16,4.7,1.886a6.355,6.355,0,0,0,4.421-.531s7.63-23.248,8.523-25.679c.579-1.573,4.7-12.392,7.394-21.382.866-2.892,2.233-9.739,2.538-10.948Z" transform="translate(-493.385 289.208)"/><path class="h" d="M496.837-243.628a23.242,23.242,0,0,0-.937,7.219c.221,2.612,1.312,7.358,2.663,13.843a74.28,74.28,0,0,1,1.755,14.127c-.113,1.561-1.494,8.239-1.174,12.412.376,4.9.755,16.223.755,16.223a21.47,21.47,0,0,0,4.15.556,19.809,19.809,0,0,0,4.98-.777s.205-26.058,1-28.525c1.275-3.941.656-16.021,1.143-24.323.2-3.35.474-10.813.474-10.813Z" transform="translate(-487.047 289.246)"/><path class="h" d="M507.936-242.075l.992-14.408a69.105,69.105,0,0,0-3.612,11.542c-.1.478-.475,1.787.339,2.13A17.738,17.738,0,0,0,507.936-242.075Z" transform="translate(-495.469 287.748)"/><path class="d" d="M492.257-266.446l.525,1.474-3.3-3.417Z" transform="translate(-460.513 285.835)"/><path class="d" d="M488.293-265.233l1.114-1.852.309,1.079Z" transform="translate(-456.025 286.097)"/><path class="i" d="M487.775-266.72l.255,1.81.842-1.017-.732-1.607Z" transform="translate(-454.558 286.007)"/><path class="h" d="M499.736-240.49c.848-.16.373-2.967,1.26-4.779,2.407-4.928,6.057-11.9,6.057-11.9l-8.916-3.571-10.954,19.683A25.863,25.863,0,0,0,499.736-240.49Z" transform="translate(-472.029 286.944)"/><path class="j" d="M511.3-243.63l-.138,2.556a57.289,57.289,0,0,1-12.564-.593c-5.482-1.082-5.319-1.45-5.319-1.45l.5-1.979s1.669.367,5.523.988A100.015,100.015,0,0,0,511.3-243.63Z" transform="translate(-483.591 289.89)"/><path class="g" d="M506.463-244.259l-1.474,10.2-1.257-10.737Z" transform="translate(-491.308 289.907)"/><path class="h" d="M497.024-258.162c.591-1.729.692-11.813-5.682-10.343l2.064-1.474s2.5-.783,4.564,2.746a11.483,11.483,0,0,1,.98,9.843C497.852-254.363,496.316-256.089,497.024-258.162Z" transform="translate(-469.604 285.501)"/><path class="h" d="M487.84-256.21s2.506-6.13.908-8.054a13.06,13.06,0,0,1-.955-1.261,21.681,21.681,0,0,1-.707,6.142c-.827,2.539-1.553,4.279-.764,4.64S487.84-256.21,487.84-256.21Z" transform="translate(-452.816 286.107)"/><path class="a" d="M490.486-266.794c-2.705.456-3.161,2.77-2.574,5.328s7.552,18.159,8.332,18.522,4.569-.784,4.776-1.993-4.223-15.709-5.081-17.722S493.656-267.33,490.486-266.794Z" transform="translate(-466.607 285.822)"/><path class="i" d="M492.972-267.666c1.364.209,3.807,2.662,4.476,4.536.946,2.657,3.935,9.44,3.935,9.44a9.665,9.665,0,0,1-3.7,2.518,8.856,8.856,0,0,1-4.7.562s-4.051-10.321-4.276-12.609C488.557-264.79,489.673-268.169,492.972-267.666Z" transform="translate(-468.176 285.688)"/><path class="a" d="M474.281-247.543c-.51,2.942,6,4.127,9.014,4.423s11.87.271,11.87.271l.451-2.83s-7.915-2.514-16.029-4.377C478.753-250.246,475.07-252.088,474.281-247.543Z" transform="translate(-445.067 288.861)"/><g transform="translate(57.24 42.328)"><path class="b" d="M458.413-246.157s-.023,2.3,1.639,2.819,3.634-.265,4.136-.343c2.069-.323,4.152,1.244,5.427,1.232s1.315-.676.868-.8c-2.5-.683-3.693-1.895-4.842-2.08a44.664,44.664,0,0,1-5.122-1.848Z" transform="translate(-458.413 247.175)"/><path class="b" d="M463.29-245.047s-.006,1.183,1.9,1.927c1.045.408,2.431-.09,3.354.183s.754-.222.7-.358a11.905,11.905,0,0,0-1.682-.67C467.073-244.177,465.453-245.929,463.29-245.047Z" transform="translate(-462.819 247.553)"/></g><path class="k" d="M489.915-270.946l1.937-.986,3.96,6.2-1.857,1.959Z" transform="translate(-464.068 285.124)"/><path class="c" d="M471.668-246.588l4.1,1.54a16.067,16.067,0,0,1,.634,2.894,19.611,19.611,0,0,1-1.339,2.807c-.145.3-.524.576-.652.478a3.06,3.06,0,0,0-.905-2.274,14.337,14.337,0,0,1-2.6-2.349C469.828-245.176,471.668-246.588,471.668-246.588Z" transform="translate(-421.428 289.595)"/><path class="c" d="M474.922-245.073s1.559,1.523,1.425,1.909-.5,2.674-.538,2.932-.079.606-.618-.059-.27-1.707-.526-1.851-1.581-.275-2.219-1.2a1.815,1.815,0,0,1-.111-2.041C472.53-245.685,474.631-245.907,474.922-245.073Z" transform="translate(-423.189 289.778)"/><path class="c" d="M479.4-242.864l-5.062-.045.757-5.1,5.5,1.8Z" transform="translate(-430.14 289.347)"/><path class="b" d="M466.254-245.842l2.59-3.809,4.4,3.439-2.443,2.04Z" transform="translate(-413.089 289.044)"/><path class="h" d="M481.533-279.732s2.676-4.812,7.934-2.609,3.593,7.838,3.593,7.838a39.7,39.7,0,0,1-6.969-2.234C482.187-278.373,481.533-279.732,481.533-279.732Z" transform="translate(-451.503 282.919)"/><path class="j" d="M478.911-278.421s9.675,5.862,9.854,5.828a12.2,12.2,0,0,1,1.368-.318c.353-.019.663.466.831.312s-3.281-3.291-3.281-3.291-2.339-.391-3.484-.616S479.072-278.762,478.911-278.421Z" transform="translate(-446.013 283.814)"/></g><g transform="translate(28.985 3.079)"><g transform="translate(7.889 43.823)"><g transform="translate(0 0)"><rect class="f" width="15.001" height="41.547" rx="2.739" transform="translate(41.547 0) rotate(90)"/><rect width="1.076" height="41.547" transform="translate(41.547 6.963) rotate(90)"/><rect width="0.455" height="41.547" transform="translate(41.547 10.046) rotate(90)"/><rect width="0.455" height="41.547" transform="translate(41.547 11.798) rotate(90)"/><rect width="0.455" height="41.547" transform="translate(41.547 2.831) rotate(90)"/><rect width="0.455" height="41.547" transform="translate(41.547 4.582) rotate(90)"/></g><path class="l" d="M450.438-231.254a3.19,3.19,0,0,0,.481.049h34.969a3.3,3.3,0,0,0,3.289-3.289v-8.424a3.165,3.165,0,0,0-.032-.322A3.292,3.292,0,0,1,491.953-240v8.423a3.3,3.3,0,0,1-3.289,3.289h-34.97A3.289,3.289,0,0,1,450.438-231.254Z" transform="translate(-450.406 243.288)"/></g><rect class="m" width="27.732" height="2.054" transform="translate(14.797 58.698)"/><rect class="n" width="17.449" height="4.577" transform="translate(19.954 60.705)"/><path class="o" d="M460.46-229.075h17.449v4.577H460.46l15.047-1.277v-1.3Z" transform="translate(-440.505 289.779)"/><g transform="translate(25.271)"><rect class="n" width="21.859" height="3.529" transform="translate(3.392 13.607)"/><rect class="p" width="9.311" height="67.261" transform="translate(29.474 13.91)"/><rect class="p" width="22.673" height="6.758" transform="translate(19.043 12.129)"/><rect class="n" width="34.653" height="3.529" transform="translate(1.628 36.056) rotate(-90)"/><rect class="n" width="34.653" height="2.049" transform="translate(2.384 44.508) rotate(-90)"/><rect class="p" width="6.784" height="16.276" transform="translate(0 8.424)"/><path class="n" d="M469.725-242.887l-4.8-2.388h-2.049v2.388Z" transform="translate(-460.488 287.395)"/><rect class="b" width="4.745" height="3.291" transform="translate(1.018)"/><rect class="m" width="2.453" height="6.296" transform="translate(6.784 12.129)"/><path class="p" d="M438.263-264.625l6.961,2.443v42l-6.961,2.819h9.311v-47.262Z" transform="translate(-408.79 283.511)"/></g><path class="q" d="M437.092-176.925h63.095V-185.6l2.96-2.871v-36.886H434.132v36.886l2.96,2.871Z" transform="translate(-434.132 289.846)"/><rect class="n" width="69.015" height="2.872" transform="translate(0 101.376)"/><rect class="q" width="63.095" height="8.673" transform="translate(2.96 104.248)"/><path class="q" d="M436.6-192.244h63.095v4.83L436.6-190.747Z" transform="translate(-433.637 296.491)"/></g></g></svg>