<svg xmlns="http://www.w3.org/2000/svg" xmlns:xlink="http://www.w3.org/1999/xlink" width="80" height="100" viewBox="0 0 137 106"><defs><style>.a{fill:none;}.as,.b,.bh,.bk,.u{opacity:0.5;}.b,.bc,.be,.bh,.bk,.u{mix-blend-mode:multiply;}.b,.bc,.be,.bh,.bk,.bl,.bp,.bq,.bt,.bv,.bw,.bx,.by,.bz,.ca,.cb,.cc,.cd,.ce,.cf,.ch,.ci,.cj,.ck,.cl,.cm,.cn,.co,.o,.u{isolation:isolate;}.c{fill:#44231f;}.d{fill:#f7a18d;}.bl,.bw,.e,.u{fill:#fff;}.f{fill:#191619;}.g{fill:#e7360c;}.h{fill:#092833;}.i{fill:#101010;}.j{fill:#1c1c1c;}.k{fill:#fa9684;}.l{fill:#7d240f;}.m{fill:#008edb;}.n{fill:#f3f4f5;}.p{fill:#f1f4f2;}.q{fill:#eef0f3;}.r{fill:#f8e5e5;}.bb,.s{fill:#e8b4ae;}.am,.bt,.s{opacity:0.4;}.t{fill:#ccdbd2;}.v{fill:#e9eaeb;}.w{fill:#492722;}.x{fill:#374255;}.y{fill:#f8a58e;}.z{fill:#f39a86;}.aa{fill:#f57a5f;}.ab{fill:#c2391a;}.ac{fill:#321b18;}.ad,.be{fill:#3e221d;}.ae{fill:#301b18;}.af{fill:url(#a);}.ag,.am{fill:#d64e2a;}.ah{fill:url(#b);}.ai{fill:url(#c);}.aj{fill:url(#d);}.ak{fill:url(#e);}.al{fill:#f57b61;}.an{fill:url(#f);}.ao{fill:url(#h);}.ap{fill:#4c432d;}.aq{fill:#1d1c1b;}.ar{fill:#311b17;}.as{fill:#271613;}.at{fill:#cbaa97;}.au{fill:#ead4c0;}.av{clip-path:url(#i);}.aw{fill:#ad806f;}.ax{clip-path:url(#j);}.ay{fill:#d39f98;}.az{fill:#40231e;}.ba{fill:#534b32;}.bc{opacity:0.2;fill:url(#k);}.bd{fill:#f2f4f4;}.be{opacity:0.7;}.bf{fill:url(#l);}.bg{fill:#eef0f1;}.bh{fill:#ce3a18;}.bi,.bt{fill:#f2d1d3;}.bj{opacity:0.25;}.bk{fill:#fffbe8;}.bl{opacity:0.3;}.bl,.bp,.bq,.bt,.bv,.bw,.bx,.by,.bz,.ca,.cb,.cc,.cd,.ce,.cf,.ch,.ci,.cj,.ck,.cl,.cm,.cn,.co{mix-blend-mode:screen;}.bm{fill:#533027;}.bn,.bp,.bq{fill:#b6bcc0;}.bo{fill:#95868b;}.bp{opacity:0.8;}.bq{opacity:0.9;}.br{fill:#df2e04;}.bs{fill:#cc3918;}.bu{fill:#f0dfcd;}.bx{fill:url(#m);}.by{fill:url(#n);}.bz{fill:url(#o);}.ca{fill:url(#p);}.cb{fill:url(#q);}.cc{fill:url(#r);}.cd{fill:url(#s);}.ce{fill:url(#t);}.cf{fill:url(#u);}.cg{clip-path:url(#v);}.ch{fill:url(#w);}.ci{fill:url(#x);}.cj{fill:url(#y);}.ck{fill:url(#z);}.cl{fill:url(#aa);}.cm{fill:url(#ab);}.cn{fill:url(#ac);}.co{fill:url(#ad);}</style><linearGradient id="a" x1="0.413" y1="0.23" x2="0.604" y2="0.746" gradientUnits="objectBoundingBox"><stop offset="0.177" stop-color="#d64e2a"/><stop offset="0.202" stop-color="#f57b61"/><stop offset="0.828" stop-color="#f57b61"/><stop offset="0.848" stop-color="#f5846b"/><stop offset="0.897" stop-color="#f6967e"/><stop offset="0.948" stop-color="#f7a18a"/><stop offset="1" stop-color="#f8a58e"/></linearGradient><linearGradient id="b" x1="0.364" y1="0.261" x2="0.666" y2="0.725" gradientUnits="objectBoundingBox"><stop offset="0.103" stop-color="#f57b61"/><stop offset="0.108" stop-color="#f5846b"/><stop offset="0.119" stop-color="#f6967e"/><stop offset="0.131" stop-color="#f7a18a"/><stop offset="0.143" stop-color="#f8a58e"/></linearGradient><linearGradient id="c" x1="0.364" y1="0.102" x2="0.663" y2="0.863" xlink:href="#a"/><linearGradient id="d" x1="0.244" y1="0.185" x2="0.812" y2="0.796" xlink:href="#b"/><linearGradient id="e" x1="0.381" y1="0.198" x2="0.722" y2="0.743" gradientUnits="objectBoundingBox"><stop offset="0" stop-color="#f57b61"/><stop offset="0.159" stop-color="#f57c62"/><stop offset="0.216" stop-color="#f58369"/><stop offset="0.257" stop-color="#f68e75"/><stop offset="0.289" stop-color="#f79d86"/><stop offset="0.3" stop-color="#f8a58e"/></linearGradient><linearGradient id="f" x1="0.364" y1="0.102" x2="0.663" y2="0.863" xlink:href="#a"/><linearGradient id="h" x1="0.381" y1="0.198" x2="0.722" y2="0.743" xlink:href="#e"/><clipPath id="i"><path class="a" d="M682.716-146.068c-2.76-1.664-5.054-.432-5.124,2.749a11.057,11.057,0,0,0,4.872,8.775c2.76,1.665,5.055.434,5.124-2.749A11.059,11.059,0,0,0,682.716-146.068Z" transform="translate(-677.591 146.81)"/></clipPath><clipPath id="j"><path class="a" d="M628.122-177.588c-2.761-1.664-5.055-.434-5.125,2.749a11.063,11.063,0,0,0,4.872,8.775c2.761,1.665,5.055.434,5.125-2.749A11.057,11.057,0,0,0,628.122-177.588Z" transform="translate(-622.996 178.33)"/></clipPath><linearGradient id="k" x1="0.538" y1="0.5" x2="0.904" y2="0.5" gradientUnits="objectBoundingBox"><stop offset="0.484" stop-color="#8b6b5a"/><stop offset="0.65" stop-color="#fff"/></linearGradient><radialGradient id="l" cx="0.51" cy="0.827" r="0.968" gradientTransform="translate(0.242) scale(0.515 1)" gradientUnits="objectBoundingBox"><stop offset="0" stop-color="#fdfeff"/><stop offset="0.168" stop-color="#f7f8f9"/><stop offset="0.483" stop-color="#f4f5f6"/><stop offset="1" stop-color="#f4f6f6"/></radialGradient><radialGradient id="m" cx="0.5" cy="0.5" r="0.5" gradientTransform="matrix(0.912, -0.41, 0.41, 0.912, -4.696, 4.99)" gradientUnits="objectBoundingBox"><stop offset="0" stop-color="#fff"/><stop offset="0.017" stop-color="#fff"/><stop offset="0.118" stop-color="#fff"/><stop offset="0.121" stop-color="#fbfbfb"/><stop offset="0.161" stop-color="#ccc"/><stop offset="0.203" stop-color="#a1a1a1"/><stop offset="0.251" stop-color="#7a7a7a"/><stop offset="0.302" stop-color="#595959"/><stop offset="0.358" stop-color="#3d3d3d"/><stop offset="0.42" stop-color="#262626"/><stop offset="0.493" stop-color="#151515"/><stop offset="0.581" stop-color="#090909"/><stop offset="0.701" stop-color="#010101"/><stop offset="1"/></radialGradient><radialGradient id="n" cx="0.5" cy="0.5" r="0.5" gradientTransform="translate(0)" xlink:href="#m"/><radialGradient id="o" cx="0.5" cy="0.5" r="0.5" gradientTransform="matrix(0.873, -0.488, 0.488, 0.873, -6.272, 5.334)" xlink:href="#m"/><radialGradient id="p" cx="0.5" cy="0.5" r="0.5" gradientTransform="matrix(0.873, -0.488, 0.488, 0.873, -5.799, 6.486)" xlink:href="#m"/><radialGradient id="q" cx="0.5" cy="0.5" r="0.5" gradientTransform="translate(-6.297 6.754) rotate(-29.241)" xlink:href="#m"/><radialGradient id="r" cx="0.5" cy="0.5" r="0.5" gradientTransform="matrix(0.873, -0.488, 0.488, 0.873, -4.91, 5.93)" xlink:href="#m"/><radialGradient id="s" cx="0.5" cy="0.5" r="0.5" gradientTransform="matrix(0.873, -0.488, 0.488, 0.873, -4.403, 6.535)" xlink:href="#m"/><radialGradient id="t" cx="0.5" cy="0.5" r="0.5" gradientTransform="matrix(0.873, -0.488, 0.488, 0.873, -6.507, 5.728)" xlink:href="#m"/><radialGradient id="u" cx="0.5" cy="0.5" r="0.5" gradientTransform="matrix(0.912, -0.411, 0.411, 0.912, -4.268, 5.238)" xlink:href="#m"/><clipPath id="v"><path class="a" d="M687.9-177l-5.455,6.053-6.616-4.491,7.2-8.1,3.679,2.556,1.315-.334Z" transform="translate(-675.827 183.535)"/></clipPath><linearGradient id="w" x1="-43.257" y1="-59.34" x2="-43.209" y2="-61.081" gradientUnits="objectBoundingBox"><stop offset="0.163"/><stop offset="0.237" stop-color="#161616"/><stop offset="0.769" stop-color="#b6b7b8"/><stop offset="1" stop-color="#f7f8f9"/></linearGradient><linearGradient id="x" x1="-36.873" y1="-54.02" x2="-36.833" y2="-55.606" xlink:href="#w"/><linearGradient id="y" x1="-49.548" y1="-63.792" x2="-49.494" y2="-65.663" xlink:href="#w"/><linearGradient id="z" x1="-56.437" y1="-68.019" x2="-56.375" y2="-70.014" xlink:href="#w"/><linearGradient id="aa" x1="3.665" y1="159.866" x2="3.695" y2="155.459" xlink:href="#w"/><linearGradient id="ab" x1="3.65" y1="100.698" x2="3.679" y2="97.927" xlink:href="#w"/><linearGradient id="ac" x1="3.678" y1="275.983" x2="3.708" y2="268.366" xlink:href="#w"/><linearGradient id="ad" x1="3.688" y1="730.597" x2="3.718" y2="710.411" xlink:href="#w"/></defs><g transform="translate(-612.498 217.732)"><g class="b" transform="translate(615.496 -180.916)"><path class="c" d="M644.66-136.862c1.8-.194,4.958-.5,6.4-2.352a2.068,2.068,0,0,0-.044-2.716,8,8,0,0,0-3.11-1.872,30.437,30.437,0,0,0-9.326-1.105,58.431,58.431,0,0,0-12.023,2.261c-2.262.8-4.647,1.307-5.729,3.726a5.548,5.548,0,0,0,1.671,6.5C627.452-128.985,636.441-135.973,644.66-136.862Z" transform="translate(-611.892 193.554)"/><path class="c" d="M743.806-139.391,632.122-185.967s-18.032,9.512-18.844,12.614c-.776,2.967,6.348,6.824,6.348,6.824l80.8,46.814c8.212,4.85,19.691,3.053,27.1-.826C748.738-131.653,747.9-136.474,743.806-139.391Z" transform="translate(-613.219 185.967)"/></g><g transform="translate(612.498 -217.732)"><g transform="translate(72.791)"><g transform="translate(0 5.16)"><g transform="translate(0 2.855)"><path class="d" d="M686.015-210.872c-.752,1.293-1.752,3.42-2.6,4.93L677.1-201.73a1.25,1.25,0,0,1-.867.19,4.015,4.015,0,0,1-1.3-.265,10.185,10.185,0,0,1-1.059-.55c-.338-.224-.883.457.043,1,.238.139.346.232.579.378.342.212-1.7,1.2-2.013,2.174a1.346,1.346,0,0,0,.821,1.917c.8.306,1.346-.121,2.595-.966a7.937,7.937,0,0,0,1.39-1.231,2.1,2.1,0,0,1,.687-.515c1.924-.851,7.276-3.377,7.586-3.832.492-.193,4.936-4.8,5.082-7.03C690.664-210.776,686.173-211.146,686.015-210.872Z" transform="translate(-672.36 210.968)"/></g><path class="e" d="M689.545-212.9c2.581,1.624-3.177,7.163-3.177,7.163s-4.3-2.771-3.315-4.043C684.449-211.591,686.965-214.528,689.545-212.9Z" transform="translate(-670.41 213.377)"/></g><g transform="translate(8.451 24.687)"><g transform="translate(0 25.762)"><path class="f" d="M679.741-171.734c.32-.531,1.54-.976,2.726-1.45a17.2,17.2,0,0,0,2.967-1.365c.06-.141.031-.322.136-.434a.442.442,0,0,1,.249-.105,4.09,4.09,0,0,1,2.514.342,2.882,2.882,0,0,1,.778.9,21.2,21.2,0,0,1-.066,2.12s-1.8.729-1.885.762c-.173.064-.23-.149-.377-.158a15.029,15.029,0,0,1-3.78,1.35c-.886.122-2.869.46-3.343-.568A1.537,1.537,0,0,1,679.741-171.734Z" transform="translate(-679.485 175.155)"/><g transform="translate(0 2.659)"><path class="g" d="M679.668-171.228c.474,1.028,2.456.69,3.343.569.771-.105,6.119-2.251,6.119-2.251a1.468,1.468,0,0,1-.077.861s-1.8.73-1.885.763c-.173.063-.23-.15-.377-.159a15.087,15.087,0,0,1-3.78,1.351c-.886.121-2.932.46-3.406-.569a1.308,1.308,0,0,1-.052-.924A1.813,1.813,0,0,0,679.668-171.228Z" transform="translate(-679.492 172.911)"/></g></g><g transform="translate(20.1 28.942)"><path class="f" d="M700.28-164.386a3.013,3.013,0,0,1-3.52.174c-.219-.2-.182-.443-.266-.809-.26-1.127.942-2.941,1.064-4.969a13.269,13.269,0,0,1-.011-1.511c.956-.557,3.384-1.462,4.033-.639.239.3.161,1.431.174,1.8C701.833-168.02,701.955-165.76,700.28-164.386Z" transform="translate(-696.456 172.471)"/><path class="g" d="M696.614-164.936a3.012,3.012,0,0,0,3.519-.174c1.677-1.374,1.553-3.634,1.475-5.958-.007-.193.011-.595-.006-.979a5.169,5.169,0,0,1,.156,1.761c.079,2.324.2,4.583-1.474,5.958a3.013,3.013,0,0,1-3.52.174,1.129,1.129,0,0,1-.276-.946A1.169,1.169,0,0,0,696.614-164.936Z" transform="translate(-696.451 172.55)"/></g><path class="h" d="M698.626-191.427c.268,2.834.6,5.621.778,7.952a8.419,8.419,0,0,0,.178,1.367,10.327,10.327,0,0,0,.476,1.341c1.36,3.442,2.448,9.784,3,13.419.194,1.276-4.056,1.993-4.442.5-.127-.486-2.053-8.74-3.068-10.952-.534-1.168-1.327-2.206-1.831-3.389a17.587,17.587,0,0,1-.788-2.626,60.188,60.188,0,0,0-2.459-7.586,8.206,8.206,0,0,1-.723-2.516l7.746-2.73A20.043,20.043,0,0,1,698.626-191.427Z" transform="translate(-677.595 196.943)"/><path class="h" d="M691.9-184.141a39.536,39.536,0,0,1-.613,4.581c-.872,3.943-2.371,8.959-2.511,9.831-.2,1.235-4.823.472-4.581-.89,0,0,1.646-14.1,1.664-14.313.042-.526.084-1.053.085-1.581,0-.7.056-1.595.1-2.289.2-2.972.319-5.687.6-8.1,2.178.1,6.586,3.8,6.708,5.153a6.421,6.421,0,0,1-.357,1.82C692.605-187.97,692.221-186.109,691.9-184.141Z" transform="translate(-678.624 196.897)"/></g><path class="e" d="M692.922-212.708c1.346.415,2.743.749,4.038,1.293a4.273,4.273,0,0,1,2.628,3.1,12.823,12.823,0,0,1-.966,6.446,16.312,16.312,0,0,0-.755,3.774,10.344,10.344,0,0,0,.146,2.751,9.228,9.228,0,0,0,.575,2.007c1.275,2.666-4.12,3.859-6.885,3.468-2.563-.36-5.356-1.089-5.276-3.684a31.76,31.76,0,0,0-.345-8.26c-.338-1.436-.911-2.814-1.166-4.267a20.077,20.077,0,0,1-.226-2.628l-.081-1.943a3.025,3.025,0,0,1,2.844-3.128A16.31,16.31,0,0,1,692.922-212.708Z" transform="translate(-670.096 218.46)"/><path class="i" d="M686.34-185.407l-1.48,1.284.18,3.49,1.315-.334Z" transform="translate(-670.049 223.708)"/><path class="j" d="M698.391-196.5c-1.049.229-2.018.532-3.043.851a14.08,14.08,0,0,0-1.749.566.625.625,0,0,0-.321.246l-9.119,12.95c-.169.249.978,1.017,1.128.816l8.139-11.543A10.423,10.423,0,0,1,698-194.48C698.708-194.67,698.665-196.558,698.391-196.5Z" transform="translate(-670.182 221.657)"/><g transform="translate(23.402 6.336)"><path class="d" d="M692.9-191.222a2.509,2.509,0,0,0,.688-1.347.668.668,0,0,0-.22-.571c-.134-.113-.312-.091-.47-.168a.945.945,0,0,1-.524-.949.269.269,0,0,1,.048-.13.222.222,0,0,1,.241-.049c.154.051.225.167.347.255a.835.835,0,0,0,.481.105,2.761,2.761,0,0,0,1.3-.327,29.2,29.2,0,0,0,4.741-5.569c-1.684-1.963-4.722-5.185-4.534-6.229.07-.389.795-.961,1.2-1.152l2.942-.937c.1.338,1.443,2.581,2.647,4.942,1.089,2.139,1.547,3.107,1.452,3.667a2.06,2.06,0,0,1-.424.816,10.926,10.926,0,0,1-.941,1.088c-1.025,1.07-2.14,2.052-3.237,3.046-.5.455-1,.91-1.494,1.379-.194.186-.385.374-.57.569a.45.45,0,0,0-.18.354,1.15,1.15,0,0,1-.188.691,1.347,1.347,0,0,1-.364.288,4.979,4.979,0,0,0-.549.5,3.628,3.628,0,0,1-.692.466,2.321,2.321,0,0,1-1.446.249,1.35,1.35,0,0,1-.652-.293.247.247,0,0,1-.095-.141c-.017-.1.079-.186.161-.251A2.9,2.9,0,0,0,692.9-191.222Z" transform="translate(-692.063 213.141)"/><path class="e" d="M699.976-206.688c.679,1.3-4.982,4.154-5.682,2.632-.235-.513-2.7-5.705-2.087-7.423a4.549,4.549,0,0,1-.069-.871,7.031,7.031,0,0,1,5.045,1.656A15.022,15.022,0,0,1,699.976-206.688Z" transform="translate(-692.111 212.384)"/></g><g transform="translate(13.3 0.191)"><path class="d" d="M692.229-207.627c-1.475.906-3.942-.223-4.811-.911-.231-.184.184-.313.12-.6a1.264,1.264,0,0,1,.143-.754,10.306,10.306,0,0,1,.9-1.651,3.051,3.051,0,0,1,.572-.677,3.569,3.569,0,0,1,.516-.333,2.62,2.62,0,0,1,.794-.339,2.291,2.291,0,0,1,1.092.134,10.145,10.145,0,0,1,1.658.808C695.043-210.655,693.1-208.16,692.229-207.627Z" transform="translate(-682.889 218.431)"/><path class="k" d="M690.009-207.743a3.351,3.351,0,0,1-1.73-.806,42.927,42.927,0,0,1,2.383-5.53,2.966,2.966,0,0,0,.421,1.621c.258.4.664.537,1.038.833C692.969-210.957,691.49-207.751,690.009-207.743Z" transform="translate(-682.718 218.216)"/><path class="d" d="M685.142-208.956a1.56,1.56,0,0,1,.43.3,1.1,1.1,0,0,1,.188.53l.139.819a.509.509,0,0,0,.158.348.536.536,0,0,0,.493-.021c.161-.059.364-.105.488.013.072.071.75,1.185,1.646.782,1.451-.653,3.217-4.187,3.025-6.832a4.9,4.9,0,0,0-.909-2.647,3.9,3.9,0,0,0-3.478-1.653,3.056,3.056,0,0,0-2.183,1.059,6.657,6.657,0,0,0-1.248,2.94,6.371,6.371,0,0,0,.751,3.905A1.443,1.443,0,0,0,685.142-208.956Z" transform="translate(-683.536 217.617)"/><path class="l" d="M690.321-210.16c-.5.588-1.043-.29-1.175-.5-.25-.4-.512-.312-.832-.045-1.848,1.539-3.138,1.161-3.984.615-.72-.467-.776-2.094-.736-2.773.1-1.7,1.017-4.578,3.939-4.7a4.905,4.905,0,0,1,2.9.877,4.555,4.555,0,0,1,1.4,2.551,5.817,5.817,0,0,1-.069,1.812c-.238.466-.457.483-.666.9A7.916,7.916,0,0,1,690.321-210.16Z" transform="translate(-683.585 217.57)"/><path class="d" d="M690.421-213.092a.614.614,0,0,1,.789.239c.294.616-.852,2.557-1.336,2.662C689.3-210.067,689.612-212.736,690.421-213.092Z" transform="translate(-682.476 218.388)"/></g><path class="j" d="M685.586-185.255l-3.679,2.037,3.679,2.556,1.021-3.981Z" transform="translate(-670.595 223.736)"/><g transform="translate(12.843)"><path class="m" d="M689.222-210.552c-1.083.488-4.724.435-5.61-.943,0,0-1.1-4.007,2.516-5.761a4.333,4.333,0,0,1,2.325-.456,3.969,3.969,0,0,1,3.344,3.3C691.96-213.809,690.615-211.181,689.222-210.552Z" transform="translate(-683.153 217.732)"/><path class="n" d="M683.477-209.193a4.377,4.377,0,0,0,3.122.6c1.991-.213,3.077-2.969,3.724-3.742-1.109.735-6.3,1.167-6.727-.309C683.6-212.646,682.789-209.674,683.477-209.193Z" transform="translate(-683.2 218.672)"/><path class="n" d="M685.508-215.765c.057.211.36.314.677.23s.525-.323.467-.536-.36-.315-.677-.23S685.449-215.977,685.508-215.765Z" transform="translate(-682.775 217.991)"/></g></g><g transform="translate(0 2.638)"><g transform="translate(104.745 6.773)"><g class="o"><path class="p" d="M712.189-209.789c-.232.273-5.492,6.468-6.734,7.927-.207.243-.344.4-.38.45a6.09,6.09,0,0,0-.8,1.454,16.689,16.689,0,0,0-.5,1.752c-1.56,5.657-3.767,16.838-3.935,17.442l-.019.117-.051.341a40.194,40.194,0,0,0,1.377,16.716,2.461,2.461,0,0,0,1.268,1.661,1.258,1.258,0,0,0,.139.045l.607.166c-.046-.013-.092-.027-.139-.045a2.461,2.461,0,0,1-1.268-1.661c-.944-3.121-.919-17.022-.919-17.022.168-.6,4.078-18.547,4.3-19.1s7.434-9.8,7.666-10.076Z" transform="translate(-699.425 209.789)"/><path class="q" d="M712.075-207.972l-.607-.166,1.874,12.057c-2.356,3.6-7.742,9.813-12.976,15.439l.607.166A22.77,22.77,0,0,0,714.32-195.2Z" transform="translate(-699.251 210.094)"/><path class="r" d="M712.7-209.649c-.232.273-5.492,6.468-6.734,7.927-.207.243-.344.4-.38.45a6.026,6.026,0,0,0-.8,1.454,16.414,16.414,0,0,0-.5,1.752c-1.56,5.657-3.767,16.838-3.935,17.442l-.019.117-.051.341a40.2,40.2,0,0,0,1.377,16.716,2.461,2.461,0,0,0,1.268,1.661,1.419,1.419,0,0,0,1.635-.512L715.8-175.714c-.237-8.112-.21-12.754-.7-20.131ZM701.053-180.2c.116-.442,1.328-8.551,3.9-17.824a5.508,5.508,0,0,1,1-2.369l6.2-7.3,1.867,12.051A109.53,109.53,0,0,1,701.053-180.2Z" transform="translate(-699.33 209.815)"/><path class="s" d="M700.612-170.778c.3,1.5.629,2.784.919,3.742a2.461,2.461,0,0,0,1.268,1.661,1.419,1.419,0,0,0,1.635-.512L715.672-179.3c-.16-5.141-.167-7.074-.271-10.944C712.7-183.044,703.372-173.678,700.612-170.778Z" transform="translate(-699.205 213.402)"/><path class="t" d="M709.366-189.374l2.39-3.125a1.647,1.647,0,0,0,.313-.8v-.988c.006-.224-.124-.228-.292-.009l-2.37,3.225a1.632,1.632,0,0,0-.312.8l-.022.89C709.068-189.159,709.2-189.154,709.366-189.374Z" transform="translate(-697.641 212.624)"/></g><path class="u" d="M700.879-180.5c.116-.442,1.328-8.551,3.9-17.824a5.509,5.509,0,0,1,1-2.369l6.2-7.3,1.867,12.051A109.531,109.531,0,0,1,700.879-180.5Z" transform="translate(-699.156 210.12)"/></g><g transform="translate(78.366 13.87)"><path class="v" d="M708.862-179.549l-3-2.322c-.279-.341-13.736-13.9-18.081-16.42l-9.549-5.507c-.22.332-.44.654-.64.954-.165.249-.344.488-.514.732l12.189,6.328c3.978,3.435,11.831,11.079,13.587,13.4,0,0,4.3,5.453-.277,18.657a3.41,3.41,0,0,1-2.076,2.072,3.541,3.541,0,0,1-1.211.214,3.449,3.449,0,0,1-.48-.063c-.082.517-.167,1.032-.249,1.563l-.065.423a34.337,34.337,0,0,0,5.247,1.405c1.226.213,2.911.459,4.059-.2,1.32-.757,1.852-2.372,2.225-3.724a24.849,24.849,0,0,0,.732-5.554C710.933-171.626,710.622-175.856,708.862-179.549Z" transform="translate(-677.081 203.799)"/></g><g transform="translate(18.496 3.546)"><path class="w" d="M711.271-163.426a3.452,3.452,0,0,1-1.873,1.658,3.529,3.529,0,0,1-1.21.214,3.537,3.537,0,0,1-1.767-.474L671.657-182.1a.274.274,0,0,1-.136-.206c-1.115-9.222-6.517-13.649-6.571-13.693a.276.276,0,0,1-.1-.216V-203.2c-.558.3-1.12.595-1.678.9-7.876,4.276-15.68,8.685-23.367,13.292-3.553,2.129-7.132,4.224-10.846,6.063l.627,2.93.874,3.59,4.464,4.511,2.5,8.007.953,2.209,39.166,22,36.242-21.49Z" transform="translate(-625.808 214.235)"/><path class="x" d="M678.527-200.5l-1.821,4.9,1.821,22.9.714-.412Z" transform="translate(-616.979 214.734)"/><path class="y" d="M679.982-203.621l-.238-.148-1.674-.967-13.642,23.37,16.369,9.451Z" transform="translate(-619.249 213.95)"/><path class="z" d="M678.138-204.694c-.082-.05-13.71,23.32-13.71,23.32l14.524,8.385Z" transform="translate(-619.249 213.958)"/><path class="aa" d="M664-200.407l1.339-5.044-.012-.085c.012-.025.012-1.07.012-1.07a.258.258,0,0,1,.155-.226.257.257,0,0,1,.02-.149,7.169,7.169,0,0,1,1.077-1.19l1.521-3.168s-8.262-1.532-13.3-1.094-18.641,9.073-18.641,9.073l-7.711,5.942-2.159,1.494,3.287,15.355C634.59-182.355,657.034-197.319,664-200.407Z" transform="translate(-626.299 212.513)"/><path class="ab" d="M665.956-210.771a3.486,3.486,0,0,0-2.181.22c-7.548,4.6-22.083,12.482-30.753,18.5l-2,20,40.425-23.339Z" transform="translate(-625.425 212.822)"/><path class="ab" d="M650.787-212.218l6.869,2.86.017,1.052,2.63-.735,4.228-1.93S660.577-212.559,650.787-212.218Z" transform="translate(-621.771 212.558)"/><g transform="translate(10.12 2.39)"><g transform="translate(2.459 21.474)"><path class="ac" d="M648.221-167.125l-11.306-6.528v-5.554l11.306,6.528Z" transform="translate(-636.915 194.807)"/><path class="ad" d="M673.477-181.31l-27.02,15.6v-5.554l27.02-15.6Z" transform="translate(-635.151 193.391)"/><path class="ae" d="M648.221-170.245l-11.306-6.528,27.02-15.6,11.306,6.528Z" transform="translate(-636.915 192.373)"/></g><g class="o"><path class="af" d="M677.1-185.854a4.322,4.322,0,0,0-.216-.724l-.064-.155a3.811,3.811,0,0,0-.634-.983A8.481,8.481,0,0,0,674-189.344c-.543-.313-1.135-.633-1.764-1-1.62-.936-6.725-3.627-8.34-4.467a.431.431,0,0,0-.417-.024l-27.44,15.891,13.184,10.5,27.44-15.889C677.052-184.553,677.253-185.086,677.1-185.854Z" transform="translate(-634.618 213.384)"/><path class="ag" d="M649.69-172.442a4.279,4.279,0,0,0-.216-.724,5.838,5.838,0,0,0-2.882-2.767c-.543-.313-1.135-.634-1.763-1-1.621-.935-6.728-3.626-8.342-4.466a.379.379,0,0,0-.6.344,3.982,3.982,0,0,0,2.254,4.014c1.11.642,3.418,1.658,4.586,2.332a38.344,38.344,0,0,1,4.921,3.428,2.808,2.808,0,0,0,.348.242C649.066-170.417,649.971-171.037,649.69-172.442Z" transform="translate(-634.648 215.863)"/><path class="ah" d="M666.342-195.835c-2.075-10.566-.882-10.675-1.432-12.732a2.915,2.915,0,0,0-.145-.411,2.931,2.931,0,0,0-.478-.748,2.564,2.564,0,0,0-.64-.532,1.132,1.132,0,0,0-1.075-.158l-27.44,15.891,4.093,19.629,27.44-15.889a.223.223,0,0,0,.092-.2A23.174,23.174,0,0,0,666.342-195.835Z" transform="translate(-634.786 210.495)"/><path class="ag" d="M638.956-182.424c-2.075-10.567-.882-10.675-1.433-12.732a2.822,2.822,0,0,0-1.262-1.691c-.664-.384-1.335-.355-1.389.476-.211,3.587.649,9.375,1.011,13.351a29.625,29.625,0,0,1,.248,3.661.682.682,0,0,0,.308.553l2.622,1.409c.172.1.309.014.31-.184A23.181,23.181,0,0,0,638.956-182.424Z" transform="translate(-634.84 212.975)"/></g></g><g transform="translate(29.123 14.025)"><g transform="translate(18.024)"><g transform="translate(2.458 22.882)"><path class="ac" d="M679.47-163.329l-11.306-6.528v-5.554l11.306,6.528Z" transform="translate(-668.164 182.465)"/><path class="ad" d="M689.924-170.3l-12.218,7.054V-168.8l12.218-7.054Z" transform="translate(-666.4 182.383)"/><path class="ae" d="M679.47-167.783l-11.306-6.528,12.218-7.054,11.306,6.528Z" transform="translate(-668.164 181.364)"/></g><g class="o" transform="translate(0 1.409)"><path class="ai" d="M693.546-174.846a4.242,4.242,0,0,0-.216-.724c-.02-.052-.041-.1-.064-.154a3.8,3.8,0,0,0-.633-.983,8.49,8.49,0,0,0-2.185-1.628c-.543-.314-1.135-.634-1.763-1-1.62-.935-6.727-3.627-8.342-4.467a.427.427,0,0,0-.417-.023l-12.637,7.344,13.184,10.5,12.638-7.344C693.5-173.545,693.7-174.078,693.546-174.846Z" transform="translate(-665.867 202.375)"/><path class="ag" d="M680.939-168.646a4.3,4.3,0,0,0-.217-.724,5.835,5.835,0,0,0-2.88-2.767c-.543-.313-1.136-.634-1.764-1-1.62-.935-6.727-3.626-8.34-4.466a.379.379,0,0,0-.6.344,3.979,3.979,0,0,0,2.252,4.014c1.111.642,3.418,1.658,4.587,2.332a38.411,38.411,0,0,1,4.921,3.428,2.728,2.728,0,0,0,.348.242C680.314-166.622,681.22-167.24,680.939-168.646Z" transform="translate(-665.898 203.521)"/><path class="aj" d="M682.788-184.828c-2.075-10.566-.882-10.675-1.431-12.732a2.808,2.808,0,0,0-.146-.41,2.939,2.939,0,0,0-.476-.749,2.585,2.585,0,0,0-.641-.531,1.129,1.129,0,0,0-1.075-.158l-12.637,7.344,4.091,19.629,12.638-7.344a.223.223,0,0,0,.092-.2A23.1,23.1,0,0,0,682.788-184.828Z" transform="translate(-666.035 199.487)"/><path class="ag" d="M670.2-178.628c-2.074-10.567-.882-10.675-1.431-12.732a2.832,2.832,0,0,0-1.262-1.691c-.665-.384-1.335-.355-1.389.476-.211,3.588.649,9.375,1.011,13.351a29.879,29.879,0,0,1,.248,3.661.679.679,0,0,0,.308.553l2.622,1.409c.172.1.309.014.31-.184A23.192,23.192,0,0,0,670.2-178.628Z" transform="translate(-666.089 200.633)"/></g><g transform="translate(3.509 3.69)"><path class="ag" d="M671.307-193.526l5.4-3.115a3.344,3.344,0,0,0-1.963-.921l-5.689,3.306c.207-.105.473-.2,1.049.28C670.886-193.315,671.307-193.526,671.307-193.526Z" transform="translate(-669.051 197.562)"/></g><g class="o" transform="translate(3.699)"><path class="ak" d="M676.558-199.524a.877.877,0,0,0-.077-.329,1.15,1.15,0,0,0-.19-.291,1.624,1.624,0,0,0-.4-.321,1.147,1.147,0,0,0-1.062-.127l-5.055,2.939,1.647,4.477,5.055-2.937a.556.556,0,0,0,.206-.566C676.581-197.824,676.573-198.928,676.558-199.524Z" transform="translate(-669.106 200.676)"/><path class="ag" d="M671.607-197.045a1.2,1.2,0,0,0-.662-.941c-.437-.252-.97-.3-1.2-.008a4.839,4.839,0,0,0-.53,2.66,1.248,1.248,0,0,0,.553.925l1.254.724c.43.248.763,0,.713-.518C671.63-195.345,671.622-196.449,671.607-197.045Z" transform="translate(-669.211 201.134)"/></g></g><g transform="translate(11.78 27.611)"><path class="ag" d="M683.725-157.125l-22.906-13.225,2.727-4.733,20.179,11.65Z" transform="translate(-660.819 177.797)"/><path class="al" d="M683.3-163.008l-20.179-11.65,4.7-2.715L688-165.723Z" transform="translate(-660.394 177.374)"/></g><path class="am" d="M667.323-176.35l-3.384,1.954a.339.339,0,0,0,0,.642l7.481,4.32a1.235,1.235,0,0,0,1.113,0l3.384-1.954a.339.339,0,0,0,0-.642l-7.481-4.32A1.234,1.234,0,0,0,667.323-176.35Zm8.435,4.413a.242.242,0,0,1,0,.457l-3.384,1.954a.881.881,0,0,1-.793,0l-7.481-4.32a.241.241,0,0,1,0-.457l3.384-1.954a.876.876,0,0,1,.794,0Z" transform="translate(-648.505 205.149)"/><g transform="translate(0 10.406)"><g transform="translate(2.459 22.882)"><path class="ac" d="M664.259-154.547l-11.306-6.528v-5.554l11.306,6.528Z" transform="translate(-652.953 173.683)"/><path class="ad" d="M674.713-161.519l-12.218,7.054v-5.554l12.218-7.054Z" transform="translate(-651.189 173.6)"/><path class="ae" d="M664.259-159l-11.306-6.528,12.218-7.054,11.306,6.528Z" transform="translate(-652.953 172.582)"/></g><g class="o" transform="translate(0 1.409)"><path class="an" d="M678.335-166.062a4.19,4.19,0,0,0-.216-.724c-.02-.053-.042-.1-.064-.155a3.79,3.79,0,0,0-.634-.983,8.462,8.462,0,0,0-2.184-1.628c-.543-.313-1.135-.634-1.763-1-1.621-.935-6.727-3.627-8.342-4.466a.428.428,0,0,0-.417-.024L652.078-167.7l13.185,10.5,12.637-7.345C678.289-164.763,678.488-165.3,678.335-166.062Z" transform="translate(-650.655 193.593)"/><path class="ag" d="M665.727-159.864a4.221,4.221,0,0,0-.216-.724,5.833,5.833,0,0,0-2.882-2.767c-.543-.313-1.135-.633-1.763-1-1.62-.936-6.727-3.627-8.342-4.467a.379.379,0,0,0-.6.344,3.982,3.982,0,0,0,2.254,4.016c1.11.641,3.418,1.656,4.587,2.331a38.4,38.4,0,0,1,4.921,3.428,2.734,2.734,0,0,0,.348.242C665.1-157.84,666.008-158.458,665.727-159.864Z" transform="translate(-650.685 194.739)"/><path class="aj" d="M667.577-176.044c-2.075-10.567-.882-10.675-1.433-12.732a2.76,2.76,0,0,0-.145-.411,2.962,2.962,0,0,0-.477-.749,2.559,2.559,0,0,0-.64-.531,1.129,1.129,0,0,0-1.075-.158l-12.638,7.344,4.093,19.63L667.9-171a.223.223,0,0,0,.092-.2A23.169,23.169,0,0,0,667.577-176.044Z" transform="translate(-650.823 190.705)"/><path class="ag" d="M654.993-169.847c-2.075-10.566-.882-10.675-1.431-12.732a2.829,2.829,0,0,0-1.263-1.691c-.664-.383-1.334-.355-1.389.476-.211,3.588.65,9.375,1.012,13.353a30.09,30.09,0,0,1,.248,3.661.679.679,0,0,0,.308.553l2.622,1.408c.171.1.309.014.309-.182A23.1,23.1,0,0,0,654.993-169.847Z" transform="translate(-650.877 191.851)"/></g><g transform="translate(3.51 3.69)"><path class="ag" d="M656.1-184.744l5.4-3.115a3.352,3.352,0,0,0-1.965-.921l-5.687,3.306c.206-.105.473-.2,1.049.28C655.674-184.533,656.1-184.744,656.1-184.744Z" transform="translate(-653.84 188.78)"/></g><g class="o" transform="translate(3.7)"><path class="ao" d="M661.346-190.742a.9.9,0,0,0-.076-.329,1.125,1.125,0,0,0-.191-.291,1.55,1.55,0,0,0-.4-.32,1.144,1.144,0,0,0-1.062-.128l-5.055,2.939,1.648,4.478,5.055-2.939a.558.558,0,0,0,.206-.566C661.369-189.042,661.361-190.146,661.346-190.742Z" transform="translate(-653.895 191.894)"/><path class="ag" d="M656.4-188.262a1.2,1.2,0,0,0-.662-.942c-.437-.252-.971-.3-1.2-.007a4.825,4.825,0,0,0-.53,2.659,1.248,1.248,0,0,0,.553.925l1.254.724c.429.248.763.006.712-.518C656.42-186.562,656.411-187.667,656.4-188.262Z" transform="translate(-654 192.352)"/></g></g></g></g><path class="ap" d="M674.549-150.82c-1.507.876-1.729,9.594-.769,12.04l4.215-2.5a4.8,4.8,0,0,1,4.838-.031l15.656,9.009s-6.92-22.984-5.411-23.861Z" transform="translate(-599.393 225.655)"/><path class="aq" d="M674.549-150.82c-1.507.876-1.729,9.594-.769,12.04l4.215-2.5a4.8,4.8,0,0,1,4.838-.031l15.656,9.009s-6.92-22.984-5.411-23.861Z" transform="translate(-599.393 225.655)"/><path class="aq" d="M619.352-183.514c-1.507.876-1.729,9.594-.769,12.04l4.215-2.5a4.8,4.8,0,0,1,4.838-.031L643.292-165s-7.338-18.74-5.83-19.616Z" transform="translate(-609.336 220.843)"/><g transform="translate(11.691 37.294)"><g transform="translate(64.688 37.348)"><g class="o"><path class="aq" d="M693.577-143.016a19.04,19.04,0,0,0-3.058-4.809,14.016,14.016,0,0,0-3.453-2.907c-2.2-1.269-4.187-1.386-5.625-.551l-4.347,2.526,11.2,19.256,4.347-2.526c1.418-.825,2.3-2.578,2.306-5.069A14.858,14.858,0,0,0,693.577-143.016Z" transform="translate(-674.791 151.816)"/><path class="ar" d="M683.078-148.6c-4.364-2.52-7.914-.5-7.928,4.511s3.512,11.123,7.877,13.643,7.914.5,7.928-4.518S687.443-146.08,683.078-148.6Z" transform="translate(-675.15 152.211)"/></g><path class="as" d="M682.723-146.484c-3.132-1.808-5.678-.357-5.689,3.236a12.459,12.459,0,0,0,5.652,9.79c3.132,1.808,5.678.357,5.689-3.242A12.452,12.452,0,0,0,682.723-146.484Z" transform="translate(-674.802 152.658)"/><g class="o" transform="translate(2.583 5.53)"><path class="at" d="M680.047-146.9l.224-.012,1.435.161s.31.044.094.1c-1.032.278-1.717,1.289-1.751,2.87a9.337,9.337,0,0,0,4.115,7.411c1.414.853,2.684.806,3.477.036.158-.153-.1.371-.1.371l-.468.835c-.838,1.492-2.6,1.813-4.608.6a11.057,11.057,0,0,1-4.872-8.775C677.642-145.565,678.378-146.952,680.047-146.9Z" transform="translate(-677.281 147.193)"/><path class="au" d="M682.772-146.362a11.744,11.744,0,0,1,5.173,9.319c-.073,3.379-2.51,4.686-5.441,2.918a11.74,11.74,0,0,1-5.173-9.318C677.4-146.822,679.841-148.129,682.772-146.362Zm-.008.357c-2.76-1.664-5.054-.432-5.124,2.749a11.057,11.057,0,0,0,4.872,8.775c2.76,1.665,5.054.434,5.123-2.749a11.058,11.058,0,0,0-4.872-8.775Z" transform="translate(-677.329 147.149)"/></g><g transform="translate(2.892 5.933)"><g class="av"><g class="o" transform="translate(1.62 -0.054)"><path class="aw" d="M683.662-146.155a10.087,10.087,0,0,1,4.351,8.051c-.1,2.9-2.2,4-4.7,2.454a10.084,10.084,0,0,1-4.35-8.052C679.057-146.6,681.162-147.7,683.662-146.155Z" transform="translate(-678.958 146.855)"/><path class="au" d="M683.073-144.817a7.42,7.42,0,0,1,3.2,5.924c-.071,2.134-1.62,2.942-3.459,1.8a7.416,7.416,0,0,1-3.2-5.924C679.686-145.146,681.234-145.954,683.073-144.817Z" transform="translate(-678.837 147.137)"/><path class="at" d="M679.621-143.3v-.078c.071-2.136,1.459-3.09,3.221-2.372a4.416,4.416,0,0,1,.667.344,8.032,8.032,0,0,1,2.859,3.417,7.346,7.346,0,0,1,.739,3.242c-.079,2.4-1.82,3.307-3.888,2.029l-.405-.248c1.839,1.138,3.388.329,3.459-1.8a6.528,6.528,0,0,0-.658-2.884,7.153,7.153,0,0,0-2.544-3.04,3.987,3.987,0,0,0-.594-.306c-1.568-.639-2.8.21-2.865,2.11l0,.069Z" transform="translate(-678.837 147.016)"/></g></g></g></g><g class="o"><path class="aq" d="M638.983-174.536a19.018,19.018,0,0,0-3.058-4.809,14.061,14.061,0,0,0-3.453-2.907c-2.2-1.269-4.189-1.386-5.625-.551l-4.347,2.526,11.2,19.254,4.347-2.526c1.418-.823,2.3-2.577,2.3-5.068A14.853,14.853,0,0,0,638.983-174.536Z" transform="translate(-620.197 183.336)"/><path class="ar" d="M628.484-180.12c-4.365-2.52-7.914-.5-7.928,4.511s3.512,11.123,7.876,13.643,7.914.5,7.928-4.518S632.848-177.6,628.484-180.12Z" transform="translate(-620.556 183.731)"/></g><path class="as" d="M628.129-178c-3.133-1.808-5.679-.357-5.689,3.236a12.454,12.454,0,0,0,5.651,9.79c3.133,1.808,5.679.357,5.69-3.242A12.455,12.455,0,0,0,628.129-178Z" transform="translate(-620.208 184.178)"/><g class="o" transform="translate(2.581 5.53)"><path class="at" d="M625.452-178.421l.224-.013,1.435.162s.312.044.095.1c-1.033.278-1.718,1.289-1.752,2.87a9.342,9.342,0,0,0,4.115,7.411c1.415.853,2.684.806,3.476.036.159-.153-.1.371-.1.371l-.469.835c-.838,1.491-2.6,1.813-4.608.6A11.063,11.063,0,0,1,623-174.82C623.047-177.084,623.784-178.472,625.452-178.421Z" transform="translate(-622.686 178.713)"/><path class="au" d="M628.178-177.882a11.746,11.746,0,0,1,5.173,9.318c-.075,3.381-2.511,4.687-5.441,2.92a11.744,11.744,0,0,1-5.174-9.318C622.811-178.342,625.247-179.649,628.178-177.882Zm-.008.357c-2.761-1.664-5.055-.434-5.125,2.749A11.063,11.063,0,0,0,627.918-166c2.761,1.665,5.055.434,5.125-2.749a11.06,11.06,0,0,0-4.872-8.775Z" transform="translate(-622.735 178.669)"/></g><g transform="translate(2.891 5.932)"><g class="ax"><g class="o" transform="translate(1.62 -0.054)"><path class="aw" d="M629.067-177.675a10.08,10.08,0,0,1,4.351,8.051c-.1,2.9-2.2,4-4.7,2.454a10.086,10.086,0,0,1-4.351-8.053C624.464-178.123,626.568-179.221,629.067-177.675Z" transform="translate(-624.363 178.375)"/><path class="au" d="M628.478-176.336a7.416,7.416,0,0,1,3.2,5.924c-.071,2.134-1.62,2.942-3.459,1.8a7.421,7.421,0,0,1-3.2-5.924C625.09-176.666,626.639-177.475,628.478-176.336Z" transform="translate(-624.242 178.657)"/><path class="at" d="M625.026-174.821l0-.077c.071-2.136,1.459-3.09,3.221-2.372a4.634,4.634,0,0,1,.667.342,8.05,8.05,0,0,1,2.859,3.418,7.34,7.34,0,0,1,.739,3.242c-.081,2.4-1.821,3.307-3.888,2.029l-.406-.248c1.839,1.137,3.388.329,3.459-1.8a6.53,6.53,0,0,0-.658-2.884,7.137,7.137,0,0,0-2.544-3.04,3.977,3.977,0,0,0-.592-.306c-1.569-.639-2.8.21-2.866,2.11v.069Z" transform="translate(-624.242 178.536)"/></g></g></g></g><path class="ay" d="M635.154-169.267a49.092,49.092,0,0,1-.525,6.128l46.327,26.794v-6.612Z" transform="translate(-606.386 223.232)"/><path class="q" d="M653.346-178.27l-.047.569a.394.394,0,0,1-.21.319.4.4,0,0,1-.184.045.4.4,0,0,1-.2-.053l-20.9-12.063a.4.4,0,0,1-.193-.276.4.4,0,0,1,.089-.323,16.624,16.624,0,0,1,5.769-4.158,14.324,14.324,0,0,1,5.847-1.314c.09,0,.174.019.263.021a13.955,13.955,0,0,0-5.262,1.257,16.335,16.335,0,0,0-5.631,4.055Z" transform="translate(-606.905 218.961)"/><g transform="translate(73.295 34.148)"><path class="az" d="M691.051-186.043c-2.849.974-5.575,3.85-6.078,6.408s1.408,3.849,4.256,2.873,5.576-3.851,6.078-6.409S693.9-187.018,691.051-186.043Zm-.058.809c.175-.06.337-.089.5-.129l-1.3,3.993-3.209-.869A8.946,8.946,0,0,1,690.993-185.234Zm3.661,2.47c-.432,2.2-2.779,4.676-5.229,5.513s-4.093-.27-3.661-2.47a5.875,5.875,0,0,1,.866-1.991l3.959,1.071,1.576-4.839C693.935-185.64,695.012-184.587,694.654-182.763Z" transform="translate(-670.544 186.369)"/><path class="d" d="M705.456-182.928l-2.7-1.361a1.088,1.088,0,0,0-.862-.053,94.228,94.228,0,0,0-29.114,17.72,10.622,10.622,0,0,1,1.579,4.266,2.166,2.166,0,0,1,1.271-.045c.072-.021,23.528-8.012,29.261-18.764C705.755-182.1,705.843-182.144,705.456-182.928Z" transform="translate(-672.783 186.731)"/><path class="d" d="M697.589-183.578c-.871,3.74-6.414,6.458-12.7,6.428a14.96,14.96,0,0,1,4.966-5.61C694.416-185.506,697.589-183.578,697.589-183.578Z" transform="translate(-670.544 186.763)"/></g><path class="ba" d="M673.195-145.1a3.745,3.745,0,0,1-1.087.645,3.809,3.809,0,0,1-1.3.23,3.8,3.8,0,0,1-1.9-.51l-17.932-10.352a.265.265,0,0,1-.131-.251l2.424-35.769a.258.258,0,0,1,.146-.22.262.262,0,0,1,.252.006l.688.393L651.987-156a.262.262,0,0,0,.132.25l17.933,10.354a3.8,3.8,0,0,0,1.9.509A3.833,3.833,0,0,0,673.195-145.1Z" transform="translate(-603.429 219.525)"/><path class="bb" d="M747.656-150.228a1.134,1.134,0,0,0-.255-.664c-.247-.289-.538-.467-.544-.542a16.221,16.221,0,0,0-.861-4.287,30.926,30.926,0,0,0-5.262-8.215,22.792,22.792,0,0,0-3.276-3.078l-11.5-8.851c-.474.217-.935.46-1.391.715a64.865,64.865,0,0,1,15.237,18.172c-6.9,9.107-20.077,12.072-20.077,12.072a80.461,80.461,0,0,1-29.037-16.1c-.5.121-.932.211-1.263.259,0,0-.684.937-3.074-2.259a111.958,111.958,0,0,1-6.235-10.778c-1.465-2.717-3.138-5.288-5.041-9.332-2.023-4.3-23.519-18.624-27.422-15.527a2.806,2.806,0,0,1-1.5.634l-15.763-.069c-.158,0-7.781-1.019-10.518-5.173a.8.8,0,0,0-1.12-.176q-.588.414-1.16.83a4.669,4.669,0,0,0-1.956,3.252.287.287,0,0,1,.275-.032c.7.665,1.106,1.168,2.107,2.112a2.311,2.311,0,0,1,.623,1.884c-.319,1.675-.723,3.954-1.425,4.587-.671.606-1.648.034-2.649-.635-.043.812-.031,1.357-.031,1.357s-3.215.746-3.527,1.165c-.693.931-.131,11.363.4,12.418,2.086,4.145,8.5,8.194,8.5,8.194.338-5.132,2.377-14.453,10.939-9.5.1.055.191.111.288.17,4.518,2.77,8.1,9,8.357,14.317l45.675,26.236c.252-5.281,4.1-7.326,8.73-4.671.1.055.195.113.293.173,4.51,2.76,9.651,9.99,9.741,21.486,8.074,3.3,18.036.9,26.558-3.253,8.866-4.319,15.417-9.738,16.959-14.038a4.121,4.121,0,0,0,.207-1.368C747.675-140.917,747.718-149.3,747.656-150.228Zm-91.015-26.278-20.835-11.948a16.261,16.261,0,0,1,5.614-4.016,12.712,12.712,0,0,1,9.4-.643,11.055,11.055,0,0,1,1.887.866l5,2.913Zm24.922,31.513a3.721,3.721,0,0,1-2.229,2.213,3.821,3.821,0,0,1-1.3.228,3.807,3.807,0,0,1-1.893-.5L658.26-153.31a.262.262,0,0,1-.131-.249l2.417-35.427a.256.256,0,0,1,.145-.218.263.263,0,0,1,.252.006c10.024,5.712,11.01,5.96,12.255,7.552.977,1.2,8.756,16.961,8.841,18.54A27.667,27.667,0,0,1,681.563-144.993Z" transform="translate(-610.689 217.709)"/><path class="t" d="M655.59-191.238l-5.363-3.074a14.164,14.164,0,0,0-3.843-1.623,13.682,13.682,0,0,0-8.261.466,24.324,24.324,0,0,0-3.7,1.889,10.824,10.824,0,0,0-3.205,2.763,1.1,1.1,0,0,0-.214.473v12.115a.41.41,0,0,0,.153.316c.053.043,5.417,4.454,6.524,13.606a.393.393,0,0,0,.2.3l15.162,8.753a.118.118,0,0,0,.064.018.117.117,0,0,0,.06-.015.122.122,0,0,0,.068-.1l2.424-35.763A.129.129,0,0,0,655.59-191.238Zm-2.6,35.662L638-164.228a.141.141,0,0,1-.072-.109c-1.119-9.262-6.563-13.733-6.619-13.778a.149.149,0,0,1-.054-.115v-12.115a.826.826,0,0,1,.136-.276,10.608,10.608,0,0,1,3.16-2.742,24.329,24.329,0,0,1,3.661-1.867,13.4,13.4,0,0,1,8.1-.455,13.917,13.917,0,0,1,3.777,1.595l5.3,3.036Z" transform="translate(-607.018 218.727)"/><path class="bc" d="M682.385-149.281c3.147,1.784,6.168,3.459,8.735,4.825a6.2,6.2,0,0,0-.873-.093,4.415,4.415,0,0,0-4.044,2.138,5.739,5.739,0,0,0-.405.78l-.035.08c-.06.144-.115.294-.165.448-.041.123-.08.247-.116.376-.029.108-.058.218-.083.33-.014.061-.024.127-.036.189a9.554,9.554,0,0,0-.188,1.467l-6.421-3.683L639.5-164.94c-.019-.366-.052-.718-.1-1.073-.015-.122-.039-.244-.058-.366-.037-.241-.075-.483-.124-.725-.028-.144-.064-.287-.1-.431-.051-.224-.1-.448-.165-.671-.04-.151-.086-.3-.131-.454q-.1-.325-.207-.65c-.052-.154-.106-.306-.162-.458-.08-.217-.164-.431-.253-.646-.06-.15-.12-.3-.185-.447-.1-.22-.2-.438-.3-.656-.066-.139-.13-.278-.2-.416-.119-.237-.247-.469-.376-.7-.063-.115-.123-.231-.188-.343q-.3-.515-.619-1.011-.3-.464-.631-.909c-.289-.394-.6-.771-.91-1.138-.078-.091-.157-.182-.238-.272a16.735,16.735,0,0,0-2.036-1.947c-.091-.072-.181-.142-.272-.211a12.962,12.962,0,0,0-1.1-.769c-.063-.039-.123-.074-.183-.109l-.107-.063c-.312-.18-.612-.336-.907-.479l-.064-.029a8.285,8.285,0,0,0-3.132-.887,5.128,5.128,0,0,0-.67.008c-.066,0-.129.016-.194.023-.13.015-.26.033-.385.057-.073.015-.143.035-.213.053-.112.028-.223.059-.331.095-.071.023-.141.049-.209.076-.1.041-.2.084-.3.132-.065.032-.131.063-.195.1-.1.053-.194.111-.288.171-.058.036-.117.073-.173.111-.1.072-.2.148-.3.226-.044.036-.09.069-.132.107-.132.115-.26.236-.382.364-.144.15-.268.3-.387.445l-.077.1c-.09.118-.178.239-.263.365-.033.048-.064.1-.094.148-.076.116-.149.234-.22.356-.031.054-.061.109-.091.164-.069.123-.135.248-.2.377-.027.053-.053.107-.079.161-.066.138-.13.279-.191.421-.019.047-.039.091-.059.138-.07.166-.136.336-.2.507-.008.022-.018.045-.026.068a18.469,18.469,0,0,0-.755,2.787c-.115.582-.2,1.157-.272,1.709-.071.568-.121,1.109-.154,1.609,0,0-.059-.036-.145-.093l-.093-.061-.122-.081-.17-.115-.167-.113-.222-.154-.195-.137c-.092-.064-.19-.135-.291-.206l-.208-.15c-.115-.083-.237-.173-.359-.265-.069-.05-.133-.1-.2-.15-.2-.148-.4-.3-.61-.466s-.451-.357-.684-.548c-.307-.252-.623-.523-.938-.8-.079-.069-.157-.139-.236-.211-.324-.289-.646-.588-.962-.9-.266-.261-.525-.532-.776-.806-.078-.084-.152-.172-.229-.258-.174-.2-.341-.393-.5-.593-.08-.1-.16-.2-.238-.3-.156-.2-.3-.4-.441-.606-.064-.094-.131-.186-.191-.279a9.836,9.836,0,0,1-.517-.888,1.519,1.519,0,0,1-.089-.271c-.012-.043-.022-.1-.034-.148-.018-.081-.035-.17-.053-.27-.014-.077-.027-.155-.041-.241s-.028-.191-.041-.292-.031-.207-.045-.325c-.054-.439-.106-.946-.154-1.5-.033-.394-.063-.771-.09-1.163-.03-.447-.056-.908-.079-1.371l-.014-.3c-.022-.469-.041-.94-.054-1.4q-.016-.508-.021-1v-.06c0-.342-.006-.676,0-.994,0-.622.021-1.172.053-1.638,0-.06.009-.109.014-.164.009-.123.021-.237.033-.345.011-.09.021-.18.033-.26a3.615,3.615,0,0,1,.082-.411.853.853,0,0,1,.1-.247.464.464,0,0,1,.148-.123,2.169,2.169,0,0,1,.269-.136c.139-.061.306-.124.489-.187.285-.1.539-.175.794-.248.211-.062.423-.121.625-.175l.378-.1.529-.134.3-.072s-.012-.541.007-1.38c1.024.694,2,1.264,2.673.66a4.588,4.588,0,0,0,.894-2.05c4.709,5.39,10.471,10,16.7,14.947,6.972,5.3,14.831,10.7,23.854,16.353l-.539,7.939a.261.261,0,0,0,.131.248l17.88,10.239a3.811,3.811,0,0,0,1.893.5,3.827,3.827,0,0,0,1.3-.227,3.72,3.72,0,0,0,2.229-2.209C681.831-147.378,682.119-148.269,682.385-149.281Zm65.286-2.272c-15.4,15.282-29.721,24.816-51.767,9.564.26.219.516.455.772.7.1.1.207.207.31.312.145.146.289.3.434.45s.271.3.405.456c.1.113.195.229.291.345.164.2.327.4.489.611l.071.1a23.691,23.691,0,0,1,2.929,5.158c.022.052.044.105.065.158a27.631,27.631,0,0,1,.994,2.849c.059.205.115.414.17.622.224.844.424,1.715.585,2.631.047.273.086.557.126.838.156,1.055.272,2.15.332,3.3.03.556.056,1.113.06,1.691.578.236,1.167.435,1.763.613.188.056.378.1.567.154.419.113.842.214,1.269.3.214.043.428.084.643.121.431.075.866.135,1.3.184.195.022.388.049.582.067.627.055,1.257.094,1.894.1.592.008,1.189,0,1.786-.036l.061,0q.875-.047,1.756-.143c.959-.105,1.922-.255,2.887-.443.678-.132,1.353-.277,2.026-.444q.858-.214,1.71-.465,1.707-.5,3.386-1.132c.749-.28,1.489-.584,2.224-.9l.545-.234c.725-.319,1.447-.646,2.156-.99q1.662-.809,3.21-1.664c.487-.268.962-.54,1.43-.814.15-.088.3-.177.444-.266.312-.186.624-.374.926-.563.171-.107.338-.213.506-.32.273-.173.543-.348.807-.523q.257-.169.507-.34c.254-.172.5-.346.75-.518.161-.114.321-.227.479-.341.245-.177.483-.355.72-.532.145-.11.292-.219.434-.328.252-.195.494-.389.735-.585.112-.091.229-.183.339-.274.346-.286.68-.573,1-.859.676-.606,1.293-1.209,1.843-1.806.214-.232.41-.462.6-.69q.241-.292.467-.58c.171-.22.333-.438.488-.656.164-.234.325-.47.465-.7a9.262,9.262,0,0,0,.807-1.658,4.111,4.111,0,0,0,.207-1.366l0-.58v-.125c0-.166,0-.35,0-.543,0-.082,0-.17,0-.257,0-.069,0-.132,0-.2v-.139c0-.267,0-.551,0-.845,0-.247,0-.5,0-.761,0-.321,0-.653,0-.987v-.313c0-.272,0-.545,0-.818v-.3c0-.25,0-.5,0-.745v-.366c0-.267,0-.527,0-.784C747.689-148.244,747.671-151.488,747.671-151.553Z" transform="translate(-610.689 219.4)"/><path class="bd" d="M623.232-181.563c-4.714-4.106-7.957-7.253-8.723-8.359l.008-3.319s-3.491,2.434-3.555,2.559A116.738,116.738,0,0,0,623.232-181.563Z" transform="translate(-610.638 219.376)"/><path class="t" d="M726.023-150.092c-4.766,4.954-11.961,9.026-18.738,11.8a.3.3,0,0,0-.191.282l-.009,3.948a.307.307,0,0,0,.361.31c2.914-.619,16.489-8.306,18.925-11.781a1.086,1.086,0,0,0,.181-.627v-3.723A.306.306,0,0,0,726.023-150.092Z" transform="translate(-593.264 226.759)"/><g transform="translate(113.76 64.934)"><path class="ad" d="M710.275-143.271a61.175,61.175,0,0,0-3.242-8.415c3.7-1.141,11.232-5.665,13.723-8.47.922,3.1,1.639,5.08,2.813,8.294A42.228,42.228,0,0,1,710.275-143.271Z" transform="translate(-707.033 160.156)"/><path class="be" d="M722.458-152.637c.057.155.111.3.169.466a37.915,37.915,0,0,1-3.412,2.859A72.452,72.452,0,0,1,711.6-144.8c-.341.154-.682.313-1.024.455l-.066-.2c-.058-.169-.108-.32-.162-.481A65.114,65.114,0,0,0,722.458-152.637Zm-2.207-6.472c-.284.229-.579.461-.891.7A46.693,46.693,0,0,1,707.8-151.6c.123.258.236.5.346.748a51.2,51.2,0,0,0,12.38-7.362C720.436-158.5,720.344-158.8,720.25-159.109Zm-11.013,10.9q.144.389.29.8a50.158,50.158,0,0,0,12.121-7.47c-.092-.264-.185-.525-.275-.786A49.914,49.914,0,0,1,709.237-148.206Zm-.681-1.719c.119.278.231.555.34.829a50.448,50.448,0,0,0,12.195-7.395q-.139-.412-.279-.838A50.12,50.12,0,0,1,708.555-149.925Zm1.258,3.337c.085.246.175.511.265.777a67.631,67.631,0,0,0,12.112-7.558c-.09-.248-.179-.494-.265-.733A48.167,48.167,0,0,1,709.814-146.588Z" transform="translate(-706.891 160.35)"/></g><path class="bf" d="M733.206-157.586c0-.113-.009-.228-.015-.325a1.148,1.148,0,0,0-.256-.671c-.248-.291-.539-.47-.545-.547,0-.038-.008-.073-.012-.11-14.375,20.984-41.3,20.7-41.3,20.758,0,.012,1.331.809,4.743.925C712.03-137.006,730.564-150.855,733.206-157.586Z" transform="translate(-596.224 225.086)"/><path class="bg" d="M707.446-134.985a.306.306,0,0,1-.36-.307v.716a.308.308,0,0,0,.361.31c2.914-.619,16.489-8.306,18.925-11.781a1.086,1.086,0,0,0,.181-.627v-.719a1.081,1.081,0,0,1-.181.627C723.935-143.29,710.36-135.6,707.446-134.985Z" transform="translate(-593.264 227.276)"/><path class="bh" d="M643.608-197.359a1.523,1.523,0,0,1-1.053.416l-13.345-.136a.245.245,0,0,1-.218-.358c1.419-2.7,18.437-13.45,26.085-14.632a3.582,3.582,0,0,1,.564-.04,76.853,76.853,0,0,1,10.97.7C660.831-210.206,650.8-204.117,643.608-197.359Z" transform="translate(-607.397 216.133)"/><path class="bi" d="M741.82-158.53a18.783,18.783,0,0,0-2.262-2.819,22.886,22.886,0,0,0-3.275-3.108l-19.625-15.257c-.278-.341-13.693-13.9-18.024-16.42L676.056-209.2c-5.168-2.993-17.369-2.927-18.091-2.838-.654.081-5.1-2.768-12.557-3.461a5.441,5.441,0,0,0-2.366.461c-8.238,3.3-24.961,13.48-24.961,13.48-.058.039-.118.079-.175.12-.224.158-.446.316-.667.474a.651.651,0,0,0,.031,1.062c4.2,2.847,6.875,4.5,11.925,4.58,4.689.077,14.612-.014,18.623.809,3.66.752,24.064,12.2,26.294,15.36,1.983,2.814,8.579,15.033,12.507,22.41a30.9,30.9,0,0,0,10.123,11.256c2.066,1.372,4.172,2.643,5.966,3.659a14.417,14.417,0,0,0,7.135,1.847c17.476-.032,28.632-11.211,31.936-16.289A2.127,2.127,0,0,0,741.82-158.53Zm-96.088-38.2a1.516,1.516,0,0,1-1.05.416l-13.3-.136a.245.245,0,0,1-.217-.358c1.415-2.7,18.378-13.45,26-14.632a3.561,3.561,0,0,1,.562-.04,76.368,76.368,0,0,1,10.935.7C662.9-209.578,652.9-203.489,645.733-196.732Zm66.719,22.384A64,64,0,0,1,687.6-160.525a2.575,2.575,0,0,1-3.031-1.135L675.2-178.9a.224.224,0,0,1,.122-.316c15.41-5.6,23.958-13.591,25.071-14.674a.194.194,0,0,1,.263,0c4.643,3.958,9.039,8.139,14.019,13.153C716.315-179.091,714.008-175.737,712.452-174.348Z" transform="translate(-609.526 215.505)"/><path class="t" d="M636.628-183.222l-3.711-2.143a.759.759,0,0,1-.367-.577v-.806c0-.2.165-.271.367-.154l3.711,2.142a.763.763,0,0,1,.366.578v.8C636.995-183.174,636.83-183.106,636.628-183.222Z" transform="translate(-606.725 220.494)"/><path class="au" d="M637.174-184.925l-4.626-2.671c-.132-.076-.239-.031-.239.1v.525a.5.5,0,0,0,.239.378l4.626,2.671c.133.076.239.031.239-.1v-.526A.5.5,0,0,0,637.174-184.925Z" transform="translate(-606.769 220.376)"/><g class="bj" transform="translate(9.022 0.412)"><path class="t" d="M629.633-197.273c-.075-.018-7.052-1.647-11.33-4.623l.242-.146c4.023,2.756,10.374,4.333,11.082,4.5a78.091,78.091,0,0,1,14.7-9.961,65.634,65.634,0,0,1,10.154-4.46,44.421,44.421,0,0,0-12.009-2.967c.132-.053.278-.121.405-.171.06-.025.113-.037.172-.059a49.292,49.292,0,0,1,11.858,3.091.125.125,0,0,1,.077.124.126.126,0,0,1-.089.117,64.6,64.6,0,0,0-10.386,4.512A78.14,78.14,0,0,0,629.747-197.3a.127.127,0,0,1-.085.032Z" transform="translate(-618.303 215.157)"/></g><path class="bk" d="M703.645-177.712a64.264,64.264,0,0,1-24.931,13.823,2.587,2.587,0,0,1-3.04-1.135l-9.4-17.24a.223.223,0,0,1,.122-.316c15.459-5.6,24.034-13.591,25.15-14.674a.2.2,0,0,1,.264,0c4.658,3.958,9.068,8.139,14.063,13.153C707.521-182.455,705.207-179.1,703.645-177.712Z" transform="translate(-600.686 218.603)"/><path class="bl" d="M702.151-184.2c-4.755-4.773-8.984-8.782-13.4-12.57-.126,5.475-2.189,26.565-2.356,28.239a65.964,65.964,0,0,0,13.521-9.275C701.481-179.2,703.8-182.554,702.151-184.2Z" transform="translate(-596.985 218.714)"/><path class="bm" d="M705.876-184.106c-5-5.014-9.406-9.2-14.063-13.152a.194.194,0,0,0-.264,0c-1.116,1.083-9.691,9.077-25.15,14.674a.225.225,0,0,0-.123.316l9.4,17.24a2.586,2.586,0,0,0,3.039,1.135,64.258,64.258,0,0,0,24.932-13.823C705.207-179.1,707.521-182.455,705.876-184.106Zm-2.815,5.4a64.351,64.351,0,0,1-25.1,13.92,2.542,2.542,0,0,1-.668.09,1.838,1.838,0,0,1-1.684-.929l-8.935-16.7c14.6-5.377,23.191-12.881,25.056-14.619,4.3,3.672,8.231,7.318,13.569,12.679a1.384,1.384,0,0,1,.385,1.084C705.641-181.66,704.123-179.651,703.061-178.706Z" transform="translate(-600.686 218.603)"/><g transform="translate(129.165 57.947)"><path class="bn" d="M724.122-166.138c1.214,2.813-1.485,6.011-3.78,7.9-.673.555-.1,3.237.376,4,.839,1.361,4.348-2.732,5.226-5.229C726.756-161.773,724.324-166.16,724.122-166.138Z" transform="translate(-720.035 166.138)"/><path class="bo" d="M720.342-158.237c-.572.472-.241,2.475.162,3.537,1.341-.558,3.563-3.485,4.348-5.392a7.786,7.786,0,0,0-.246-5.336c-.244-.444-.434-.714-.485-.71C725.336-163.326,722.637-160.127,720.342-158.237Z" transform="translate(-720.035 166.138)"/><path class="bp" d="M721.248-156.981a2.5,2.5,0,0,1-.735,1.6c-.044-.058-.081-.141-.124-.2a8.247,8.247,0,0,1-.333-1.638,1.532,1.532,0,0,1,.637-.846C721.084-158.232,721.332-157.744,721.248-156.981Zm3.139-6.138a2.032,2.032,0,0,0-.8,1.581c-.078.739.158,1.219.526,1.071a2.06,2.06,0,0,0,.8-1.585C724.98-162.778,724.749-163.255,724.387-163.118Zm-2.1,5.192a2.161,2.161,0,0,0,.829-1.641c.079-.744-.16-1.226-.536-1.078a2.134,2.134,0,0,0-.838,1.636C721.657-158.251,721.9-157.766,722.284-157.926Z" transform="translate(-720.031 166.692)"/><path class="bq" d="M724.122-166.138c1.214,2.813-1.485,6.011-3.78,7.9-.673.555-.1,3.237.376,4,.839,1.361,4.348-2.732,5.226-5.229C726.756-161.773,724.324-166.16,724.122-166.138Z" transform="translate(-720.035 166.138)"/></g><g transform="translate(95.86 75.504)"><path class="bn" d="M708.326-151.159a34.943,34.943,0,0,1-12.632,2.133c.008.192.976,4.905,1.169,5.381,3.7-.146,9.112-1.049,12.578-2.911a1.368,1.368,0,0,0,.649-1.389C709.939-149.2,709.471-151.593,708.326-151.159Z" transform="translate(-691.155 151.211)"/><path class="bo" d="M708.854-147.254a1.289,1.289,0,0,0,.653-1.348,8.812,8.812,0,0,0-.639-2.516,35.6,35.6,0,0,1-16.4,1.8.46.46,0,0,0-.514.275c-.3.91.2,2.5.8,3.668C695.009-144.608,703.91-144.869,708.854-147.254Z" transform="translate(-691.863 151.228)"/><path class="bp" d="M707.432-149.091a1.553,1.553,0,0,1-1.191,1.542c-.639.079-1.14-.483-1.12-1.256a1.551,1.551,0,0,1,1.191-1.543C706.951-150.426,707.453-149.864,707.432-149.091Zm-4.962-.233a1.551,1.551,0,0,0-1.192,1.542c-.019.773.482,1.335,1.12,1.257a1.554,1.554,0,0,0,1.192-1.543C703.609-148.841,703.108-149.4,702.47-149.324Zm-4.026.483a1.552,1.552,0,0,0-1.191,1.542c-.02.773.481,1.335,1.12,1.256a1.551,1.551,0,0,0,1.191-1.542C699.584-148.357,699.083-148.92,698.444-148.841Z" transform="translate(-690.867 151.369)"/><path class="bq" d="M708.28-151.159a34.887,34.887,0,0,1-12.337,2.135,19.651,19.651,0,0,0,.4,2.466c.2.832.974,2.889.974,2.889,3.672-.2,8.763-1.108,12.075-2.888a1.368,1.368,0,0,0,.649-1.389C709.893-149.2,709.425-151.593,708.28-151.159Z" transform="translate(-691.109 151.211)"/><path class="br" d="M696.784-149.323a32.379,32.379,0,0,1-4.317-.275.46.46,0,0,0-.514.275c-.447,1.359.874,4.248,1.7,4.977.422.371,2.164.506,4.442.377A44.805,44.805,0,0,1,696.784-149.323Z" transform="translate(-691.863 151.508)"/></g><g transform="translate(3.696 17.911)"><path class="bs" d="M617.464-197.824c-1-.954-1.648-1.755-2.352-2.427-1.6.711-1.348,3.66-1.174,6.889.025.473,1.813,1.494,3.225,1.248a22.575,22.575,0,0,0,.925-3.808A2.343,2.343,0,0,0,617.464-197.824Z" transform="translate(-613.809 200.251)"/><path class="br" d="M613.9-194.558c.017.52.065,1.053.083,1.574,1,.675,1.983,1.252,2.656.641a2.657,2.657,0,0,0,.578-1.014C616.388-193,614.071-194.167,613.9-194.558Z" transform="translate(-613.791 201.304)"/></g><path class="bh" d="M652.845-177.79l-20.9-12.063a16.31,16.31,0,0,1,5.631-4.055,12.671,12.671,0,0,1,9.431-.649,11.1,11.1,0,0,1,1.893.874l5.009,2.941Z" transform="translate(-606.845 219.022)"/><path class="bm" d="M674.619-187.57l3.242.474a1.909,1.909,0,0,0,1.2-.217c.846-.468,2.441-1.372,3.39-2.049a1.352,1.352,0,0,0,.564-1.055l.095-2.154A51.083,51.083,0,0,1,674.619-187.57Z" transform="translate(-599.103 219.509)"/><path class="bt" d="M731.146-164.581a18.788,18.788,0,0,0-2.269-2.819,22.921,22.921,0,0,0-3.286-3.108l-15.825-12.265L676.86-160.917a30.706,30.706,0,0,0,9.064,9.382c2.072,1.372,4.185,2.643,5.985,3.659a14.5,14.5,0,0,0,7.158,1.847c17.532-.032,28.723-11.211,32.037-16.289A2.121,2.121,0,0,0,731.146-164.581Z" transform="translate(-598.852 221.053)"/><path class="bu" d="M712.076-195.051l-3.14,4.134a.892.892,0,0,0-.161.468l0,.559c0,.141.073.159.163.04l3.14-4.134a.914.914,0,0,0,.161-.468l0-.559C712.238-195.151,712.166-195.169,712.076-195.051Z" transform="translate(-592.951 219.062)"/><g transform="translate(8.002 0.617)"><g class="bv" transform="translate(57.299 30.262)"><g transform="translate(11.187 11.248)"><path class="bw" d="M670.508-183.3c-3.713-1.042-6.743-1.691-6.743-1.691s2.924,1.029,6.632,2.084c-1.042,3.712-1.69,6.742-1.69,6.742s1.029-2.922,2.084-6.631c3.712,1.04,6.742,1.691,6.742,1.691s-2.922-1.031-6.631-2.085c1.04-3.712,1.69-6.742,1.69-6.742S671.561-187.012,670.508-183.3Z" transform="translate(-660.716 192.959)"/><circle class="bx" cx="9.175" cy="9.175" r="9.175" transform="matrix(0.996, -0.087, 0.087, 0.996, 0, 1.602)"/></g><path class="by" d="M657.5-167.475a21.044,21.044,0,0,0,28.747,7.7,21.045,21.045,0,0,0,7.7-28.748,21.043,21.043,0,0,0-28.746-7.7A21.042,21.042,0,0,0,657.5-167.475Z" transform="translate(-654.679 199.044)"/></g><g transform="translate(101.367 76.553)"><path class="bw" d="M709.886-143.226c-2.808-.787-5.1-1.277-5.1-1.277s2.211.778,5.016,1.576c-.788,2.807-1.279,5.1-1.279,5.1s.778-2.21,1.576-5.014c2.807.787,5.1,1.278,5.1,1.278s-2.21-.78-5.014-1.577c.787-2.807,1.278-5.1,1.278-5.1S710.682-146.03,709.886-143.226Z" transform="translate(-703.058 149.949)"/><path class="bz" d="M716.323-146.132a6.939,6.939,0,0,1-2.666,9.444,6.938,6.938,0,0,1-9.444-2.665,6.94,6.94,0,0,1,2.666-9.445A6.939,6.939,0,0,1,716.323-146.132Z" transform="translate(-703.328 149.683)"/></g><g transform="translate(75.803 14.45)"><path class="bw" d="M688.2-196.2c-2.807-.787-5.1-1.278-5.1-1.278s2.21.78,5.016,1.576c-.788,2.808-1.279,5.1-1.279,5.1s.778-2.211,1.576-5.016c2.807.787,5.1,1.278,5.1,1.278s-2.21-.78-5.014-1.576c.787-2.808,1.279-5.1,1.279-5.1S688.994-199.005,688.2-196.2Z" transform="translate(-681.37 202.925)"/><path class="ca" d="M694.635-199.108a6.939,6.939,0,0,1-2.666,9.444,6.938,6.938,0,0,1-9.444-2.665,6.937,6.937,0,0,1,2.666-9.444A6.938,6.938,0,0,1,694.635-199.108Z" transform="translate(-681.64 202.658)"/></g><g transform="translate(102.733)"><path class="bw" d="M711.038-208.526c-2.807-.788-5.1-1.278-5.1-1.278s2.21.778,5.014,1.576c-.787,2.807-1.279,5.1-1.279,5.1s.78-2.21,1.576-5.014c2.808.787,5.1,1.279,5.1,1.279s-2.211-.78-5.016-1.576c.787-2.808,1.279-5.1,1.279-5.1S711.835-211.331,711.038-208.526Z" transform="translate(-704.211 215.251)"/><path class="cb" d="M717.475-211.434a6.938,6.938,0,0,1-2.665,9.444,6.938,6.938,0,0,1-9.444-2.665,6.938,6.938,0,0,1,2.665-9.444A6.938,6.938,0,0,1,717.475-211.434Z" transform="translate(-704.481 214.984)"/></g><g transform="translate(27.502 44.408)"><path class="bw" d="M647.291-170.647c-2.807-.787-5.1-1.277-5.1-1.277s2.21.778,5.014,1.576c-.787,2.807-1.278,5.1-1.278,5.1s.78-2.21,1.577-5.014c2.807.787,5.1,1.278,5.1,1.278s-2.21-.78-5.014-1.577c.787-2.807,1.277-5.1,1.277-5.1S648.088-173.451,647.291-170.647Z" transform="translate(-640.464 177.37)"/><path class="cc" d="M653.727-173.553a6.938,6.938,0,0,1-2.665,9.444,6.938,6.938,0,0,1-9.444-2.666,6.938,6.938,0,0,1,2.665-9.444A6.939,6.939,0,0,1,653.727-173.553Z" transform="translate(-640.734 177.104)"/></g><g transform="translate(0 11.96)"><path class="bw" d="M624-198.433c-2.807-.787-5.1-1.279-5.1-1.279s2.21.78,5.014,1.576c-.787,2.808-1.278,5.1-1.278,5.1s.78-2.211,1.577-5.016c2.807.788,5.1,1.278,5.1,1.278s-2.21-.778-5.014-1.576c.787-2.807,1.277-5.1,1.277-5.1S624.8-201.237,624-198.433Z" transform="translate(-617.173 205.157)"/><path class="cd" d="M630.437-201.34a6.939,6.939,0,0,1-2.665,9.445,6.939,6.939,0,0,1-9.444-2.666A6.938,6.938,0,0,1,620.993-204,6.938,6.938,0,0,1,630.437-201.34Z" transform="translate(-617.443 204.89)"/></g><g transform="translate(114.223 55.316)"><path class="bw" d="M720.736-161.341c-2.808-.787-5.1-1.279-5.1-1.279s2.211.78,5.016,1.576c-.788,2.808-1.279,5.1-1.279,5.1s.779-2.211,1.576-5.016c2.807.788,5.1,1.278,5.1,1.278s-2.21-.778-5.014-1.576c.787-2.807,1.279-5.1,1.279-5.1S721.532-164.145,720.736-161.341Z" transform="translate(-713.908 168.065)"/><path class="ce" d="M727.173-164.248a6.94,6.94,0,0,1-2.666,9.445,6.94,6.94,0,0,1-9.444-2.666,6.938,6.938,0,0,1,2.666-9.444A6.938,6.938,0,0,1,727.173-164.248Z" transform="translate(-714.178 167.798)"/></g><g transform="translate(23.534 12.933)"><path class="bw" d="M644.416-197.126c-2.807-.788-5.1-1.279-5.1-1.279s2.21.778,5.014,1.576c-.787,2.807-1.279,5.1-1.279,5.1s.78-2.21,1.577-5.014c2.807.787,5.1,1.279,5.1,1.279s-2.21-.78-5.014-1.577c.787-2.807,1.279-5.1,1.279-5.1S645.213-199.932,644.416-197.126Z" transform="translate(-637.015 204.426)"/><circle class="cf" cx="6.939" cy="6.939" r="6.939" transform="matrix(0.996, -0.087, 0.087, 0.996, 0, 1.204)"/></g></g></g><g transform="translate(76.936 40.149)"><g class="cg"><g transform="translate(0.835 -0.237)"><path class="ch" d="M684.758-183.475l-7.364,8.4,3.487,2.583,5.729-10.258A4.176,4.176,0,0,1,684.758-183.475Z" transform="translate(-676.371 183.783)"/><path class="ci" d="M684.48-183.735l-7.949,7.949,5.546,4.109,5.237-11.021A4.172,4.172,0,0,1,684.48-183.735Z" transform="translate(-676.531 183.735)"/><path class="cj" d="M685-183.292l-6.992,8.726,2.017,1.494,6.044-9.78A4.169,4.169,0,0,1,685-183.292Z" transform="translate(-676.257 183.817)"/><path class="ck" d="M685.226-183.152l-6.685,9.024.761.563,6.327-9.419A4.138,4.138,0,0,1,685.226-183.152Z" transform="translate(-676.159 183.843)"/></g></g></g><g transform="translate(12.978 24.827)"><g transform="translate(41.168 26.881)"><path class="cl" d="M656.448-169.912q.155.761.255,1.544l18.586,1.861.1-5.51Z" transform="translate(-656.375 173.653)"/><path class="cm" d="M656.386-170.006a21.606,21.606,0,0,1,.378,2.28l18.508,3.091.155-8.763Z" transform="translate(-656.386 173.398)"/><path class="cn" d="M656.5-169.778q.082.444.146.895l18.649,1.039.057-3.187Z" transform="translate(-656.364 173.835)"/><path class="co" d="M656.542-169.659c.02.113.038.225.056.338l18.712.331.021-1.2Z" transform="translate(-656.357 173.991)"/></g><path class="i" d="M653.884-169.117l.2-1.123,4.393,1.157L658-167.511Z" transform="translate(-615.681 200.863)"/><path class="d" d="M642.114-168.141a1.9,1.9,0,0,0,.145.506c.029.066.052.128.081.192a2.6,2.6,0,0,1,1.164-.046c1.014.191,1.834.284,2.86.38,0,0-1.247-1.551-.635-1.547.308,0,.616.009.924.019,1.2.039,1.081-.7.627-.685a11.448,11.448,0,0,1-1.332-.11c-.654-.057-1.07-.517-1.678-.672a1.868,1.868,0,0,0-.187-.028c-.779-1.915-3.7-8.274-3.7-8.274.1-1.935.419-4.545.478-6.218a.336.336,0,0,0-.632-.169c-1.19,2.2-3.726,7.01-3.376,7.486.021.615,3.584,6.2,4.9,8.151A2.442,2.442,0,0,1,642.114-168.141Z" transform="translate(-618.836 198.14)"/><g transform="translate(0 0.389)"><g transform="translate(0 29.907)"><g transform="translate(17.7 28.829)"><path class="f" d="M647.094-142.357c-.359-.594-1.724-1.094-3.051-1.622a19.346,19.346,0,0,1-3.32-1.529c-.068-.158-.034-.36-.153-.486a.491.491,0,0,0-.277-.118,4.587,4.587,0,0,0-2.815.385,3.207,3.207,0,0,0-.87,1.008,23.494,23.494,0,0,0,.073,2.371s2.011.816,2.11.853c.192.072.256-.167.422-.177a16.772,16.772,0,0,0,4.23,1.511c.992.136,3.21.515,3.74-.635A1.715,1.715,0,0,0,647.094-142.357Z" transform="translate(-636.575 146.185)"/><g transform="translate(0 2.975)"><path class="g" d="M647.188-141.79c-.53,1.151-2.748.771-3.739.635-.864-.117-6.849-2.519-6.849-2.519a1.646,1.646,0,0,0,.087.964s2.011.816,2.11.853c.192.071.256-.168.422-.178a16.783,16.783,0,0,0,4.23,1.512c.992.135,3.281.514,3.812-.636a1.473,1.473,0,0,0,.058-1.034A2.075,2.075,0,0,1,647.188-141.79Z" transform="translate(-636.58 143.674)"/></g></g><g transform="translate(0.03 32.388)"><path class="f" d="M623.369-134.134a3.372,3.372,0,0,0,3.94.194c.966-.883-.709-3.423-.892-6.467a14.819,14.819,0,0,0,.012-1.69c-1.071-.623-3.787-1.636-4.513-.716-.268.34-.181,1.6-.2,2.011C621.631-138.2,621.495-135.672,623.369-134.134Z" transform="translate(-621.666 143.182)"/><path class="g" d="M627.468-134.75a3.372,3.372,0,0,1-3.939-.194c-1.876-1.538-1.738-4.067-1.649-6.667.007-.216-.013-.666.006-1.095a5.793,5.793,0,0,0-.175,1.97c-.088,2.6-.225,5.129,1.651,6.667a3.372,3.372,0,0,0,3.939.194,1.263,1.263,0,0,0,.308-1.058A1.145,1.145,0,0,1,627.468-134.75Z" transform="translate(-621.667 143.27)"/></g><path class="h" d="M626.614-164.393c-.3,3.171-.674,6.291-.871,8.9a9.6,9.6,0,0,1-.2,1.53,11.54,11.54,0,0,1-.533,1.5c-1.521,3.851-2.741,10.947-3.361,15.016-.218,1.428,4.538,2.23,4.972.559.141-.544,2.3-9.781,3.431-12.256.6-1.307,1.486-2.469,2.05-3.792a19.919,19.919,0,0,0,.882-2.939,67.091,67.091,0,0,1,2.751-8.489,9.166,9.166,0,0,0,.809-2.815l-8.669-3.056A22.438,22.438,0,0,0,626.614-164.393Z" transform="translate(-621.642 170.568)"/><path class="h" d="M633.415-156.239a44.075,44.075,0,0,0,.685,5.126c.976,4.411,2.653,10.025,2.809,11,.223,1.382,5.4.528,5.127-1,0,0-1.842-15.776-1.861-16.017-.047-.589-.094-1.179-.1-1.769,0-.78-.062-1.784-.112-2.562-.219-3.325-.357-6.364-.672-9.06-2.438.109-7.37,4.248-7.506,5.767a7.145,7.145,0,0,0,.4,2.037C632.627-160.525,633.057-158.442,633.415-156.239Z" transform="translate(-619.767 170.516)"/></g><path class="e" d="M633.306-188.208c-1.506.463-3.069.838-4.518,1.446a4.787,4.787,0,0,0-2.941,3.468c-.3,1.653-.085,3.984,1.081,7.214a18.259,18.259,0,0,1,.845,4.224,11.6,11.6,0,0,1-.164,3.078,10.35,10.35,0,0,1-.643,2.247c-1.427,2.982,4.61,4.318,7.705,3.88,2.867-.4,5.993-1.218,5.9-4.122-.095-3.093-.324-6.232.385-9.243.379-1.607,1.02-3.149,1.306-4.775a22.169,22.169,0,0,0,.252-2.941l.091-2.174a3.385,3.385,0,0,0-3.183-3.5A18.218,18.218,0,0,0,633.306-188.208Z" transform="translate(-620.887 196.928)"/><path class="e" d="M637.268-189.417c-3.411,0,2.13,6.507,2.13,6.507l-.04.944s2.225-.136,2.171-1.173C641.394-185.691,640.68-189.417,637.268-189.417Z" transform="translate(-618.958 196.929)"/><g transform="translate(9.81)"><path class="d" d="M636.35-189.267c-1.652.63-3.339.925-6.054,1.908a.571.571,0,0,0-.287.841c1.212,1.912,3.243,4,5.434,3.162a3.212,3.212,0,0,0,1.985-3.933A8.985,8.985,0,0,0,636.35-189.267Z" transform="translate(-629.921 196.956)"/><path class="k" d="M633.362-190.856l-2.4,4.091a2.868,2.868,0,0,0,.727,1.583,3.266,3.266,0,0,0,3.09,1.587,1.289,1.289,0,0,0,1.047-.885l.15-.462Z" transform="translate(-629.729 196.663)"/><path class="d" d="M634.488-195.171c-1.786.694-3.1,1.965-2.682,5.384.323,2.63,2.537,5.291,4.508,6.719.487.353,1.986.733,2.467-.4a18.948,18.948,0,0,0,1.4-6.229c.017-1.972-.056-3.661-1.56-4.873A3.767,3.767,0,0,0,634.488-195.171Z" transform="translate(-629.588 195.8)"/><path class="l" d="M634.912-188.456c.427-2.519,3.57-.776,5.274-2.48a3.915,3.915,0,0,0-1.543-3.826,3.993,3.993,0,0,0-4.279-.653c-1.786.694-3.19,2.1-2.684,5.671.037.263.438,2.324.919,2.324.3-.07.077-1.166.126-1.473a.585.585,0,0,1,1.008-.38,1.208,1.208,0,0,1,.321.645c.036.225-.058.476.07.679C634.334-187.62,634.779-187.664,634.912-188.456Z" transform="translate(-629.615 195.757)"/></g></g><path class="j" d="M638.5-171.178a10.833,10.833,0,0,0-1.873,1.264c-.975.7-1.9,1.365-2.808,2.151a12.141,12.141,0,0,0-1.206,1.128.509.509,0,0,0,.06.719,12.216,12.216,0,0,0,1.487,1.043,2.412,2.412,0,0,0,1.556.341,6.6,6.6,0,0,0,1.486-.365c1.81-.7,4.551-3.452,5.859-4.875C643.17-169.889,639.069-171.369,638.5-171.178Zm-.552,4.6a6.04,6.04,0,0,1-2.112,1.023,2.141,2.141,0,0,1-1.3-.528c.008-.214,4.482-3.571,4.482-3.571s2.37.083,2.34.15A42.993,42.993,0,0,1,637.949-166.581Z" transform="translate(-619.636 200.687)"/><g transform="translate(2.446 10.339)"><path class="d" d="M639.778-167.216c-1.654,1.267-3.142.38-2.9-.091a.541.541,0,0,1,.209-.18,1.048,1.048,0,0,0,.406-1.409.288.288,0,0,0-.1-.115.251.251,0,0,0-.27.051c-.139.118-.162.268-.254.41a.932.932,0,0,1-.454.313,3.086,3.086,0,0,1-1.485.206,32.672,32.672,0,0,1-7.261-3.776c.919-2.745,2.713-7.364,2.079-8.369a2.816,2.816,0,0,0-1.734-.686l-3.446.268c.042.391-.409,3.282-.662,6.238-.229,2.675-.3,3.872.038,4.413.848,1.369,7.843,3.364,10.092,4.475.391.177,1.443.89,2.564,1.492a2.623,2.623,0,0,0,1.882-.3,4.3,4.3,0,0,0,1.282-1.168c.052-.092.082-.2.125-.294.076-.165.194-.308.267-.476C640.309-166.588,640.042-167.417,639.778-167.216Z" transform="translate(-623.706 188.56)"/><path class="e" d="M624.042-178.188c-.159,1.629,6.915,2.209,7,.337.027-.63.4-7.052-.962-8.575a5.048,5.048,0,0,0-.3-.932,7.869,7.869,0,0,0-4.532,3.843A16.808,16.808,0,0,0,624.042-178.188Z" transform="translate(-623.645 187.359)"/></g><g transform="translate(11.608)"><path class="m" d="M635.371-189.038c1.2.207,4.839-.645,5.166-2.293a4.8,4.8,0,0,0-5.842-4.686c-3.7.661-3.238,4.825-3.238,4.825C631.527-190.553,634.34-189.216,635.371-189.038Z" transform="translate(-631.438 196.085)"/><path class="n" d="M642.06-190.353a7.555,7.555,0,0,0-2.976,1.194,3.183,3.183,0,0,1-2.929.2c-.722-.308-1.594-.725-2.5-1.219,1.335.284,6.6-.517,6.455-2.088C640.107-192.263,642.888-190.45,642.06-190.353Z" transform="translate(-631.029 196.792)"/><path class="n" d="M635.9-195.48c0,.156-.273.282-.608.282s-.607-.126-.607-.282.271-.282.607-.282S635.9-195.635,635.9-195.48Z" transform="translate(-630.839 196.145)"/></g><path class="j" d="M657.944-170.46l-20.047-.754a.763.763,0,0,0-.808.75.781.781,0,0,0,.75.808l19.15.719S658.281-170.443,657.944-170.46Z" transform="translate(-618.786 200.683)"/><path class="d" d="M642.614-168.368a6.238,6.238,0,0,0,1.933.155c.4-.041,1.045-.209.981-1.23l-.486-.039a4.14,4.14,0,0,0-.564-1.115.567.567,0,0,0-.6-.019,1.168,1.168,0,0,1-.335.167c-.19.028-.4-.129-.589-.147a.863.863,0,0,0-.59.166c-.06.045-.083.047-.161-.015-.277-.222-.626-.123-.656.235a1.823,1.823,0,0,0,.145.764A1.844,1.844,0,0,0,642.614-168.368Z" transform="translate(-617.962 200.78)"/><path class="j" d="M654.086-170.487l4.13-.729.233,2.315-4.439-.492Z" transform="translate(-615.657 200.683)"/></g><g transform="translate(42.131 50.447)"><path class="q" d="M674.021-167.662l-25.963,7.973v1.228l27.028-8.4Z" transform="translate(-646.069 175.72)"/><path class="ba" d="M646.77-170.874l.14-.109-.322-.281-.14.109-.068.154.1,32.06.322.281-.1-32.06Z" transform="translate(-646.379 175.054)"/><path class="p" d="M675.385-166.611l-.322-.282c-.732-.373-14.662-7.479-15.12-7.537a4.42,4.42,0,0,0-1.853.255c-.414.117-3.767,1.137-6.756,2.05l-1.62.494-.539.165-2.6.793-.14.109.322.282.14-.109c.749-.23,10.778-3.294,11.512-3.5a4.42,4.42,0,0,1,1.853-.255c.287.036,5.836,2.826,10.136,5,2.579,1.307,4.71,2.393,4.985,2.535Z" transform="translate(-646.369 174.463)"/><path class="bi" d="M675.345-166.655c2.891,1.662,1.957,11.3.705,15.374a9.557,9.557,0,0,1-2.4,3.666,10.657,10.657,0,0,1-1.485,1.267,7.574,7.574,0,0,1-2.23,1.181l-23.1,7.093-.088-.039-.1-32.061.069-.153.14-.109c.749-.23,10.778-3.294,11.512-3.5a4.439,4.439,0,0,1,1.853-.255C660.684-174.135,674.613-167.029,675.345-166.655Zm-26.7,8.763,25.962-7.973c-.415-.212-8.3-4.238-14.12-6.934-.864-.249-1.3-.065-2.619.323l-9.434,2.8.211,11.786Z" transform="translate(-646.329 174.507)"/><path class="s" d="M646.709-151.535l.031,10,.088.039,23.1-7.093a7.616,7.616,0,0,0,2.23-1.181,10.655,10.655,0,0,0,1.485-1.267,9.543,9.543,0,0,0,2.4-3.666c.1-.321.181-.662.262-1.019C663.428-152.291,646.709-151.535,646.709-151.535Z" transform="translate(-646.318 177.928)"/><path class="t" d="M654.326-157.954l-4.242,1.278c-.373.127-.679.047-.685-.177l-.021-.889c-.006-.224.292-.507.665-.633l4.242-1.28c.372-.126.679-.046.685.177l.021.89C655-158.364,654.7-158.08,654.326-157.954Z" transform="translate(-645.825 177.19)"/><path class="bk" d="M648.363-158.1l25.962-7.973c-.415-.212-8.3-4.238-14.12-6.934-.864-.249-1.3-.065-2.619.323l-9.434,2.8.211,11.786Z" transform="translate(-646.052 174.712)"/><path class="bu" d="M655.046-160.347l-5.727,1.72a.406.406,0,0,0-.3.344l0,.559c0,.14.134.214.3.166l5.728-1.72a.407.407,0,0,0,.3-.344l0-.559C655.343-160.321,655.21-160.4,655.046-160.347Z" transform="translate(-645.891 177.07)"/></g></g></g></svg>