<svg xmlns="http://www.w3.org/2000/svg" width="60" height="75" viewBox="0 0 91 75"><defs><style>.a{fill:#faf2ef;}.b{fill:#c57c67;}.c{fill:#b9615a;}.d{fill:#354d49;}.e{fill:#eaebec;}.f{fill:#d33b19;}.g{fill:#e7dacd;}</style></defs><g transform="translate(-1370.992 -1706.593)"><g transform="translate(1370.992 1706.593)"><rect class="a" width="89.102" height="53.07" transform="translate(0.949 17.534)"/><path class="b" d="M.806,0H90.194A.806.806,0,0,1,91,.806V4.4a0,0,0,0,1,0,0H0a0,0,0,0,1,0,0V.806A.806.806,0,0,1,.806,0Z" transform="translate(0 70.604)"/><path class="b" d="M0,0H91a0,0,0,0,1,0,0V3.59a.806.806,0,0,1-.806.806H.806A.806.806,0,0,1,0,3.59V0A0,0,0,0,1,0,0Z" transform="translate(0 13.424)"/><rect class="c" width="89.102" height="3.591" transform="translate(0.949 9.948)"/><rect class="d" width="89.031" height="1.978" transform="translate(0.984 7.97)"/><rect class="e" width="44.974" height="1.978" transform="translate(23.013 7.97)"/><rect class="e" width="14.042" height="1.029" transform="translate(71.858 8.919)"/><path class="f" d="M1481.361,1796.828h8.622l-5.913,10.136h6.845l-13.384,12.321,4.82-12.321h-5.126Z" transform="translate(-1438.57 -1763.856)"/><path class="f" d="M1582.938,1706.593h-9.346l-.83,8.919h11.006Z" transform="translate(-1499.386 -1706.593)"/><path class="g" d="M1399.159,1706.593h-9.346l-.83,8.919h11.006Z" transform="translate(-1382.365 -1706.593)"/><rect class="e" width="14.042" height="1.029" transform="translate(19.142 9.948) rotate(180)"/><rect class="d" width="2.248" height="3.591" transform="translate(10.997 9.948)"/><rect class="b" width="0.904" height="3.591" transform="translate(13.245 9.948)"/><rect class="b" width="0.904" height="3.591" transform="translate(10.093 9.948)"/><rect class="d" width="2.249" height="3.591" transform="translate(44.376 9.948)"/><rect class="b" width="0.904" height="3.591" transform="translate(46.61 9.948)"/><rect class="b" width="0.904" height="3.591" transform="translate(43.487 9.948)"/><rect class="d" width="2.249" height="3.591" transform="translate(77.755 9.948)"/><rect class="b" width="0.904" height="3.591" transform="translate(80.003 9.948)"/><rect class="b" width="0.904" height="3.591" transform="translate(76.851 9.948)"/></g></g></svg>