<svg xmlns="http://www.w3.org/2000/svg" width="30" height="6" viewBox="0 0 76 98"><defs><style>.a{fill:#263238;}.b{fill:#faf2ef;}.c{fill:#f2421b;}.d{fill:#253239;}.e{fill:#b17565;}.f{fill:#efdacb;}.g{fill:#294549;}.h{fill:#8e585a;}</style></defs><g transform="translate(-2555.911 -1857.877)"><g transform="translate(2555.911 1857.877)"><rect class="a" width="15.824" height="14.974" transform="translate(4.357 9.136)"/><path class="b" d="M2618.832,1865.246a23,23,0,0,1,13.079,20.724v62.821a7.092,7.092,0,0,1-7.1,7.085h-61.8a7.092,7.092,0,0,1-7.1-7.085v-56.927a13.8,13.8,0,0,1,4.337-10.04c8.212-7.735,25.739-23.6,31.68-23.913C2600.324,1857.469,2610.737,1861.375,2618.832,1865.246Zm-.774,9.05c-3.217-4.78-16.77-10.522-23.8-9.715-1.707.2-5.173,2.847-7.729,4.99a2.443,2.443,0,0,0,.72,4.166l24.482,9.148a2.865,2.865,0,0,0,3.344-1.029C2616.672,1879.579,2619.042,1875.759,2618.057,1874.3Z" transform="translate(-2555.911 -1857.877)"/><path class="c" d="M2611.815,1894.042l-12.856-4.16a2.27,2.27,0,0,0-2.967,2.159v4.7l15.824,5.118Z" transform="translate(-2535.815 -1841.979)"/><path class="d" d="M2598.958,1889.882a2.27,2.27,0,0,0-2.967,2.159v.926a2.269,2.269,0,0,1,2.967-2.158l12.856,4.159v-.926Z" transform="translate(-2535.815 -1841.952)"/><rect class="d" width="15.824" height="1.253" transform="translate(4.357 7.884)"/><path class="e" d="M1.212,0h13.4a1.212,1.212,0,0,1,1.212,1.212V6.347a0,0,0,0,1,0,0H0a0,0,0,0,1,0,0V1.212A1.212,1.212,0,0,1,1.212,0Z" transform="translate(4.357 1.537)"/><path class="c" d="M2611.815,1903.7l-12.856-4.159a2.269,2.269,0,0,0-2.967,2.158v4.7l15.824,5.119Z" transform="translate(-2535.815 -1837.162)"/><path class="c" d="M2611.815,1913.364l-12.856-4.159a2.269,2.269,0,0,0-2.967,2.158v4.7l15.824,5.119Z" transform="translate(-2535.815 -1832.417)"/><path class="d" d="M2598.958,1899.546a2.269,2.269,0,0,0-2.967,2.158v.927a2.269,2.269,0,0,1,2.967-2.16l12.856,4.159v-.926Z" transform="translate(-2535.815 -1837.125)"/><path class="d" d="M2598.958,1909.209a2.27,2.27,0,0,0-2.967,2.159v.926a2.268,2.268,0,0,1,2.967-2.158l12.856,4.158v-.926Z" transform="translate(-2535.815 -1832.3)"/><path class="f" d="M2628.364,1886.161a23.172,23.172,0,0,0-13.07-20.865c-8.089-3.9-18.494-7.83-26.885-7.384-4.707.249-16.691,10.343-25.545,18.4l65.5,24.748v-14.895Zm-16.829-4.142a2.85,2.85,0,0,1-3.341,1.036l-24.465-9.21a2.469,2.469,0,0,1-.72-4.2c2.554-2.156,6.018-4.825,7.724-5.022,7.03-.812,20.573,4.968,23.787,9.781C2615.5,1875.88,2613.136,1879.726,2611.535,1882.019Z" transform="translate(-2552.364 -1857.877)"/><rect class="f" width="46.953" height="56.274" rx="3.372" transform="translate(9.283 33.811)"/><path class="c" d="M2583.194,1884.562s-16.545,17.848-16.545,29.621a16.544,16.544,0,1,0,33.089,0C2599.738,1902.41,2583.194,1884.562,2583.194,1884.562Z" transform="translate(-2550.564 -1844.929)"/><g transform="translate(12.769 55.085)"><path class="g" d="M2571.506,1903.5l-.225-3.636c-.077-1.282-.139-2.629-.115-3.546l-1.584,6.238h-1.573l-1.685-6.252a35.286,35.286,0,0,1-.05,3.611l-.215,3.585h-1.61l.692-8.692h2.138l1.548,6.089,1.458-6.089h2.164l.679,8.692Z" transform="translate(-2564.449 -1894.619)"/><path class="g" d="M2578.561,1899.212c0,2.868-1.472,4.541-3.8,4.541s-3.812-1.623-3.812-4.529c0-2.856,1.485-4.541,3.812-4.541S2578.561,1896.3,2578.561,1899.212Zm-5.862.012c0,2.341.793,3.259,2.063,3.259,1.3,0,2.05-.918,2.05-3.271,0-2.327-.741-3.259-2.05-3.259S2572.7,1896.885,2572.7,1899.224Z" transform="translate(-2561.133 -1894.683)"/><path class="g" d="M2580.291,1896.129v7.371h-1.673v-7.371h-2.34v-1.321h6.454l-.177,1.321Z" transform="translate(-2558.416 -1894.619)"/><path class="g" d="M2588.275,1899.212c0,2.868-1.472,4.541-3.8,4.541s-3.811-1.623-3.811-4.529c0-2.856,1.484-4.541,3.811-4.541S2588.275,1896.3,2588.275,1899.212Zm-5.862.012c0,2.341.793,3.259,2.063,3.259,1.3,0,2.051-.918,2.051-3.271,0-2.327-.741-3.259-2.051-3.259S2582.413,1896.885,2582.413,1899.224Z" transform="translate(-2556.178 -1894.683)"/><path class="g" d="M2588.393,1900.016v3.484h-1.661v-8.692h2.593c2.275,0,3.445.829,3.445,2.553a2.348,2.348,0,0,1-1.761,2.353l2.278,3.786h-1.914l-1.924-3.484Zm1.031-1.2c1.033,0,1.61-.415,1.61-1.459,0-.944-.541-1.347-1.748-1.347h-.894v2.805Z" transform="translate(-2553.083 -1894.619)"/><path class="g" d="M2579.365,1909.2c0,2.868-1.472,4.542-3.8,4.542s-3.813-1.623-3.813-4.528c0-2.857,1.485-4.542,3.813-4.542S2579.365,1906.294,2579.365,1909.2Zm-5.864.014c0,2.339.793,3.257,2.065,3.257,1.3,0,2.05-.918,2.05-3.271,0-2.327-.743-3.257-2.05-3.257S2573.5,1906.874,2573.5,1909.214Z" transform="translate(-2560.724 -1889.588)"/><path class="g" d="M2577.822,1913.49V1904.8h1.673v8.693Z" transform="translate(-2557.628 -1889.524)"/><path class="g" d="M2585.424,1912.132l-.189,1.359h-4.958V1904.8h1.661v7.335Z" transform="translate(-2556.376 -1889.524)"/></g><path class="h" d="M2573.7,1863.315l-.272-3.888a.249.249,0,0,0-.248-.229h-.5a.247.247,0,0,0-.246.229l-.272,3.888h-1.491l-.272-3.888a.248.248,0,0,0-.248-.229h-.5a.248.248,0,0,0-.246.229l-.272,3.888h-1.493l-.27-3.888a.249.249,0,0,0-.248-.229h-.5a.247.247,0,0,0-.247.229l-.272,3.888h-1.492l-.272-3.888a.249.249,0,0,0-.248-.229h-.5a.247.247,0,0,0-.246.229l-.272,3.888H2561.6l-.271-3.888a.248.248,0,0,0-.248-.229h-.5a.248.248,0,0,0-.246.229l-.271,3.888h-1.612v1.773h16.86v-1.773Z" transform="translate(-2554.615 -1857.204)"/></g></g></svg>