<svg xmlns="http://www.w3.org/2000/svg" width="1312.704" height="579.106" viewBox="0 0 1312.704 579.106"><defs><style>.a{fill:#f7cb39;}.b{opacity:0.4;}.c{fill:#e6e6e6;}.d{fill:#f2421b;}</style></defs><g transform="translate(-20.937 -1939.24)"><g transform="translate(-400.389 1249.99)"><g transform="translate(421.326 689.25)"><path class="a" d="M524.943,706.463,514.36,695.086a1.655,1.655,0,0,0-2.459,0l-10.583,11.377a1.655,1.655,0,0,1-2.459,0l-10.583-11.377a1.654,1.654,0,0,0-2.459,0l-10.583,11.377a1.654,1.654,0,0,1-2.459,0l-10.583-11.377a1.656,1.656,0,0,0-2.46,0l-10.582,11.377a1.655,1.655,0,0,1-2.46,0l-10.583-11.377a1.655,1.655,0,0,0-2.459,0l-9.354,10.055a1.654,1.654,0,0,1-2.459,0h0a1.97,1.97,0,0,1,0-2.643l11.812-12.7a1.655,1.655,0,0,1,2.459,0l10.583,11.378a1.656,1.656,0,0,0,2.46,0L459.731,689.8a1.656,1.656,0,0,1,2.46,0l10.583,11.378a1.654,1.654,0,0,0,2.459,0L485.816,689.8a1.654,1.654,0,0,1,2.459,0l10.583,11.378a1.655,1.655,0,0,0,2.459,0L511.9,689.8a1.655,1.655,0,0,1,2.459,0l10.583,11.378a1.655,1.655,0,0,0,2.459,0l9.354-10.055a1.654,1.654,0,0,1,2.459,0h0a1.969,1.969,0,0,1,0,2.643l-11.812,12.7A1.655,1.655,0,0,1,524.943,706.463Z" transform="translate(-421.326 -689.25)"/></g></g><g class="b" transform="translate(574.807 2088.036) rotate(-21)"><g transform="translate(14.156 227.565)"><path class="c" d="M12.859,12.387l.254-.252a1.109,1.109,0,0,0,0-1.579L2.787.327a1.136,1.136,0,0,0-1.6,0h0a1.059,1.059,0,0,1-.105.089L0,1.207l.138.161L11.263,12.386A1.138,1.138,0,0,0,12.859,12.387Z"/></g><g transform="translate(4.82 208.542)"><path class="c" d="M38.088,37.994l.254-.251a1.109,1.109,0,0,0,0-1.58L2.181.328a1.137,1.137,0,0,0-1.6,0L.331.578a1.108,1.108,0,0,0,0,1.579L36.492,37.993A1.137,1.137,0,0,0,38.088,37.994Z"/></g><g transform="translate(1.667 196.253)"><path class="c" d="M50.481,50.276l.254-.25a1.109,1.109,0,0,0,0-1.579L2.181.328a1.136,1.136,0,0,0-1.6,0L.331.578a1.108,1.108,0,0,0,0,1.58L48.885,50.275A1.136,1.136,0,0,0,50.481,50.276Z"/></g><g transform="translate(0.347 185.78)"><path class="c" d="M59.257,58.973l.254-.251a1.109,1.109,0,0,0,0-1.58L2.18.327a1.137,1.137,0,0,0-1.6,0L.331.577a1.109,1.109,0,0,0,0,1.58L57.661,58.973A1.137,1.137,0,0,0,59.257,58.973Z"/></g><g transform="translate(0 176.272)"><path class="c" d="M66.092,65.746l.254-.251a1.109,1.109,0,0,0,0-1.579L2.181.327a1.138,1.138,0,0,0-1.6,0L.331.577a1.109,1.109,0,0,0,0,1.58L64.5,65.745A1.137,1.137,0,0,0,66.092,65.746Z" transform="translate(0 0)"/></g><g transform="translate(0.301 167.405)"><path class="c" d="M71.644,71.249,71.9,71a1.108,1.108,0,0,0,0-1.579L2.181.328a1.137,1.137,0,0,0-1.6,0L.331.577a1.108,1.108,0,0,0,0,1.579L70.049,71.248A1.136,1.136,0,0,0,71.644,71.249Z"/></g><g transform="translate(1.086 159.012)"><path class="c" d="M76.262,75.825l.254-.251a1.109,1.109,0,0,0,0-1.58L2.181.328a1.136,1.136,0,0,0-1.6,0L.331.577a1.108,1.108,0,0,0,0,1.579L74.666,75.824A1.137,1.137,0,0,0,76.262,75.825Z"/></g><g transform="translate(2.236 150.982)"><path class="c" d="M80.147,79.675l.254-.25a1.109,1.109,0,0,0,0-1.58L2.181.327a1.137,1.137,0,0,0-1.6,0L.331.577a1.109,1.109,0,0,0,0,1.58L78.551,79.674A1.138,1.138,0,0,0,80.147,79.675Z"/></g><g transform="translate(3.689 143.256)"><path class="c" d="M83.436,82.935l.254-.251a1.109,1.109,0,0,0,0-1.58L2.181.328a1.137,1.137,0,0,0-1.6,0L.331.577a1.11,1.11,0,0,0,0,1.58L81.84,82.933A1.137,1.137,0,0,0,83.436,82.935Z"/></g><g transform="translate(5.409 135.796)"><path class="c" d="M86.216,85.689l.254-.25a1.109,1.109,0,0,0,0-1.58L2.181.327a1.137,1.137,0,0,0-1.6,0L.331.578a1.109,1.109,0,0,0,0,1.579L84.62,85.688A1.136,1.136,0,0,0,86.216,85.689Z"/></g><g transform="translate(7.358 128.563)"><path class="c" d="M88.557,88.01l.253-.25a1.108,1.108,0,0,0,0-1.58L2.18.328a1.137,1.137,0,0,0-1.6,0L.331.577a1.109,1.109,0,0,0,0,1.58L86.961,88.009A1.137,1.137,0,0,0,88.557,88.01Z"/></g><g transform="translate(9.588 121.608)"><path class="c" d="M90.441,89.877l.254-.251a1.109,1.109,0,0,0,0-1.58L2.181.328a1.136,1.136,0,0,0-1.6,0L.331.577a1.109,1.109,0,0,0,0,1.579L88.845,89.876A1.137,1.137,0,0,0,90.441,89.877Z"/></g><g transform="translate(12.093 114.926)"><path class="c" d="M91.88,91.3l.254-.251a1.109,1.109,0,0,0,0-1.58L2.181.328a1.137,1.137,0,0,0-1.6,0L.331.578a1.109,1.109,0,0,0,0,1.58L90.284,91.3A1.136,1.136,0,0,0,91.88,91.3Z"/></g><g transform="translate(14.833 108.477)"><path class="c" d="M92.94,92.352l.254-.251a1.11,1.11,0,0,0,0-1.58L2.181.328a1.137,1.137,0,0,0-1.6,0L.331.577a1.109,1.109,0,0,0,0,1.579L91.344,92.351A1.136,1.136,0,0,0,92.94,92.352Z"/></g><g transform="translate(17.783 102.236)"><path class="c" d="M93.658,93.065l.254-.251a1.109,1.109,0,0,0,0-1.579L2.181.328a1.136,1.136,0,0,0-1.6,0L.331.577a1.11,1.11,0,0,0,0,1.58L92.062,93.064A1.137,1.137,0,0,0,93.658,93.065Z"/></g><g transform="translate(20.935 96.195)"><path class="c" d="M94.051,93.455,94.3,93.2a1.109,1.109,0,0,0,0-1.579L2.181.328a1.136,1.136,0,0,0-1.6,0L.331.578a1.109,1.109,0,0,0,0,1.579l92.125,91.3A1.137,1.137,0,0,0,94.051,93.455Z"/></g><g transform="translate(24.264 90.316)"><path class="c" d="M94.444,93.843l.254-.25a1.108,1.108,0,0,0,0-1.579L2.181.328a1.136,1.136,0,0,0-1.6,0L.331.578a1.109,1.109,0,0,0,0,1.579L92.848,93.843A1.137,1.137,0,0,0,94.444,93.843Z"/></g><g transform="translate(27.756 84.613)"><path class="c" d="M95.281,94.672l.254-.25a1.109,1.109,0,0,0,0-1.58L2.181.328a1.137,1.137,0,0,0-1.6,0L.331.578a1.108,1.108,0,0,0,0,1.579L93.685,94.671A1.136,1.136,0,0,0,95.281,94.672Z"/></g><g transform="translate(31.406 79.066)"><path class="c" d="M96.562,95.943l.254-.251a1.109,1.109,0,0,0,0-1.58L2.181.328a1.137,1.137,0,0,0-1.6,0L.331.577a1.109,1.109,0,0,0,0,1.58L94.967,95.942A1.137,1.137,0,0,0,96.562,95.943Z"/></g><g transform="translate(35.205 73.666)"><path class="c" d="M98.3,97.668l.254-.251a1.109,1.109,0,0,0,0-1.58L2.181.328a1.136,1.136,0,0,0-1.6,0L.331.578a1.109,1.109,0,0,0,0,1.579l96.377,95.51A1.137,1.137,0,0,0,98.3,97.668Z"/></g><g transform="translate(39.156 68.417)"><path class="c" d="M100.48,99.826l.254-.251a1.109,1.109,0,0,0,0-1.58L2.181.327a1.137,1.137,0,0,0-1.6,0L.331.577a1.109,1.109,0,0,0,0,1.579L98.884,99.824A1.138,1.138,0,0,0,100.48,99.826Z" transform="translate(0 0)"/></g><g transform="translate(43.257 63.316)"><path class="c" d="M103.076,102.4l.254-.251a1.109,1.109,0,0,0,0-1.58L2.181.327a1.137,1.137,0,0,0-1.6,0L.331.577a1.109,1.109,0,0,0,0,1.58L101.48,102.4A1.137,1.137,0,0,0,103.076,102.4Z" transform="translate(0 0)"/></g><g transform="translate(47.494 58.351)"><path class="c" d="M106.092,105.386l.254-.251a1.109,1.109,0,0,0,0-1.579L2.181.328a1.137,1.137,0,0,0-1.6,0L.331.577a1.108,1.108,0,0,0,0,1.579L104.5,105.385A1.137,1.137,0,0,0,106.092,105.386Z"/></g><g transform="translate(51.883 53.535)"><path class="c" d="M109.479,108.744l.254-.251a1.109,1.109,0,0,0,0-1.579L2.181.328a1.137,1.137,0,0,0-1.6,0L.331.578a1.109,1.109,0,0,0,0,1.58L107.883,108.743A1.137,1.137,0,0,0,109.479,108.744Z"/></g><g transform="translate(56.415 48.862)"><path class="c" d="M113.234,112.464l.253-.25a1.11,1.11,0,0,0,0-1.58L2.181.328a1.136,1.136,0,0,0-1.6,0L.331.577a1.11,1.11,0,0,0,0,1.58L111.638,112.463A1.137,1.137,0,0,0,113.234,112.464Z"/></g><g transform="translate(61.098 44.332)"><path class="c" d="M117.295,116.489l.253-.251a1.11,1.11,0,0,0,0-1.58L2.181.328a1.137,1.137,0,0,0-1.6,0L.331.578a1.109,1.109,0,0,0,0,1.58L115.7,116.488A1.138,1.138,0,0,0,117.295,116.489Z"/></g><g transform="translate(65.931 39.951)"><path class="c" d="M121.618,120.773l.253-.25a1.109,1.109,0,0,0,0-1.58L2.181.327a1.137,1.137,0,0,0-1.6,0L.331.577a1.109,1.109,0,0,0,0,1.58L120.022,120.772A1.137,1.137,0,0,0,121.618,120.773Z" transform="translate(0 0)"/></g><g transform="translate(70.921 35.732)"><path class="c" d="M126.091,125.206l.254-.251a1.109,1.109,0,0,0,0-1.579L2.181.328a1.137,1.137,0,0,0-1.6,0L.331.577a1.108,1.108,0,0,0,0,1.579L124.5,125.206A1.137,1.137,0,0,0,126.091,125.206Z" transform="translate(0 0)"/></g><g transform="translate(76.068 31.667)"><path class="c" d="M130.61,129.685l.254-.251a1.108,1.108,0,0,0,0-1.58L2.181.327a1.137,1.137,0,0,0-1.6,0L.331.578a1.109,1.109,0,0,0,0,1.58L129.014,129.684A1.136,1.136,0,0,0,130.61,129.685Z" transform="translate(0 0)"/></g><g transform="translate(81.385 27.772)"><path class="c" d="M134.666,133.7l.254-.251a1.109,1.109,0,0,0,0-1.58L2.181.328a1.136,1.136,0,0,0-1.6,0L.331.577a1.109,1.109,0,0,0,0,1.579L133.07,133.7A1.137,1.137,0,0,0,134.666,133.7Z"/></g><g transform="translate(86.872 24.045)"><path class="c" d="M137.216,136.231l.254-.251a1.108,1.108,0,0,0,0-1.58L2.181.328a1.136,1.136,0,0,0-1.6,0L.331.578a1.108,1.108,0,0,0,0,1.579L135.62,136.23A1.136,1.136,0,0,0,137.216,136.231Z"/></g><g transform="translate(92.549 20.507)"><path class="c" d="M138.851,137.851l.253-.251a1.108,1.108,0,0,0,0-1.579L2.181.327a1.137,1.137,0,0,0-1.6,0L.331.578a1.108,1.108,0,0,0,0,1.579L137.254,137.85A1.137,1.137,0,0,0,138.851,137.851Z" transform="translate(0 0)"/></g><g transform="translate(98.429 17.169)"><path class="c" d="M139.76,138.752l.254-.251a1.108,1.108,0,0,0,0-1.58L2.181.328a1.137,1.137,0,0,0-1.6,0L.331.578a1.109,1.109,0,0,0,0,1.58L138.164,138.751A1.138,1.138,0,0,0,139.76,138.752Z" transform="translate(0 0)"/></g><g transform="translate(104.511 14.032)"><path class="c" d="M140.035,139.024l.253-.251a1.109,1.109,0,0,0,0-1.579L2.18.328a1.136,1.136,0,0,0-1.6,0L.331.577a1.109,1.109,0,0,0,0,1.58L138.439,139.023A1.137,1.137,0,0,0,140.035,139.024Z" transform="translate(0 0)"/></g><g transform="translate(110.835 11.135)"><path class="c" d="M139.662,138.655l.253-.251a1.109,1.109,0,0,0,0-1.58L2.181.328a1.136,1.136,0,0,0-1.6,0L.331.578a1.109,1.109,0,0,0,0,1.58l137.736,136.5A1.138,1.138,0,0,0,139.662,138.655Z" transform="translate(0 0)"/></g><g transform="translate(117.415 8.478)"><path class="c" d="M138.648,137.65l.255-.25a1.109,1.109,0,0,0,0-1.58L2.18.328a1.136,1.136,0,0,0-1.6,0L.331.578a1.108,1.108,0,0,0,0,1.579L137.052,137.649A1.137,1.137,0,0,0,138.648,137.65Z" transform="translate(0 0)"/></g><g transform="translate(124.263 6.099)"><path class="c" d="M136.948,135.966l.254-.251a1.108,1.108,0,0,0,0-1.579L2.18.328a1.136,1.136,0,0,0-1.6,0L.331.578a1.109,1.109,0,0,0,0,1.58L135.352,135.964A1.137,1.137,0,0,0,136.948,135.966Z" transform="translate(0 0)"/></g><g transform="translate(131.431 4.038)"><path class="c" d="M134.5,133.535l.254-.251a1.109,1.109,0,0,0,0-1.579L2.181.328a1.137,1.137,0,0,0-1.6,0L.331.577a1.109,1.109,0,0,0,0,1.58L132.9,133.533A1.136,1.136,0,0,0,134.5,133.535Z"/></g><g transform="translate(138.958 2.333)"><path class="c" d="M131.225,130.294l.253-.251a1.108,1.108,0,0,0,0-1.579L2.18.328a1.136,1.136,0,0,0-1.6,0L.331.578a1.109,1.109,0,0,0,0,1.58l129.3,128.135A1.136,1.136,0,0,0,131.225,130.294Z"/></g><g transform="translate(146.905 1.044)"><path class="c" d="M127.006,126.113l.254-.25a1.109,1.109,0,0,0,0-1.58L2.181.328a1.138,1.138,0,0,0-1.6,0L.331.577a1.108,1.108,0,0,0,0,1.579L125.411,126.112A1.137,1.137,0,0,0,127.006,126.113Z"/></g><g transform="translate(155.335 0.234)"><path class="c" d="M121.716,120.87l.254-.251a1.109,1.109,0,0,0,0-1.58L2.181.328a1.137,1.137,0,0,0-1.6,0L.331.577a1.109,1.109,0,0,0,0,1.58L120.12,120.869A1.137,1.137,0,0,0,121.716,120.87Z"/></g><g transform="translate(164.347 0)"><path class="c" d="M115.136,114.35l.253-.25a1.109,1.109,0,0,0,0-1.579L2.181.328a1.138,1.138,0,0,0-1.6,0L.331.577a1.109,1.109,0,0,0,0,1.58L113.54,114.349A1.138,1.138,0,0,0,115.136,114.35Z"/></g><g transform="translate(174.046 0.448)"><path class="c" d="M107.013,106.3l.254-.25a1.109,1.109,0,0,0,0-1.58L2.181.328a1.136,1.136,0,0,0-1.6,0L.331.577a1.109,1.109,0,0,0,0,1.58L105.417,106.3A1.136,1.136,0,0,0,107.013,106.3Z"/></g><g transform="translate(184.628 1.769)"><path class="c" d="M96.916,96.293l.253-.25a1.109,1.109,0,0,0,0-1.58L2.181.328a1.138,1.138,0,0,0-1.6,0L.331.577a1.108,1.108,0,0,0,0,1.579L95.319,96.292A1.137,1.137,0,0,0,96.916,96.293Z"/></g><g transform="translate(196.459 4.323)"><path class="c" d="M84.1,83.6l.254-.251a1.11,1.11,0,0,0,0-1.58L2.181.329a1.136,1.136,0,0,0-1.6,0L.331.578a1.109,1.109,0,0,0,0,1.58L82.508,83.6A1.136,1.136,0,0,0,84.1,83.6Z"/></g><g transform="translate(210.22 8.789)"><path class="c" d="M67.191,66.835l.254-.25a1.109,1.109,0,0,0,0-1.58L2.181.328a1.137,1.137,0,0,0-1.6,0L.331.578a1.109,1.109,0,0,0,0,1.58L65.595,66.835A1.137,1.137,0,0,0,67.191,66.835Z"/></g><g transform="translate(228.185 17.428)"><path class="c" d="M41.887,41.76l.254-.251a1.109,1.109,0,0,0,0-1.579L2.181.328a1.136,1.136,0,0,0-1.6,0L.331.577a1.108,1.108,0,0,0,0,1.579l39.961,39.6A1.137,1.137,0,0,0,41.887,41.76Z"/></g></g><g transform="translate(761.033 1806.403)"><g transform="translate(421.326 689.25)"><path class="d" d="M553.721,711.243,540.2,696.706a2.115,2.115,0,0,0-3.142,0l-13.523,14.537a2.114,2.114,0,0,1-3.142,0l-13.522-14.537a2.114,2.114,0,0,0-3.141,0l-13.523,14.537a2.113,2.113,0,0,1-3.141,0l-13.522-14.537a2.116,2.116,0,0,0-3.143,0l-13.521,14.537a2.115,2.115,0,0,1-3.143,0l-13.522-14.537a2.115,2.115,0,0,0-3.142,0l-11.952,12.848a2.114,2.114,0,0,1-3.141,0h0a2.517,2.517,0,0,1,0-3.377L437.07,689.95a2.114,2.114,0,0,1,3.142,0l13.522,14.538a2.115,2.115,0,0,0,3.143,0L470.4,689.95a2.115,2.115,0,0,1,3.143,0l13.522,14.538a2.114,2.114,0,0,0,3.141,0l13.523-14.538a2.114,2.114,0,0,1,3.141,0l13.522,14.538a2.115,2.115,0,0,0,3.142,0l13.523-14.538a2.114,2.114,0,0,1,3.142,0l13.522,14.538a2.114,2.114,0,0,0,3.142,0l11.952-12.848a2.114,2.114,0,0,1,3.141,0h0a2.516,2.516,0,0,1,0,3.377l-15.093,16.227A2.114,2.114,0,0,1,553.721,711.243Z" transform="translate(-421.326 -689.25)"/></g></g></g></svg>